<?xml version="1.0" standalone="no"?>
<!DOCTYPE svg PUBLIC "-//W3C//DTD SVG 1.1//EN" "http://www.w3.org/Graphics/SVG/1.1/DTD/svg11.dtd" >
<svg xmlns="http://www.w3.org/2000/svg" xmlns:xlink="http://www.w3.org/1999/xlink" version="1.1">
<metadata>
Created by FontForge 20190801 at Sat Aug 31 19:30:57 2019
 By Jimmy Wärting
8:51:22 pm
</metadata>
<defs>
<font id="851Gkktt" horiz-adv-x="1024" vert-adv-y="1024" >
  <font-face 
    font-family="851Gkktt"
    font-weight="400"
    font-stretch="normal"
    units-per-em="1024"
    panose-1="2 0 6 0 0 0 0 0 0 0"
    ascent="819"
    descent="-205"
    x-height="376"
    cap-height="615"
    bbox="-130 -201 1175 886"
    underline-thickness="48"
    underline-position="-120"
    unicode-range="U+0020-FFEE"
  />
<missing-glyph 
 />
    <glyph glyph-name=".notdef" 
 />
    <glyph glyph-name="glyph1" horiz-adv-x="0" 
 />
    <glyph glyph-name="space" unicode=" " horiz-adv-x="512" 
 />
    <glyph glyph-name="exclam" unicode="!" horiz-adv-x="405" 
d="M132 170l25 444h194l-57 -444h-162zM106 36l7 75h194l-7 -75h-194z" />
    <glyph glyph-name="quotedbl" unicode="&#x22;" horiz-adv-x="308" 
d="M41 409l18 211h96l-18 -211h-96zM153 409l18 211h96l-18 -211h-96z" />
    <glyph glyph-name="numbersign" unicode="#" horiz-adv-x="765" 
d="M108 36l48 547h192l-48 -547h-192zM67 419l5 60h658l-5 -60h-658zM428 36l48 547h192l-48 -547h-192zM47 179l5 60h658l-5 -60h-658z" />
    <glyph glyph-name="dollar" unicode="$" horiz-adv-x="617" 
d="M412 36l26 308h144l-26 -308h-144zM55 284l22 267h144l-22 -267h-144zM32 36l6 60h523l-5 -60h-524zM88 491l-11 60h512l-5 -60h-496zM70 284l5 60h492l-5 -60h-492zM196 -35l56 648h184l-56 -648h-184z" />
    <glyph glyph-name="percent" unicode="%" horiz-adv-x="892" 
d="M515 36l30 340h136l-30 -340h-136zM548 316l5 60h295l-5 -60h-295zM687 36l30 340h136l-30 -340h-136zM515 36l6 60h295l-5 -60h-296zM51 273l30 340h136l-30 -340h-136zM84 553l5 60h295l-5 -60h-295zM223 273l30 340h136l-30 -340h-136zM51 273l6 60h295l-5 -60h-296z
M211 36l302 580h176l-302 -580h-176z" />
    <glyph glyph-name="ampersand" unicode="&#x26;" horiz-adv-x="800" 
d="M36 36l31 356h208l-23 -284zM481 332l26 283h192l-26 -283h-192zM36 36l7 76h394l-6 -76h-395zM129 555l5 60h560l-5 -60h-560zM78 332l-11 60h595l11 -60h-595zM572 36l-451 427l13 152h208l-13 -152l451 -427h-208zM268 36l307 211h224l-307 -211h-224z" />
    <glyph glyph-name="quotesingle" unicode="'" horiz-adv-x="316" 
d="M66 408l32 208h176l-32 -208h-176z" />
    <glyph glyph-name="parenleft" unicode="(" horiz-adv-x="448" 
d="M180 4l-56 91l39 450l63 91h192l-63 -91l-39 -450l56 -91h-192z" />
    <glyph glyph-name="parenright" unicode=")" horiz-adv-x="448" 
d="M298 636l56 -91l-39 -450l-63 -91h-192l63 91l39 450l-56 91h192z" />
    <glyph glyph-name="asterisk" unicode="*" horiz-adv-x="552" 
d="M165 96l37 423h176l-37 -423h-176zM31 365l7 92l480 -196l-7 -92zM14 169l7 92l513 196l-7 -92z" />
    <glyph glyph-name="plus" unicode="+" horiz-adv-x="616" 
d="M49 212l5 60h543l-5 -60h-543zM213 36l34 392h184l-34 -392h-184z" />
    <glyph glyph-name="comma" unicode="," horiz-adv-x="257" 
d="M33 4l23 166h144l-39 -166h-128z" />
    <glyph glyph-name="hyphen" unicode="-" horiz-adv-x="512" 
d="M65 220l5 60h395l-5 -60h-395z" />
    <glyph glyph-name="period" unicode="." horiz-adv-x="257" 
d="M33 20l11 118h144l-11 -118h-144z" />
    <glyph glyph-name="slash" unicode="/" horiz-adv-x="444" 
d="M9 36l251 580h176l-251 -580h-176z" />
    <glyph glyph-name="zero" unicode="0" horiz-adv-x="800" 
d="M32 36l50 579h208l-50 -579h-208zM500 36l50 579h208l-50 -579h-208zM32 36l6 60h662l-5 -60h-663zM86 555l5 60h662l-5 -60h-662z" />
    <glyph glyph-name="one" unicode="1" horiz-adv-x="800" 
d="M264 36l50 579h208l-50 -579h-208zM202 555l5 60h310l-5 -60h-310z" />
    <glyph glyph-name="two" unicode="2" horiz-adv-x="800" 
d="M32 36l30 340h208l-30 -340h-208zM524 316l27 299h208l-27 -299h-208zM32 36l6 60h674l-5 -60h-675zM77 555l5 60h672l-5 -60h-672zM73 316l-11 60h659l11 -60h-659z" />
    <glyph glyph-name="three" unicode="3" horiz-adv-x="800" 
d="M500 36l51 579h208l-51 -579h-208zM32 36l5 60h663l-5 -60h-663zM77 555l5 60h672l-5 -60h-672zM65 316l5 60h662l-5 -60h-662z" />
    <glyph glyph-name="four" unicode="4" horiz-adv-x="800" 
d="M48 184l42 396h208l-42 -396h-208zM48 184l12 60h653l-5 -60h-660zM501 36l50 579h208l-50 -579h-208z" />
    <glyph glyph-name="five" unicode="5" horiz-adv-x="800" 
d="M500 36l30 340h208l-30 -340h-208zM56 316l26 299h208l-26 -299h-208zM32 36l6 60h675l-5 -60h-676zM77 555l5 60h671l-5 -60h-671zM71 316l5 60h647l-5 -60h-647z" />
    <glyph glyph-name="six" unicode="6" horiz-adv-x="800" 
d="M500 36l30 340h208l-30 -340h-208zM32 36l6 60h675l-5 -60h-676zM77 555l5 60h671l-5 -60h-671zM73 316l5 60h645l-5 -60h-645zM32 36l50 579h208l-50 -579h-208z" />
    <glyph glyph-name="seven" unicode="7" horiz-adv-x="800" 
d="M500 36l51 579h208l-51 -579h-208zM77 555l5 60h672l-5 -60h-672z" />
    <glyph glyph-name="eight" unicode="8" horiz-adv-x="800" 
d="M32 36l50 579h208l-50 -579h-208zM501 36l50 579h208l-50 -579h-208zM32 36l6 60h663l-5 -60h-664zM86 555l5 60h663l-5 -60h-663zM65 316l5 60h663l-5 -60h-663z" />
    <glyph glyph-name="nine" unicode="9" horiz-adv-x="800" 
d="M501 36l49 579h208l-49 -579h-208zM77 555l5 60h671l-5 -60h-671zM56 316l26 299h208l-26 -299h-208zM32 36l6 60h674l-5 -60h-675zM71 316l5 60h646l-5 -60h-646z" />
    <glyph glyph-name="colon" unicode=":" horiz-adv-x="257" 
d="M33 20l12 134h160l-12 -134h-160zM60 332l12 134h160l-12 -134h-160z" />
    <glyph glyph-name="semicolon" unicode=";" horiz-adv-x="257" 
d="M60 332l12 134h160l-12 -134h-160zM33 4l23 166h152l-39 -166h-136z" />
    <glyph glyph-name="less" unicode="&#x3c;" horiz-adv-x="512" 
d="M109 320l194 225h160l-194 -225h-160zM264 80l-155 240h160l155 -240h-160z" />
    <glyph glyph-name="equal" unicode="=" horiz-adv-x="512" 
d="M55 280l5 60h427l-5 -60h-427zM45 160l5 60h427l-5 -60h-427z" />
    <glyph glyph-name="greater" unicode="&#x3e;" horiz-adv-x="512" 
d="M284 320l-157 225h160l157 -225h-160zM85 80l199 240h160l-199 -240h-160z" />
    <glyph glyph-name="question" unicode="?" horiz-adv-x="800" 
d="M258 36l7 75h226l-7 -75h-226zM80 554l5 60h676l-9 -60h-672zM316 320l-27 60h446l-1 -60h-418zM271 170l18 210h224l-18 -210h-224zM510 320l27 294h224l-27 -294h-224z" />
    <glyph glyph-name="at" unicode="@" horiz-adv-x="881" 
d="M255 134l27 325h144l-27 -325h-144zM456 134l28 324h144l-28 -324h-144zM255 134l6 60h219l-5 -60h-220zM286 398l5 60h331l-5 -60h-331zM536 134l5 60h235l-5 -60h-235zM644 134l39 448h176l-39 -448h-176zM105 522l5 60h707l-5 -60h-707zM24 2l51 580h176l-51 -580
h-176zM104 2l5 60h491l-5 -60h-491z" />
    <glyph glyph-name="A" unicode="A" horiz-adv-x="800" 
d="M73 316l5 60h645l-5 -60h-645zM32 36l50 579h208l-50 -579h-208zM500 36l50 579h208l-50 -579h-208zM89 555l5 60h645l-5 -60h-645z" />
    <glyph glyph-name="B" unicode="B" horiz-adv-x="800" 
d="M500 36l30 340h208l-30 -340h-208zM32 36l6 60h675l-5 -60h-676zM73 316l5 60h645l-5 -60h-645zM32 36l50 579h208l-50 -579h-208zM93 555l5 60h581l-5 -60h-581zM464 360l22 255h208l-22 -255h-208z" />
    <glyph glyph-name="C" unicode="C" horiz-adv-x="800" 
d="M32 36l50 579h208l-50 -579h-208zM89 555l5 60h661l-5 -60h-661zM49 36l5 60h657l-5 -60h-657z" />
    <glyph glyph-name="D" unicode="D" horiz-adv-x="800" 
d="M460 36l66 200l16 179l-30 200h208l30 -200l-16 -179l-66 -200h-208zM33 36l51 579h208l-51 -579h-208zM79 555l5 60h600l-5 -60h-600zM33 36l5 60h473l-5 -60h-473z" />
    <glyph glyph-name="E" unicode="E" horiz-adv-x="800" 
d="M32 36l50 579h208l-50 -579h-208zM89 555l5 60h661l-5 -60h-661zM49 36l5 60h657l-5 -60h-657zM73 316l5 60h645l-5 -60h-645z" />
    <glyph glyph-name="F" unicode="F" horiz-adv-x="800" 
d="M32 36l50 579h208l-50 -579h-208zM89 555l5 60h661l-5 -60h-661zM73 316l5 60h629l-5 -60h-629z" />
    <glyph glyph-name="G" unicode="G" horiz-adv-x="800" 
d="M32 36l50 579h208l-50 -579h-208zM89 555l5 60h661l-5 -60h-661zM49 36l5 60h657l-5 -60h-657zM500 36l30 340h208l-30 -340h-208zM397 316l5 60h321l-5 -60h-321z" />
    <glyph glyph-name="H" unicode="H" horiz-adv-x="800" 
d="M73 316l5 60h645l-5 -60h-645zM32 36l50 579h208l-50 -579h-208zM500 36l50 579h208l-50 -579h-208z" />
    <glyph glyph-name="I" unicode="I" horiz-adv-x="517" 
d="M140 36l50 579h208l-50 -579h-208zM105 555l5 60h365l-5 -60h-365zM61 36l5 60h365l-5 -60h-365z" />
    <glyph glyph-name="J" unicode="J" horiz-adv-x="800" 
d="M37 36l5 60h645l-5 -60h-645zM500 36l50 579h208l-50 -579h-208z" />
    <glyph glyph-name="K" unicode="K" horiz-adv-x="800" 
d="M32 36l50 579h208l-50 -579h-208zM73 220l10 100l677 300l-10 -100zM500 36l-186 384h208l186 -384h-208z" />
    <glyph glyph-name="L" unicode="L" horiz-adv-x="800" 
d="M32 36l50 579h208l-50 -579h-208zM49 36l5 60h657l-5 -60h-657z" />
    <glyph glyph-name="M" unicode="M" horiz-adv-x="888" 
d="M32 36l50 579h208l-50 -579h-208zM572 36l50 579h208l-50 -579h-208zM348 320l274 295h160l-274 -295h-160zM348 320l-218 295h160l218 -295h-160z" />
    <glyph glyph-name="N" unicode="N" horiz-adv-x="888" 
d="M32 36l50 579h208l-50 -579h-208zM572 36l50 579h208l-50 -579h-208zM572 36l-442 579h160l442 -579h-160z" />
    <glyph glyph-name="O" unicode="O" horiz-adv-x="800" 
d="M32 36l50 579h208l-50 -579h-208zM89 555l5 60h661l-5 -60h-661zM49 36l5 60h657l-5 -60h-657zM500 36l50 579h208l-50 -579h-208z" />
    <glyph glyph-name="P" unicode="P" horiz-adv-x="800" 
d="M73 316l5 60h645l-5 -60h-645zM32 36l50 579h208l-50 -579h-208zM93 555l5 60h645l-5 -60h-645zM524 316l26 299h208l-26 -299h-208z" />
    <glyph glyph-name="Q" unicode="Q" horiz-adv-x="800" 
d="M32 36l50 579h208l-50 -579h-208zM89 555l5 60h661l-5 -60h-661zM49 36l5 60h657l-5 -60h-657zM500 36l50 579h208l-50 -579h-208zM380 60l-134 243h144l134 -243h-144z" />
    <glyph glyph-name="R" unicode="R" horiz-adv-x="800" 
d="M73 316l5 60h645l-5 -60h-645zM32 36l50 579h208l-50 -579h-208zM93 555l5 60h645l-5 -60h-645zM524 316l26 299h208l-26 -299h-208zM500 36l-98 326h208l98 -326h-208z" />
    <glyph glyph-name="S" unicode="S" horiz-adv-x="800" 
d="M73 316l5 60h645l-5 -60h-645zM93 554l5 60h645l-5 -60h-645zM59 316l26 298h208l-26 -298h-208zM500 36l30 340h208l-30 -340h-208zM32 36l6 60h675l-5 -60h-676zM538 470l13 144h208l-13 -144h-208z" />
    <glyph glyph-name="T" unicode="T" horiz-adv-x="800" 
d="M77 555l5 60h671l-5 -60h-671zM267 36l50 579h208l-50 -579h-208z" />
    <glyph glyph-name="U" unicode="U" horiz-adv-x="800" 
d="M32 36l50 579h208l-50 -579h-208zM49 36l5 60h657l-5 -60h-657zM500 36l50 579h208l-50 -579h-208z" />
    <glyph glyph-name="V" unicode="V" horiz-adv-x="800" 
d="M268 36l-218 579h208l218 -579h-208zM268 36l314 579h208l-314 -579h-208z" />
    <glyph glyph-name="W" unicode="W" horiz-adv-x="888" 
d="M32 36l50 579h208l-50 -579h-208zM572 36l50 579h208l-50 -579h-208zM80 36l274 295h160l-274 -295h-160zM572 36l-218 295h160l218 -295h-160z" />
    <glyph glyph-name="X" unicode="X" horiz-adv-x="828" 
d="M548 36l-474 579h208l474 -579h-208zM28 36l578 579h208l-578 -579h-208z" />
    <glyph glyph-name="Y" unicode="Y" horiz-adv-x="800" 
d="M292 316l-242 299h208l242 -299h-208zM292 316l290 299h208l-290 -299h-208zM267 36l25 280h208l-25 -280h-208z" />
    <glyph glyph-name="Z" unicode="Z" horiz-adv-x="800" 
d="M81 554l5 60h673l-69 -60h-609zM32 36l487 578h240l-487 -578h-240zM32 36l70 60h611l-5 -60h-676z" />
    <glyph glyph-name="bracketleft" unicode="[" horiz-adv-x="444" 
d="M38 4l54 627h192l-54 -627h-192zM95 571l5 60h309l-5 -60h-309zM47 4l5 60h309l-5 -60h-309z" />
    <glyph glyph-name="backslash" unicode="\" horiz-adv-x="444" 
d="M212 36l-152 580h176l152 -580h-176z" />
    <glyph glyph-name="bracketright" unicode="]" horiz-adv-x="444" 
d="M170 4l54 627h192l-54 -627h-192zM93 571l5 60h311l-5 -60h-311zM45 4l5 60h311l-5 -60h-311z" />
    <glyph glyph-name="asciicircum" unicode="^" horiz-adv-x="800" 
d="M104 472l174 143h192l-174 -143h-192zM520 472l-146 143h192l146 -143h-192z" />
    <glyph glyph-name="underscore" unicode="_" horiz-adv-x="512" 
d="M33 20l5 60h447l-5 -60h-447z" />
    <glyph glyph-name="grave" unicode="`" horiz-adv-x="355" 
d="M82 536l5 60l217 -36l-5 -60z" />
    <glyph glyph-name="a" unicode="a" horiz-adv-x="800" 
d="M32 36l18 209h208l-18 -209h-208zM501 36l30 340h208l-30 -340h-208zM32 36l6 60h663l-5 -60h-664zM50 185l5 60h663l-5 -60h-663zM65 316l5 60h663l-5 -60h-663z" />
    <glyph glyph-name="b" unicode="b" horiz-adv-x="800" 
d="M500 36l30 340h208l-30 -340h-208zM32 36l6 60h675l-5 -60h-676zM73 316l5 60h645l-5 -60h-645zM32 36l50 579h208l-50 -579h-208z" />
    <glyph glyph-name="c" unicode="c" horiz-adv-x="800" 
d="M32 36l30 340h208l-30 -340h-208zM32 36l6 60h671l-5 -60h-672zM65 316l5 60h663l-5 -60h-663z" />
    <glyph glyph-name="d" unicode="d" horiz-adv-x="800" 
d="M32 36l30 340h208l-30 -340h-208zM32 36l6 60h663l-5 -60h-664zM65 316l5 60h663l-5 -60h-663zM500 36l50 579h208l-50 -579h-208z" />
    <glyph glyph-name="e" unicode="e" horiz-adv-x="800" 
d="M513 185l16 191h208l-16 -191h-208zM32 36l30 340h208l-30 -340h-208zM32 36l6 60h663l-5 -60h-664zM50 185l5 60h663l-5 -60h-663zM65 316l5 60h663l-5 -60h-663z" />
    <glyph glyph-name="f" unicode="f" horiz-adv-x="505" 
d="M126 555l4 60h355l-5 -60h-354zM80 36l50 579h208l-50 -579h-208zM56 316l6 60h403l-5 -60h-404z" />
    <glyph glyph-name="g" unicode="g" horiz-adv-x="800" 
d="M32 36l30 340h208l-30 -340h-208zM32 36l6 60h663l-5 -60h-664zM65 316l5 60h663l-5 -60h-663zM488 -103l42 479h208l-42 -479h-208zM20 -103l6 60h663l-5 -60h-664z" />
    <glyph glyph-name="h" unicode="h" horiz-adv-x="800" 
d="M500 36l30 340h208l-30 -340h-208zM73 316l5 60h645l-5 -60h-645zM33 36l51 579h208l-51 -579h-208z" />
    <glyph glyph-name="i" unicode="i" horiz-adv-x="343" 
d="M90 520l8 96h208l-8 -96h-208zM49 36l29 340h208l-29 -340h-208z" />
    <glyph glyph-name="j" unicode="j" horiz-adv-x="343" 
d="M90 520l8 96h208l-8 -96h-208zM36 -103l42 479h208l-42 -479h-208zM-12 -103l6 60h247l-5 -60h-248z" />
    <glyph glyph-name="k" unicode="k" horiz-adv-x="800" 
d="M32 36l50 579h208l-50 -579h-208zM500 36l-144 284h208l144 -284h-208zM71 172l6 76l665 192l-6 -76z" />
    <glyph glyph-name="l" unicode="l" horiz-adv-x="335" 
d="M33 36l51 580h208l-51 -580h-208z" />
    <glyph glyph-name="m" unicode="m" horiz-adv-x="880" 
d="M32 36l30 340h196l-30 -340h-196zM65 316l5 60h679l-5 -60h-679zM596 36l30 340h196l-30 -340h-196zM314 36l30 340h196l-30 -340h-196z" />
    <glyph glyph-name="n" unicode="n" horiz-adv-x="800" 
d="M32 36l30 340h208l-30 -340h-208zM65 316l5 60h663l-5 -60h-663zM500 36l30 340h208l-30 -340h-208z" />
    <glyph glyph-name="o" unicode="o" horiz-adv-x="800" 
d="M32 36l30 340h208l-30 -340h-208zM65 316l5 60h663l-5 -60h-663zM500 36l30 340h208l-30 -340h-208zM32 36l6 60h663l-5 -60h-664z" />
    <glyph glyph-name="p" unicode="p" horiz-adv-x="800" 
d="M500 36l30 340h208l-30 -340h-208zM32 36l6 60h663l-5 -60h-664zM65 316l5 60h663l-5 -60h-663zM20 -103l42 479h208l-42 -479h-208z" />
    <glyph glyph-name="q" unicode="q" horiz-adv-x="800" 
d="M32 36l30 340h208l-30 -340h-208zM32 36l6 60h663l-5 -60h-664zM65 316l5 60h663l-5 -60h-663zM488 -103l42 479h208l-42 -479h-208z" />
    <glyph glyph-name="r" unicode="r" horiz-adv-x="683" 
d="M32 36l30 340h208l-30 -340h-208zM65 316l5 60h555l-5 -60h-555z" />
    <glyph glyph-name="s" unicode="s" horiz-adv-x="800" 
d="M500 36l18 209h208l-18 -209h-208zM32 36l6 60h663l-5 -60h-664zM50 185l5 60h663l-5 -60h-663zM65 316l5 60h663l-5 -60h-663zM48 185l16 191h208l-16 -191h-208z" />
    <glyph glyph-name="t" unicode="t" horiz-adv-x="487" 
d="M98 36l4 60h307l-5 -60h-306zM56 316l6 60h371l-5 -60h-372zM80 36l42 491h208l-42 -491h-208z" />
    <glyph glyph-name="u" unicode="u" horiz-adv-x="800" 
d="M32 36l30 340h208l-30 -340h-208zM500 36l30 340h208l-30 -340h-208zM32 36l6 60h663l-5 -60h-664z" />
    <glyph glyph-name="v" unicode="v" horiz-adv-x="767" 
d="M276 36l-238 340h208l238 -340h-208zM276 36l278 340h208l-278 -340h-208z" />
    <glyph glyph-name="w" unicode="w" horiz-adv-x="884" 
d="M32 36l30 340h196l-30 -340h-196zM81 36l5 60h679l-5 -60h-679zM596 36l30 340h196l-30 -340h-196zM314 36l30 340h196l-30 -340h-196z" />
    <glyph glyph-name="x" unicode="x" horiz-adv-x="783" 
d="M520 36l-482 340h208l482 -340h-208zM8 36l546 340h208l-546 -340h-208z" />
    <glyph glyph-name="y" unicode="y" horiz-adv-x="800" 
d="M32 36l30 340h208l-30 -340h-208zM32 36l6 60h663l-5 -60h-664zM488 -103l42 479h208l-42 -479h-208zM132 -103l6 60h551l-5 -60h-552z" />
    <glyph glyph-name="z" unicode="z" horiz-adv-x="800" 
d="M32 36l86 60h595l-5 -60h-676zM57 316l5 60h671l-85 -60h-591zM32 36l446 340h256l-446 -340h-256z" />
    <glyph glyph-name="braceleft" unicode="{" horiz-adv-x="444" 
d="M42 4l54 627h192l-54 -627h-192zM99 571l5 60h309l-5 -60h-309zM51 4l5 60h309l-5 -60h-309zM22 319l5 60h229l-5 -60h-229z" />
    <glyph glyph-name="bar" unicode="|" horiz-adv-x="215" 
d="M14 -192l74 828h112l-74 -828h-112z" />
    <glyph glyph-name="braceright" unicode="}" horiz-adv-x="444" 
d="M166 4l54 627h192l-54 -627h-192zM89 571l5 60h311l-5 -60h-311zM41 4l5 60h311l-5 -60h-311zM205 319l5 60h229l-5 -60h-229z" />
    <glyph glyph-name="asciitilde" unicode="~" horiz-adv-x="512" 
d="M49 220l9 108l115 32l-9 -108zM385 188l9 108l115 32l-9 -108zM164 252l9 108l221 -64l-9 -108z" />
    <glyph glyph-name="uni00A0" unicode="&#xa0;" horiz-adv-x="512" 
 />
    <glyph glyph-name="exclamdown" unicode="&#xa1;" horiz-adv-x="512" 
 />
    <glyph glyph-name="cent" unicode="&#xa2;" horiz-adv-x="660" 
d="M40 36l30 340h192l-30 -340h-192zM40 36l6 60h547l-5 -60h-548zM73 316l5 60h539l-5 -60h-539zM264 -112l114 584h144l-114 -584h-144z" />
    <glyph glyph-name="sterling" unicode="&#xa3;" horiz-adv-x="700" 
d="M180 36l-30 579h208l30 -579h-208zM189 555l5 60h433l-5 -60h-433zM51 159l6 72l559 -123l-6 -72zM73 323l5 60h561l-5 -60h-561zM49 36l5 60h289l-5 -60h-289zM40 36l17 195l99 -55l-12 -140h-104zM539 463l13 152h112l-13 -152h-112z" />
    <glyph glyph-name="currency" unicode="&#xa4;" horiz-adv-x="512" 
 />
    <glyph glyph-name="yen" unicode="&#xa5;" horiz-adv-x="800" 
d="M302 348l-200 219h192l200 -219h-192zM302 348l236 219h192l-236 -219h-192zM275 36l27 312h192l-27 -312h-192zM83 252l5 60h611l-5 -60h-611zM73 140l5 60h611l-5 -60h-611z" />
    <glyph glyph-name="brokenbar" unicode="&#xa6;" horiz-adv-x="512" 
 />
    <glyph glyph-name="section" unicode="&#xa7;" horiz-adv-x="717" 
d="M477 470l4 52h-194l-6 -77l398 -53l-5 -60l-14 -152h-208h-22l226 -36l-5 -60l-11 -120h-208h-228v2h-175l9 112h208l-4 -54h195l9 93l-398 63l5 60l11 126h13h195h145l-347 46l14 170h13h195h194h192h16l-9 -112h-208zM463 306h-196l-6 -66h196z" />
    <glyph glyph-name="dieresis" unicode="&#xa8;" horiz-adv-x="800" 
d="M233 544l7 74h108l-7 -74h-108zM481 544l7 74h108l-7 -74h-108z" />
    <glyph glyph-name="copyright" unicode="&#xa9;" horiz-adv-x="512" 
 />
    <glyph glyph-name="ordfeminine" unicode="&#xaa;" horiz-adv-x="512" 
 />
    <glyph glyph-name="guillemotleft" unicode="&#xab;" 
 />
    <glyph glyph-name="logicalnot" unicode="&#xac;" horiz-adv-x="665" 
d="M53 260l5 60h519l-5 -60h-519zM436 172l13 148h168l-13 -148h-168z" />
    <glyph glyph-name="uni00AD" unicode="&#xad;" horiz-adv-x="512" 
 />
    <glyph glyph-name="registered" unicode="&#xae;" horiz-adv-x="512" 
 />
    <glyph glyph-name="macron" unicode="&#xaf;" 
 />
    <glyph glyph-name="degree" unicode="&#xb0;" horiz-adv-x="440" 
d="M399 392h-5h-119h-84h-113h-11l20 228h8h116h84h116h8zM290 560h-84l-10 -108h84z" />
    <glyph glyph-name="plusminus" unicode="&#xb1;" 
d="M177 380l5 60h255l16 181h164l-16 -181h252l-5 -60h-252l-19 -224h-164l19 224h-255zM147 28l5 60h671l-5 -60h-671z" />
    <glyph glyph-name="uni00B2" unicode="&#xb2;" horiz-adv-x="512" 
 />
    <glyph glyph-name="uni00B3" unicode="&#xb3;" horiz-adv-x="512" 
 />
    <glyph glyph-name="acute" unicode="&#xb4;" horiz-adv-x="355" 
d="M78 500l5 60l225 32l-5 -60z" />
    <glyph glyph-name="mu" unicode="&#xb5;" 
 />
    <glyph glyph-name="paragraph" unicode="&#xb6;" horiz-adv-x="663" 
d="M241 20l28 318h-193l26 298h32h162h14h98h32h112h81l-5 -60h-81l-50 -556h-112l50 556h-32l-50 -556h-112z" />
    <glyph glyph-name="periodcentered" unicode="&#xb7;" 
 />
    <glyph glyph-name="cedilla" unicode="&#xb8;" 
 />
    <glyph glyph-name="uni00B9" unicode="&#xb9;" horiz-adv-x="512" 
 />
    <glyph glyph-name="ordmasculine" unicode="&#xba;" horiz-adv-x="512" 
 />
    <glyph glyph-name="guillemotright" unicode="&#xbb;" 
 />
    <glyph glyph-name="onequarter" unicode="&#xbc;" horiz-adv-x="512" 
 />
    <glyph glyph-name="onehalf" unicode="&#xbd;" horiz-adv-x="512" 
 />
    <glyph glyph-name="threequarters" unicode="&#xbe;" horiz-adv-x="512" 
 />
    <glyph glyph-name="questiondown" unicode="&#xbf;" horiz-adv-x="512" 
 />
    <glyph glyph-name="Agrave" unicode="&#xc0;" horiz-adv-x="512" 
 />
    <glyph glyph-name="Aacute" unicode="&#xc1;" horiz-adv-x="512" 
 />
    <glyph glyph-name="Acircumflex" unicode="&#xc2;" horiz-adv-x="512" 
 />
    <glyph glyph-name="Atilde" unicode="&#xc3;" horiz-adv-x="512" 
 />
    <glyph glyph-name="Adieresis" unicode="&#xc4;" horiz-adv-x="512" 
 />
    <glyph glyph-name="Aring" unicode="&#xc5;" horiz-adv-x="512" 
 />
    <glyph glyph-name="AE" unicode="&#xc6;" horiz-adv-x="512" 
 />
    <glyph glyph-name="Ccedilla" unicode="&#xc7;" horiz-adv-x="512" 
 />
    <glyph glyph-name="Egrave" unicode="&#xc8;" horiz-adv-x="512" 
 />
    <glyph glyph-name="Eacute" unicode="&#xc9;" horiz-adv-x="512" 
 />
    <glyph glyph-name="Ecircumflex" unicode="&#xca;" horiz-adv-x="512" 
 />
    <glyph glyph-name="Edieresis" unicode="&#xcb;" horiz-adv-x="512" 
 />
    <glyph glyph-name="Igrave" unicode="&#xcc;" horiz-adv-x="512" 
 />
    <glyph glyph-name="Iacute" unicode="&#xcd;" horiz-adv-x="512" 
 />
    <glyph glyph-name="Icircumflex" unicode="&#xce;" horiz-adv-x="512" 
 />
    <glyph glyph-name="Idieresis" unicode="&#xcf;" horiz-adv-x="512" 
 />
    <glyph glyph-name="Eth" unicode="&#xd0;" horiz-adv-x="512" 
 />
    <glyph glyph-name="Ntilde" unicode="&#xd1;" horiz-adv-x="512" 
 />
    <glyph glyph-name="Ograve" unicode="&#xd2;" horiz-adv-x="512" 
 />
    <glyph glyph-name="Oacute" unicode="&#xd3;" horiz-adv-x="512" 
 />
    <glyph glyph-name="Ocircumflex" unicode="&#xd4;" horiz-adv-x="512" 
 />
    <glyph glyph-name="Otilde" unicode="&#xd5;" horiz-adv-x="512" 
 />
    <glyph glyph-name="Odieresis" unicode="&#xd6;" horiz-adv-x="512" 
 />
    <glyph glyph-name="multiply" unicode="&#xd7;" 
d="M181 112l246 216l-203 213h164l128 -135l154 135h164l-243 -213l206 -216h-164l-131 138l-157 -138h-164z" />
    <glyph glyph-name="Oslash" unicode="&#xd8;" horiz-adv-x="512" 
 />
    <glyph glyph-name="Ugrave" unicode="&#xd9;" horiz-adv-x="512" 
 />
    <glyph glyph-name="Uacute" unicode="&#xda;" horiz-adv-x="512" 
 />
    <glyph glyph-name="Ucircumflex" unicode="&#xdb;" horiz-adv-x="512" 
 />
    <glyph glyph-name="Udieresis" unicode="&#xdc;" horiz-adv-x="512" 
 />
    <glyph glyph-name="Yacute" unicode="&#xdd;" horiz-adv-x="512" 
 />
    <glyph glyph-name="Thorn" unicode="&#xde;" horiz-adv-x="512" 
 />
    <glyph glyph-name="germandbls" unicode="&#xdf;" horiz-adv-x="512" 
 />
    <glyph glyph-name="agrave" unicode="&#xe0;" horiz-adv-x="512" 
 />
    <glyph glyph-name="aacute" unicode="&#xe1;" horiz-adv-x="512" 
 />
    <glyph glyph-name="acircumflex" unicode="&#xe2;" horiz-adv-x="512" 
 />
    <glyph glyph-name="atilde" unicode="&#xe3;" horiz-adv-x="512" 
 />
    <glyph glyph-name="adieresis" unicode="&#xe4;" horiz-adv-x="512" 
 />
    <glyph glyph-name="aring" unicode="&#xe5;" horiz-adv-x="512" 
 />
    <glyph glyph-name="ae" unicode="&#xe6;" horiz-adv-x="512" 
 />
    <glyph glyph-name="ccedilla" unicode="&#xe7;" horiz-adv-x="512" 
 />
    <glyph glyph-name="egrave" unicode="&#xe8;" horiz-adv-x="512" 
 />
    <glyph glyph-name="eacute" unicode="&#xe9;" horiz-adv-x="512" 
 />
    <glyph glyph-name="ecircumflex" unicode="&#xea;" horiz-adv-x="512" 
 />
    <glyph glyph-name="edieresis" unicode="&#xeb;" horiz-adv-x="512" 
 />
    <glyph glyph-name="igrave" unicode="&#xec;" horiz-adv-x="512" 
 />
    <glyph glyph-name="iacute" unicode="&#xed;" horiz-adv-x="512" 
 />
    <glyph glyph-name="icircumflex" unicode="&#xee;" horiz-adv-x="512" 
 />
    <glyph glyph-name="idieresis" unicode="&#xef;" horiz-adv-x="512" 
 />
    <glyph glyph-name="eth" unicode="&#xf0;" horiz-adv-x="512" 
 />
    <glyph glyph-name="ntilde" unicode="&#xf1;" horiz-adv-x="512" 
 />
    <glyph glyph-name="ograve" unicode="&#xf2;" horiz-adv-x="512" 
 />
    <glyph glyph-name="oacute" unicode="&#xf3;" horiz-adv-x="512" 
 />
    <glyph glyph-name="ocircumflex" unicode="&#xf4;" horiz-adv-x="512" 
 />
    <glyph glyph-name="otilde" unicode="&#xf5;" horiz-adv-x="512" 
 />
    <glyph glyph-name="odieresis" unicode="&#xf6;" horiz-adv-x="512" 
 />
    <glyph glyph-name="divide" unicode="&#xf7;" 
d="M169 297l5 60h675l-5 -60h-675zM404 63l12 134h160l-12 -134h-160zM438 447l12 134h160l-12 -134h-160z" />
    <glyph glyph-name="oslash" unicode="&#xf8;" horiz-adv-x="512" 
 />
    <glyph glyph-name="ugrave" unicode="&#xf9;" horiz-adv-x="512" 
 />
    <glyph glyph-name="uacute" unicode="&#xfa;" horiz-adv-x="512" 
 />
    <glyph glyph-name="ucircumflex" unicode="&#xfb;" horiz-adv-x="512" 
 />
    <glyph glyph-name="udieresis" unicode="&#xfc;" horiz-adv-x="512" 
 />
    <glyph glyph-name="yacute" unicode="&#xfd;" horiz-adv-x="512" 
 />
    <glyph glyph-name="thorn" unicode="&#xfe;" horiz-adv-x="512" 
 />
    <glyph glyph-name="ydieresis" unicode="&#xff;" horiz-adv-x="512" 
 />
    <glyph glyph-name="Amacron" unicode="&#x100;" horiz-adv-x="512" 
 />
    <glyph glyph-name="amacron" unicode="&#x101;" horiz-adv-x="512" 
 />
    <glyph glyph-name="Abreve" unicode="&#x102;" horiz-adv-x="512" 
 />
    <glyph glyph-name="abreve" unicode="&#x103;" horiz-adv-x="512" 
 />
    <glyph glyph-name="Aogonek" unicode="&#x104;" horiz-adv-x="512" 
 />
    <glyph glyph-name="aogonek" unicode="&#x105;" horiz-adv-x="512" 
 />
    <glyph glyph-name="Cacute" unicode="&#x106;" horiz-adv-x="512" 
 />
    <glyph glyph-name="cacute" unicode="&#x107;" horiz-adv-x="512" 
 />
    <glyph glyph-name="Ccircumflex" unicode="&#x108;" horiz-adv-x="512" 
 />
    <glyph glyph-name="ccircumflex" unicode="&#x109;" horiz-adv-x="512" 
 />
    <glyph glyph-name="Cdotaccent" unicode="&#x10a;" horiz-adv-x="512" 
 />
    <glyph glyph-name="cdotaccent" unicode="&#x10b;" horiz-adv-x="512" 
 />
    <glyph glyph-name="Ccaron" unicode="&#x10c;" horiz-adv-x="512" 
 />
    <glyph glyph-name="ccaron" unicode="&#x10d;" horiz-adv-x="512" 
 />
    <glyph glyph-name="Dcaron" unicode="&#x10e;" horiz-adv-x="512" 
 />
    <glyph glyph-name="dcaron" unicode="&#x10f;" horiz-adv-x="512" 
 />
    <glyph glyph-name="Dcroat" unicode="&#x110;" horiz-adv-x="512" 
 />
    <glyph glyph-name="dcroat" unicode="&#x111;" horiz-adv-x="512" 
 />
    <glyph glyph-name="Emacron" unicode="&#x112;" horiz-adv-x="512" 
 />
    <glyph glyph-name="emacron" unicode="&#x113;" horiz-adv-x="512" 
 />
    <glyph glyph-name="Ebreve" unicode="&#x114;" horiz-adv-x="512" 
 />
    <glyph glyph-name="ebreve" unicode="&#x115;" horiz-adv-x="512" 
 />
    <glyph glyph-name="Edotaccent" unicode="&#x116;" horiz-adv-x="512" 
 />
    <glyph glyph-name="edotaccent" unicode="&#x117;" horiz-adv-x="512" 
 />
    <glyph glyph-name="Eogonek" unicode="&#x118;" horiz-adv-x="512" 
 />
    <glyph glyph-name="eogonek" unicode="&#x119;" horiz-adv-x="512" 
 />
    <glyph glyph-name="Ecaron" unicode="&#x11a;" horiz-adv-x="512" 
 />
    <glyph glyph-name="ecaron" unicode="&#x11b;" horiz-adv-x="512" 
 />
    <glyph glyph-name="Gcircumflex" unicode="&#x11c;" horiz-adv-x="512" 
 />
    <glyph glyph-name="gcircumflex" unicode="&#x11d;" horiz-adv-x="512" 
 />
    <glyph glyph-name="Gbreve" unicode="&#x11e;" horiz-adv-x="512" 
 />
    <glyph glyph-name="gbreve" unicode="&#x11f;" horiz-adv-x="512" 
 />
    <glyph glyph-name="Gdotaccent" unicode="&#x120;" horiz-adv-x="512" 
 />
    <glyph glyph-name="gdotaccent" unicode="&#x121;" horiz-adv-x="512" 
 />
    <glyph glyph-name="uni0122" unicode="&#x122;" horiz-adv-x="512" 
 />
    <glyph glyph-name="uni0123" unicode="&#x123;" horiz-adv-x="512" 
 />
    <glyph glyph-name="Hcircumflex" unicode="&#x124;" horiz-adv-x="512" 
 />
    <glyph glyph-name="hcircumflex" unicode="&#x125;" horiz-adv-x="512" 
 />
    <glyph glyph-name="Hbar" unicode="&#x126;" horiz-adv-x="512" 
 />
    <glyph glyph-name="hbar" unicode="&#x127;" horiz-adv-x="512" 
 />
    <glyph glyph-name="Itilde" unicode="&#x128;" horiz-adv-x="512" 
 />
    <glyph glyph-name="itilde" unicode="&#x129;" horiz-adv-x="512" 
 />
    <glyph glyph-name="Imacron" unicode="&#x12a;" horiz-adv-x="512" 
 />
    <glyph glyph-name="imacron" unicode="&#x12b;" horiz-adv-x="512" 
 />
    <glyph glyph-name="Ibreve" unicode="&#x12c;" horiz-adv-x="512" 
 />
    <glyph glyph-name="ibreve" unicode="&#x12d;" horiz-adv-x="512" 
 />
    <glyph glyph-name="Iogonek" unicode="&#x12e;" horiz-adv-x="512" 
 />
    <glyph glyph-name="iogonek" unicode="&#x12f;" horiz-adv-x="512" 
 />
    <glyph glyph-name="Idotaccent" unicode="&#x130;" horiz-adv-x="512" 
 />
    <glyph glyph-name="dotlessi" unicode="&#x131;" horiz-adv-x="512" 
 />
    <glyph glyph-name="IJ" unicode="&#x132;" horiz-adv-x="512" 
 />
    <glyph glyph-name="ij" unicode="&#x133;" horiz-adv-x="512" 
 />
    <glyph glyph-name="Jcircumflex" unicode="&#x134;" horiz-adv-x="512" 
 />
    <glyph glyph-name="jcircumflex" unicode="&#x135;" horiz-adv-x="512" 
 />
    <glyph glyph-name="uni0136" unicode="&#x136;" horiz-adv-x="512" 
 />
    <glyph glyph-name="uni0137" unicode="&#x137;" horiz-adv-x="512" 
 />
    <glyph glyph-name="kgreenlandic" unicode="&#x138;" horiz-adv-x="512" 
 />
    <glyph glyph-name="Lacute" unicode="&#x139;" horiz-adv-x="512" 
 />
    <glyph glyph-name="lacute" unicode="&#x13a;" horiz-adv-x="512" 
 />
    <glyph glyph-name="uni013B" unicode="&#x13b;" horiz-adv-x="512" 
 />
    <glyph glyph-name="uni013C" unicode="&#x13c;" horiz-adv-x="512" 
 />
    <glyph glyph-name="Lcaron" unicode="&#x13d;" horiz-adv-x="512" 
 />
    <glyph glyph-name="lcaron" unicode="&#x13e;" horiz-adv-x="512" 
 />
    <glyph glyph-name="Ldot" unicode="&#x13f;" horiz-adv-x="512" 
 />
    <glyph glyph-name="ldot" unicode="&#x140;" horiz-adv-x="512" 
 />
    <glyph glyph-name="Lslash" unicode="&#x141;" horiz-adv-x="512" 
 />
    <glyph glyph-name="lslash" unicode="&#x142;" horiz-adv-x="512" 
 />
    <glyph glyph-name="Nacute" unicode="&#x143;" horiz-adv-x="512" 
 />
    <glyph glyph-name="nacute" unicode="&#x144;" horiz-adv-x="512" 
 />
    <glyph glyph-name="uni0145" unicode="&#x145;" horiz-adv-x="512" 
 />
    <glyph glyph-name="uni0146" unicode="&#x146;" horiz-adv-x="512" 
 />
    <glyph glyph-name="Ncaron" unicode="&#x147;" horiz-adv-x="512" 
 />
    <glyph glyph-name="ncaron" unicode="&#x148;" horiz-adv-x="512" 
 />
    <glyph glyph-name="napostrophe" unicode="&#x149;" horiz-adv-x="512" 
 />
    <glyph glyph-name="Eng" unicode="&#x14a;" horiz-adv-x="512" 
 />
    <glyph glyph-name="eng" unicode="&#x14b;" horiz-adv-x="512" 
 />
    <glyph glyph-name="Omacron" unicode="&#x14c;" horiz-adv-x="512" 
 />
    <glyph glyph-name="omacron" unicode="&#x14d;" horiz-adv-x="512" 
 />
    <glyph glyph-name="Obreve" unicode="&#x14e;" horiz-adv-x="512" 
 />
    <glyph glyph-name="obreve" unicode="&#x14f;" horiz-adv-x="512" 
 />
    <glyph glyph-name="Ohungarumlaut" unicode="&#x150;" horiz-adv-x="512" 
 />
    <glyph glyph-name="ohungarumlaut" unicode="&#x151;" horiz-adv-x="512" 
 />
    <glyph glyph-name="OE" unicode="&#x152;" horiz-adv-x="512" 
 />
    <glyph glyph-name="oe" unicode="&#x153;" horiz-adv-x="512" 
 />
    <glyph glyph-name="Racute" unicode="&#x154;" horiz-adv-x="512" 
 />
    <glyph glyph-name="racute" unicode="&#x155;" horiz-adv-x="512" 
 />
    <glyph glyph-name="uni0156" unicode="&#x156;" horiz-adv-x="512" 
 />
    <glyph glyph-name="uni0157" unicode="&#x157;" horiz-adv-x="512" 
 />
    <glyph glyph-name="Rcaron" unicode="&#x158;" horiz-adv-x="512" 
 />
    <glyph glyph-name="rcaron" unicode="&#x159;" horiz-adv-x="512" 
 />
    <glyph glyph-name="Sacute" unicode="&#x15a;" horiz-adv-x="512" 
 />
    <glyph glyph-name="sacute" unicode="&#x15b;" horiz-adv-x="512" 
 />
    <glyph glyph-name="Scircumflex" unicode="&#x15c;" horiz-adv-x="512" 
 />
    <glyph glyph-name="scircumflex" unicode="&#x15d;" horiz-adv-x="512" 
 />
    <glyph glyph-name="Scedilla" unicode="&#x15e;" horiz-adv-x="512" 
 />
    <glyph glyph-name="scedilla" unicode="&#x15f;" horiz-adv-x="512" 
 />
    <glyph glyph-name="Scaron" unicode="&#x160;" horiz-adv-x="512" 
 />
    <glyph glyph-name="scaron" unicode="&#x161;" horiz-adv-x="512" 
 />
    <glyph glyph-name="uni0162" unicode="&#x162;" horiz-adv-x="512" 
 />
    <glyph glyph-name="uni0163" unicode="&#x163;" horiz-adv-x="512" 
 />
    <glyph glyph-name="Tcaron" unicode="&#x164;" horiz-adv-x="512" 
 />
    <glyph glyph-name="tcaron" unicode="&#x165;" horiz-adv-x="512" 
 />
    <glyph glyph-name="Tbar" unicode="&#x166;" horiz-adv-x="512" 
 />
    <glyph glyph-name="tbar" unicode="&#x167;" horiz-adv-x="512" 
 />
    <glyph glyph-name="Utilde" unicode="&#x168;" horiz-adv-x="512" 
 />
    <glyph glyph-name="utilde" unicode="&#x169;" horiz-adv-x="512" 
 />
    <glyph glyph-name="Umacron" unicode="&#x16a;" horiz-adv-x="512" 
 />
    <glyph glyph-name="umacron" unicode="&#x16b;" horiz-adv-x="512" 
 />
    <glyph glyph-name="Ubreve" unicode="&#x16c;" horiz-adv-x="512" 
 />
    <glyph glyph-name="ubreve" unicode="&#x16d;" horiz-adv-x="512" 
 />
    <glyph glyph-name="Uring" unicode="&#x16e;" horiz-adv-x="512" 
 />
    <glyph glyph-name="uring" unicode="&#x16f;" horiz-adv-x="512" 
 />
    <glyph glyph-name="Uhungarumlaut" unicode="&#x170;" horiz-adv-x="512" 
 />
    <glyph glyph-name="uhungarumlaut" unicode="&#x171;" horiz-adv-x="512" 
 />
    <glyph glyph-name="Uogonek" unicode="&#x172;" horiz-adv-x="512" 
 />
    <glyph glyph-name="uogonek" unicode="&#x173;" horiz-adv-x="512" 
 />
    <glyph glyph-name="Wcircumflex" unicode="&#x174;" horiz-adv-x="512" 
 />
    <glyph glyph-name="wcircumflex" unicode="&#x175;" horiz-adv-x="512" 
 />
    <glyph glyph-name="Ycircumflex" unicode="&#x176;" horiz-adv-x="512" 
 />
    <glyph glyph-name="ycircumflex" unicode="&#x177;" horiz-adv-x="512" 
 />
    <glyph glyph-name="Ydieresis" unicode="&#x178;" horiz-adv-x="512" 
 />
    <glyph glyph-name="Zacute" unicode="&#x179;" horiz-adv-x="512" 
 />
    <glyph glyph-name="zacute" unicode="&#x17a;" horiz-adv-x="512" 
 />
    <glyph glyph-name="Zdotaccent" unicode="&#x17b;" horiz-adv-x="512" 
 />
    <glyph glyph-name="zdotaccent" unicode="&#x17c;" horiz-adv-x="512" 
 />
    <glyph glyph-name="Zcaron" unicode="&#x17d;" horiz-adv-x="512" 
 />
    <glyph glyph-name="zcaron" unicode="&#x17e;" horiz-adv-x="512" 
 />
    <glyph glyph-name="longs" unicode="&#x17f;" horiz-adv-x="512" 
 />
    <glyph glyph-name="florin" unicode="&#x192;" horiz-adv-x="512" 
 />
    <glyph glyph-name="uni01CD" unicode="&#x1cd;" horiz-adv-x="512" 
 />
    <glyph glyph-name="uni01CE" unicode="&#x1ce;" horiz-adv-x="512" 
 />
    <glyph glyph-name="uni01CF" unicode="&#x1cf;" horiz-adv-x="512" 
 />
    <glyph glyph-name="uni01D0" unicode="&#x1d0;" horiz-adv-x="512" 
 />
    <glyph glyph-name="uni01D1" unicode="&#x1d1;" horiz-adv-x="512" 
 />
    <glyph glyph-name="uni01D2" unicode="&#x1d2;" horiz-adv-x="512" 
 />
    <glyph glyph-name="uni01D3" unicode="&#x1d3;" horiz-adv-x="512" 
 />
    <glyph glyph-name="uni01D4" unicode="&#x1d4;" horiz-adv-x="512" 
 />
    <glyph glyph-name="uni01D5" unicode="&#x1d5;" horiz-adv-x="512" 
 />
    <glyph glyph-name="uni01D6" unicode="&#x1d6;" horiz-adv-x="512" 
 />
    <glyph glyph-name="uni01D7" unicode="&#x1d7;" horiz-adv-x="512" 
 />
    <glyph glyph-name="uni01D8" unicode="&#x1d8;" horiz-adv-x="512" 
 />
    <glyph glyph-name="uni01D9" unicode="&#x1d9;" horiz-adv-x="512" 
 />
    <glyph glyph-name="uni01DA" unicode="&#x1da;" horiz-adv-x="512" 
 />
    <glyph glyph-name="uni01DB" unicode="&#x1db;" horiz-adv-x="512" 
 />
    <glyph glyph-name="uni01DC" unicode="&#x1dc;" horiz-adv-x="512" 
 />
    <glyph glyph-name="uni01F5" unicode="&#x1f5;" horiz-adv-x="512" 
 />
    <glyph glyph-name="Aringacute" unicode="&#x1fa;" horiz-adv-x="512" 
 />
    <glyph glyph-name="aringacute" unicode="&#x1fb;" horiz-adv-x="512" 
 />
    <glyph glyph-name="AEacute" unicode="&#x1fc;" horiz-adv-x="512" 
 />
    <glyph glyph-name="aeacute" unicode="&#x1fd;" horiz-adv-x="512" 
 />
    <glyph glyph-name="Oslashacute" unicode="&#x1fe;" horiz-adv-x="512" 
 />
    <glyph glyph-name="oslashacute" unicode="&#x1ff;" horiz-adv-x="512" 
 />
    <glyph glyph-name="uni0250" unicode="&#x250;" horiz-adv-x="512" 
 />
    <glyph glyph-name="uni0251" unicode="&#x251;" horiz-adv-x="512" 
 />
    <glyph glyph-name="uni0252" unicode="&#x252;" horiz-adv-x="512" 
 />
    <glyph glyph-name="uni0253" unicode="&#x253;" horiz-adv-x="512" 
 />
    <glyph glyph-name="uni0254" unicode="&#x254;" horiz-adv-x="512" 
 />
    <glyph glyph-name="uni0255" unicode="&#x255;" horiz-adv-x="512" 
 />
    <glyph glyph-name="uni0256" unicode="&#x256;" horiz-adv-x="512" 
 />
    <glyph glyph-name="uni0257" unicode="&#x257;" horiz-adv-x="512" 
 />
    <glyph glyph-name="uni0258" unicode="&#x258;" horiz-adv-x="512" 
 />
    <glyph glyph-name="uni0259" unicode="&#x259;" horiz-adv-x="512" 
 />
    <glyph glyph-name="uni025A" unicode="&#x25a;" horiz-adv-x="512" 
 />
    <glyph glyph-name="uni025B" unicode="&#x25b;" horiz-adv-x="512" 
 />
    <glyph glyph-name="uni025C" unicode="&#x25c;" horiz-adv-x="512" 
 />
    <glyph glyph-name="uni025D" unicode="&#x25d;" horiz-adv-x="512" 
 />
    <glyph glyph-name="uni025E" unicode="&#x25e;" horiz-adv-x="512" 
 />
    <glyph glyph-name="uni025F" unicode="&#x25f;" horiz-adv-x="512" 
 />
    <glyph glyph-name="uni0260" unicode="&#x260;" horiz-adv-x="512" 
 />
    <glyph glyph-name="uni0261" unicode="&#x261;" horiz-adv-x="512" 
 />
    <glyph glyph-name="uni0262" unicode="&#x262;" horiz-adv-x="512" 
 />
    <glyph glyph-name="uni0263" unicode="&#x263;" horiz-adv-x="512" 
 />
    <glyph glyph-name="uni0264" unicode="&#x264;" horiz-adv-x="512" 
 />
    <glyph glyph-name="uni0265" unicode="&#x265;" horiz-adv-x="512" 
 />
    <glyph glyph-name="uni0266" unicode="&#x266;" horiz-adv-x="512" 
 />
    <glyph glyph-name="uni0267" unicode="&#x267;" horiz-adv-x="512" 
 />
    <glyph glyph-name="uni0268" unicode="&#x268;" horiz-adv-x="512" 
 />
    <glyph glyph-name="uni0269" unicode="&#x269;" horiz-adv-x="512" 
 />
    <glyph glyph-name="uni026A" unicode="&#x26a;" horiz-adv-x="512" 
 />
    <glyph glyph-name="uni026B" unicode="&#x26b;" horiz-adv-x="512" 
 />
    <glyph glyph-name="uni026C" unicode="&#x26c;" horiz-adv-x="512" 
 />
    <glyph glyph-name="uni026D" unicode="&#x26d;" horiz-adv-x="512" 
 />
    <glyph glyph-name="uni026E" unicode="&#x26e;" horiz-adv-x="512" 
 />
    <glyph glyph-name="uni026F" unicode="&#x26f;" horiz-adv-x="512" 
 />
    <glyph glyph-name="uni0270" unicode="&#x270;" horiz-adv-x="512" 
 />
    <glyph glyph-name="uni0271" unicode="&#x271;" horiz-adv-x="512" 
 />
    <glyph glyph-name="uni0272" unicode="&#x272;" horiz-adv-x="512" 
 />
    <glyph glyph-name="uni0273" unicode="&#x273;" horiz-adv-x="512" 
 />
    <glyph glyph-name="uni0274" unicode="&#x274;" horiz-adv-x="512" 
 />
    <glyph glyph-name="uni0275" unicode="&#x275;" horiz-adv-x="512" 
 />
    <glyph glyph-name="uni0276" unicode="&#x276;" horiz-adv-x="512" 
 />
    <glyph glyph-name="uni0277" unicode="&#x277;" horiz-adv-x="512" 
 />
    <glyph glyph-name="uni0278" unicode="&#x278;" horiz-adv-x="512" 
 />
    <glyph glyph-name="uni0279" unicode="&#x279;" horiz-adv-x="512" 
 />
    <glyph glyph-name="uni027A" unicode="&#x27a;" horiz-adv-x="512" 
 />
    <glyph glyph-name="uni027B" unicode="&#x27b;" horiz-adv-x="512" 
 />
    <glyph glyph-name="uni027C" unicode="&#x27c;" horiz-adv-x="512" 
 />
    <glyph glyph-name="uni027D" unicode="&#x27d;" horiz-adv-x="512" 
 />
    <glyph glyph-name="uni027E" unicode="&#x27e;" horiz-adv-x="512" 
 />
    <glyph glyph-name="uni027F" unicode="&#x27f;" horiz-adv-x="512" 
 />
    <glyph glyph-name="uni0280" unicode="&#x280;" horiz-adv-x="512" 
 />
    <glyph glyph-name="uni0281" unicode="&#x281;" horiz-adv-x="512" 
 />
    <glyph glyph-name="uni0282" unicode="&#x282;" horiz-adv-x="512" 
 />
    <glyph glyph-name="uni0283" unicode="&#x283;" horiz-adv-x="512" 
 />
    <glyph glyph-name="uni0284" unicode="&#x284;" horiz-adv-x="512" 
 />
    <glyph glyph-name="uni0285" unicode="&#x285;" horiz-adv-x="512" 
 />
    <glyph glyph-name="uni0286" unicode="&#x286;" horiz-adv-x="512" 
 />
    <glyph glyph-name="uni0287" unicode="&#x287;" horiz-adv-x="512" 
 />
    <glyph glyph-name="uni0288" unicode="&#x288;" horiz-adv-x="512" 
 />
    <glyph glyph-name="uni0289" unicode="&#x289;" horiz-adv-x="512" 
 />
    <glyph glyph-name="uni028A" unicode="&#x28a;" horiz-adv-x="512" 
 />
    <glyph glyph-name="uni028B" unicode="&#x28b;" horiz-adv-x="512" 
 />
    <glyph glyph-name="uni028C" unicode="&#x28c;" horiz-adv-x="512" 
 />
    <glyph glyph-name="uni028D" unicode="&#x28d;" horiz-adv-x="512" 
 />
    <glyph glyph-name="uni028E" unicode="&#x28e;" horiz-adv-x="512" 
 />
    <glyph glyph-name="uni028F" unicode="&#x28f;" horiz-adv-x="512" 
 />
    <glyph glyph-name="uni0290" unicode="&#x290;" horiz-adv-x="512" 
 />
    <glyph glyph-name="uni0291" unicode="&#x291;" horiz-adv-x="512" 
 />
    <glyph glyph-name="uni0292" unicode="&#x292;" horiz-adv-x="512" 
 />
    <glyph glyph-name="uni0293" unicode="&#x293;" horiz-adv-x="512" 
 />
    <glyph glyph-name="uni0294" unicode="&#x294;" horiz-adv-x="512" 
 />
    <glyph glyph-name="uni0295" unicode="&#x295;" horiz-adv-x="512" 
 />
    <glyph glyph-name="uni0296" unicode="&#x296;" horiz-adv-x="512" 
 />
    <glyph glyph-name="uni0297" unicode="&#x297;" horiz-adv-x="512" 
 />
    <glyph glyph-name="uni0298" unicode="&#x298;" horiz-adv-x="512" 
 />
    <glyph glyph-name="uni0299" unicode="&#x299;" horiz-adv-x="512" 
 />
    <glyph glyph-name="uni029A" unicode="&#x29a;" horiz-adv-x="512" 
 />
    <glyph glyph-name="uni029B" unicode="&#x29b;" horiz-adv-x="512" 
 />
    <glyph glyph-name="uni029C" unicode="&#x29c;" horiz-adv-x="512" 
 />
    <glyph glyph-name="uni029D" unicode="&#x29d;" horiz-adv-x="512" 
 />
    <glyph glyph-name="uni029E" unicode="&#x29e;" horiz-adv-x="512" 
 />
    <glyph glyph-name="uni029F" unicode="&#x29f;" horiz-adv-x="512" 
 />
    <glyph glyph-name="uni02A0" unicode="&#x2a0;" horiz-adv-x="512" 
 />
    <glyph glyph-name="uni02A1" unicode="&#x2a1;" horiz-adv-x="512" 
 />
    <glyph glyph-name="uni02A2" unicode="&#x2a2;" horiz-adv-x="512" 
 />
    <glyph glyph-name="uni02A3" unicode="&#x2a3;" horiz-adv-x="512" 
 />
    <glyph glyph-name="uni02A4" unicode="&#x2a4;" horiz-adv-x="512" 
 />
    <glyph glyph-name="uni02A5" unicode="&#x2a5;" horiz-adv-x="512" 
 />
    <glyph glyph-name="uni02A6" unicode="&#x2a6;" horiz-adv-x="512" 
 />
    <glyph glyph-name="uni02A7" unicode="&#x2a7;" horiz-adv-x="512" 
 />
    <glyph glyph-name="uni02A8" unicode="&#x2a8;" horiz-adv-x="512" 
 />
    <glyph glyph-name="circumflex" unicode="&#x2c6;" horiz-adv-x="512" 
 />
    <glyph glyph-name="caron" unicode="&#x2c7;" horiz-adv-x="512" 
 />
    <glyph glyph-name="uni02C9" unicode="&#x2c9;" horiz-adv-x="512" 
 />
    <glyph glyph-name="breve" unicode="&#x2d8;" horiz-adv-x="512" 
 />
    <glyph glyph-name="dotaccent" unicode="&#x2d9;" horiz-adv-x="512" 
 />
    <glyph glyph-name="ring" unicode="&#x2da;" horiz-adv-x="512" 
 />
    <glyph glyph-name="ogonek" unicode="&#x2db;" horiz-adv-x="512" 
 />
    <glyph glyph-name="tilde" unicode="&#x2dc;" horiz-adv-x="512" 
 />
    <glyph glyph-name="hungarumlaut" unicode="&#x2dd;" horiz-adv-x="512" 
 />
    <glyph glyph-name="uni0374" unicode="&#x374;" horiz-adv-x="512" 
 />
    <glyph glyph-name="uni0375" unicode="&#x375;" horiz-adv-x="512" 
 />
    <glyph glyph-name="uni037A" unicode="&#x37a;" horiz-adv-x="512" 
 />
    <glyph glyph-name="uni037E" unicode="&#x37e;" horiz-adv-x="512" 
 />
    <glyph glyph-name="tonos" unicode="&#x384;" horiz-adv-x="512" 
 />
    <glyph glyph-name="dieresistonos" unicode="&#x385;" horiz-adv-x="512" 
 />
    <glyph glyph-name="Alphatonos" unicode="&#x386;" 
d="M66 408l32 208h176l-32 -208h-176zM256 36l50 579h12h196h260h189h19l-50 -579h-208l24 280h-260l-24 -280h-208zM753 376l16 179h-260l-16 -179h260z" />
    <glyph glyph-name="anoteleia" unicode="&#x387;" horiz-adv-x="512" 
 />
    <glyph glyph-name="Epsilontonos" unicode="&#x388;" 
d="M260 36l50 579h12h196h465l-5 -60h-465l-16 -179h454l-5 -60h-454l-19 -220h466l-5 -60h-466h-191h-17zM66 408l32 208h176l-32 -208h-176z" />
    <glyph glyph-name="Etatonos" unicode="&#x389;" 
d="M260 36l50 579h208l-21 -239h260l21 239h208l-50 -579h-208l24 280h-260l-24 -280h-208zM66 408l32 208h176l-32 -208h-176z" />
    <glyph glyph-name="Iotatonos" unicode="&#x38a;" horiz-adv-x="696" 
d="M305 555l5 60h80h208h77l-5 -60h-77l-40 -459h78l-5 -60h-78h-208h-79l5 60h79l40 459h-80zM66 408l32 208h176l-32 -208h-176z" />
    <glyph glyph-name="Omicrontonos" unicode="&#x38c;" 
d="M260 36l50 579h12h196h260h205h3l-50 -579h-2h-206h-260h-191h-17zM66 408l32 208h176l-32 -208h-176zM473 96h260l40 459h-260z" />
    <glyph glyph-name="Upsilontonos" unicode="&#x38e;" 
d="M491 36l25 280l-242 299h208l147 -182l177 182h208l-290 -299l-25 -280h-208zM66 408l32 208h176l-32 -208h-176z" />
    <glyph glyph-name="Omegatonos" unicode="&#x38f;" horiz-adv-x="1219" 
d="M256 20l5 60h226l9 100h-193l37 432h53h155h419h70h138l-38 -432h-14h-180l-9 -100h227l-5 -60h-227h-113h-63l19 220h32h130l28 312h-419l-27 -312h116h45l-19 -220h-62h-114h-226zM66 408l32 208h176l-32 -208h-176z" />
    <glyph glyph-name="iotadieresistonos" unicode="&#x390;" horiz-adv-x="512" 
 />
    <glyph glyph-name="Alpha" unicode="&#x391;" horiz-adv-x="800" 
d="M32 36l50 579h12h196h260h189h19l-50 -579h-208l24 280h-260l-24 -280h-208zM529 376l16 179h-260l-16 -179h260z" />
    <glyph glyph-name="Beta" unicode="&#x392;" horiz-adv-x="800" 
d="M738 376l-30 -340h-208h-260h-208l50 579h16h192h196h193h15l-21 -239h50h15zM525 316h-261l-19 -220h260zM465 376l16 179h-196l-16 -179h196z" />
    <glyph glyph-name="Gamma" unicode="&#x393;" horiz-adv-x="679" 
d="M32 36l50 579h16h192h389l-5 -60h-389l-45 -519h-208z" />
    <glyph glyph-name="uni0394" unicode="&#x394;" horiz-adv-x="800" 
d="M16 36l226 579h148h60h148l142 -579h-50h-158h-308h-147h-61zM517 96l-104 425l-166 -425h270z" />
    <glyph glyph-name="Epsilon" unicode="&#x395;" horiz-adv-x="800" 
d="M32 36l50 579h12h196h465l-5 -60h-465l-16 -179h454l-5 -60h-454l-19 -220h466l-5 -60h-466h-191h-17z" />
    <glyph glyph-name="Zeta" unicode="&#x396;" horiz-adv-x="800" 
d="M81 554l5 60h433h240l-436 -518h390l-5 -60h-436h-240l436 518h-387z" />
    <glyph glyph-name="Eta" unicode="&#x397;" horiz-adv-x="800" 
d="M32 36l50 579h208l-21 -239h260l21 239h208l-50 -579h-208l24 280h-260l-24 -280h-208z" />
    <glyph glyph-name="Theta" unicode="&#x398;" horiz-adv-x="800" 
d="M333 316l5 60h123l-5 -60h-123zM82 615h9h199h261h203h5l-50 -579h-13h-195h-261h-208zM245 96h261l40 459h-261z" />
    <glyph glyph-name="Iota" unicode="&#x399;" horiz-adv-x="517" 
d="M105 555l5 60h80h208h77l-5 -60h-77l-40 -459h78l-5 -60h-78h-208h-79l5 60h79l40 459h-80z" />
    <glyph glyph-name="Kappa" unicode="&#x39a;" horiz-adv-x="800" 
d="M32 36l50 579h208l-18 -211l488 216l-10 -100l-228 -101l186 -383h-208l-149 307l-88 -39l-23 -268h-208z" />
    <glyph glyph-name="Lambda" unicode="&#x39b;" horiz-adv-x="800" 
d="M16 36l226 579h148h60h148l142 -579h-208l-119 485l-189 -485h-208z" />
    <glyph glyph-name="Mu" unicode="&#x39c;" horiz-adv-x="888" 
d="M32 36l50 579h48h160l147 -199l185 199h160h48l-50 -579h-208l34 389l-98 -105h-160l-75 101l-33 -385h-208z" />
    <glyph glyph-name="Nu" unicode="&#x39d;" horiz-adv-x="888" 
d="M32 36l50 579h48h160l298 -391l34 391h208l-50 -579h-48h-160l-298 391l-34 -391h-208z" />
    <glyph glyph-name="Xi" unicode="&#x39e;" horiz-adv-x="800" 
d="M32 36l6 60h663l-5 -60h-664zM86 555l5 60h663l-5 -60h-663zM97 316l5 60h599l-5 -60h-599z" />
    <glyph glyph-name="Omicron" unicode="&#x39f;" horiz-adv-x="800" 
d="M32 36l50 579h12h196h260h205h3l-50 -579h-2h-206h-260h-191h-17zM245 96h260l40 459h-260z" />
    <glyph glyph-name="Pi" unicode="&#x3a0;" horiz-adv-x="800" 
d="M32 36l50 579h12h196h260h205h3l-50 -579h-208l45 519h-260l-45 -519h-208z" />
    <glyph glyph-name="Rho" unicode="&#x3a1;" horiz-adv-x="800" 
d="M32 36l50 579h16h192h260h193h15l-26 -299h-14h-194h-260l-24 -280h-208zM529 376l16 179h-260l-16 -179h260z" />
    <glyph glyph-name="Sigma" unicode="&#x3a3;" horiz-adv-x="800" 
d="M16 36l235 312l-185 267h108h100h481l-5 -60h-434l143 -207l-190 -252h442l-5 -60h-482h-95h-113z" />
    <glyph glyph-name="Tau" unicode="&#x3a4;" horiz-adv-x="800" 
d="M77 555l5 60h235h208h228l-5 -60h-228l-45 -519h-208l45 519h-235z" />
    <glyph glyph-name="Upsilon" unicode="&#x3a5;" horiz-adv-x="800" 
d="M267 36l25 280l-242 299h208l147 -182l177 182h208l-290 -299l-25 -280h-208z" />
    <glyph glyph-name="Phi" unicode="&#x3a6;" horiz-adv-x="888" 
d="M36 84l43 483h8h200h67l4 48h208l-4 -48h57h201h7l-44 -483h-6h-202h-57l-4 -48h-208l4 48h-66h-195h-13zM249 144h67l32 363h-66zM556 507l-32 -363h56l34 363h-58z" />
    <glyph glyph-name="Chi" unicode="&#x3a7;" horiz-adv-x="828" 
d="M548 36l-141 172l-171 -172h-208l286 286l-240 293h208l146 -178l178 178h208l-292 -293l234 -286h-208z" />
    <glyph glyph-name="Psi" unicode="&#x3a8;" horiz-adv-x="888" 
d="M47 196l36 419h208l-31 -359h66l32 359h208l-32 -359h56l32 359h208l-37 -419h-6h-202h-57l-14 -160h-208l14 160h-65h-195h-13z" />
    <glyph glyph-name="uni03A9" unicode="&#x3a9;" 
d="M32 20l5 60h226l9 100h-193l37 432h53h155h419h70h138l-38 -432h-14h-180l-9 -100h227l-5 -60h-227h-113h-63l19 220h32h130l28 312h-419l-27 -312h116h45l-19 -220h-62h-114h-226z" />
    <glyph glyph-name="Iotadieresis" unicode="&#x3aa;" horiz-adv-x="512" 
 />
    <glyph glyph-name="Upsilondieresis" unicode="&#x3ab;" horiz-adv-x="512" 
 />
    <glyph glyph-name="alphatonos" unicode="&#x3ac;" horiz-adv-x="800" 
d="M500 36l25 280h-260l-19 -220h223l-5 -60h-432l30 340h8h200h260h11h197l-25 -280h36l-5 -60h-36h-155h-53zM302 500l5 60l225 32l-5 -60z" />
    <glyph glyph-name="epsilontonos" unicode="&#x3ad;" horiz-adv-x="800" 
d="M302 500l5 60l225 32l-5 -60zM62 376h8h200h463l-5 -60h-463l-7 -71h460l-5 -60h-460l-8 -89h464l-5 -60h-464h-208z" />
    <glyph glyph-name="etatonos" unicode="&#x3ae;" horiz-adv-x="800" 
d="M32 36l30 340h8h200h260h203h5l-42 -480h-208l37 420h-260l-25 -280h-208zM302 500l5 60l225 32l-5 -60z" />
    <glyph glyph-name="iotatonos" unicode="&#x3af;" horiz-adv-x="343" 
d="M41 36l29 340h208l-29 -340h-208zM74 500l5 60l225 32l-5 -60z" />
    <glyph glyph-name="upsilondieresistonos" unicode="&#x3b0;" horiz-adv-x="512" 
 />
    <glyph glyph-name="alpha" unicode="&#x3b1;" horiz-adv-x="800" 
d="M500 36l25 280h-260l-19 -220h223l-5 -60h-432l30 340h8h200h260h11h197l-25 -280h36l-5 -60h-36h-155h-53z" />
    <glyph glyph-name="beta" unicode="&#x3b2;" horiz-adv-x="800" 
d="M297 316l5 60h163l16 179h-196l-56 -658h-208l61 718h16h192h196h129h79l-21 -239h65l-30 -340h-80h-128h-228l6 60h227l20 220h-228z" />
    <glyph glyph-name="gamma" unicode="&#x3b3;" horiz-adv-x="800" 
d="M256 -104l12 144l-238 335h208l145 -204l179 204h208l-294 -335l-12 -144h-208z" />
    <glyph glyph-name="delta" unicode="&#x3b4;" horiz-adv-x="800" 
d="M62 376h8h200h228l-419 179l5 60h675l-5 -60h-435l419 -179l-30 -340h-12h-196h-260h-208zM245 96h260l20 220h-260z" />
    <glyph glyph-name="epsilon" unicode="&#x3b5;" horiz-adv-x="800" 
d="M62 376h8h200h463l-5 -60h-463l-7 -71h460l-5 -60h-460l-8 -89h464l-5 -60h-464h-208z" />
    <glyph glyph-name="zeta" unicode="&#x3b6;" horiz-adv-x="630" 
d="M77 555l5 60h320h5h203l-344 -295l-21 -224h124h180h12l-18 -199h-192l13 139h-124h-144h-64l26 284l274 235h-255z" />
    <glyph glyph-name="eta" unicode="&#x3b7;" horiz-adv-x="800" 
d="M32 36l30 340h8h200h260h203h5l-42 -480h-208l37 420h-260l-25 -280h-208z" />
    <glyph glyph-name="theta" unicode="&#x3b8;" horiz-adv-x="800" 
d="M186 615h9h199h173h203h5l-47 -443l-131 -136h-13h-195h-149h-208l6 60l40 376zM276 376h266l19 179h-212l-63 -83zM246 96h201l73 76l15 144h-265z" />
    <glyph glyph-name="iota" unicode="&#x3b9;" horiz-adv-x="343" 
d="M41 36l29 340h208l-29 -340h-208z" />
    <glyph glyph-name="kappa" unicode="&#x3ba;" horiz-adv-x="800" 
d="M32 36l29 340h208l-11 -123l480 139l-6 -76l-196 -57l172 -223h-208l-134 174l-114 -33l-12 -141h-208z" />
    <glyph glyph-name="lambda" unicode="&#x3bb;" horiz-adv-x="800" 
d="M36 36l300 359h1l-127 220h208l334 -579h-208l-123 212l-177 -212h-208z" />
    <glyph glyph-name="uni03BC" unicode="&#x3bc;" horiz-adv-x="800" 
d="M20 -103l42 479h208l-25 -280h260l25 280h208l-25 -280h36l-5 -60h-36h-208h-260l-12 -139h-208z" />
    <glyph glyph-name="nu" unicode="&#x3bd;" horiz-adv-x="767" 
d="M38 376h208l142 -203l166 203h208l-278 -340h-208z" />
    <glyph glyph-name="xi" unicode="&#x3be;" horiz-adv-x="630" 
d="M33 36l15 172l258 195h-29h-93h-115l241 152h-230l5 60h320h5h203l-241 -152h13h101h107l-337 -255l-10 -112h123h180h12l-17 -199h-192l12 139h-123h-144h-64z" />
    <glyph glyph-name="omicron" unicode="&#x3bf;" horiz-adv-x="800" 
d="M62 376h8h200h260h203h5l-30 -340h-12h-196h-260h-208zM245 96h260l20 220h-260z" />
    <glyph glyph-name="pi" unicode="&#x3c0;" horiz-adv-x="800" 
d="M48 36l25 280h-40l5 60h40h208h228h208h43l-5 -60h-43l-25 -280h-208l25 280h-228l-25 -280h-208z" />
    <glyph glyph-name="rho" unicode="&#x3c1;" horiz-adv-x="800" 
d="M20 -103l42 479h8h200h260h203h5l-30 -340h-12h-196h-260l-12 -139h-208zM525 316h-260l-20 -220h260z" />
    <glyph glyph-name="sigma1" unicode="&#x3c2;" horiz-adv-x="800" 
d="M32 36l30 340h208l-30 -340h-208zM65 316l5 60h663l-5 -60h-663zM488 -103l17 199h208l-17 -199h-208zM244 -103l6 60h439l-5 -60h-440zM32 36l6 60h663l-5 -60h-664z" />
    <glyph glyph-name="sigma" unicode="&#x3c3;" horiz-adv-x="880" 
d="M62 376h8h200h260h208h115l-5 -60h-115l-25 -280h-12h-196h-260h-208zM245 96h260l20 220h-260z" />
    <glyph glyph-name="tau" unicode="&#x3c4;" horiz-adv-x="800" 
d="M65 316l5 60h228h208h227l-5 -60h-227l-25 -280h-208l25 280h-228z" />
    <glyph glyph-name="upsilon" unicode="&#x3c5;" horiz-adv-x="800" 
d="M62 376h208l-25 -280h260l25 280h208l-30 -340h-12h-196h-260h-208z" />
    <glyph glyph-name="phi" unicode="&#x3c6;" horiz-adv-x="880" 
d="M296 -104l19 140h-75h-208l30 340h8h200h93l23 168h208l-23 -168h71h203h5l-30 -340h-12h-196h-89l-19 -140h-208zM245 96h79l30 220h-89zM562 316l-30 -220h85l20 220h-75z" />
    <glyph glyph-name="chi" unicode="&#x3c7;" horiz-adv-x="800" 
d="M60 335l6 60h226h197h27l-7 -81l103 81h176l-292 -229l-19 -209h212l-5 -60h-212h-206h-18l7 81l-103 -81h-176l292 229l19 209h-227z" />
    <glyph glyph-name="psi" unicode="&#x3c8;" horiz-adv-x="880" 
d="M35 36l31 359h208l-26 -299h66l27 299h208l-27 -299h56l27 299h208l-32 -359h-6h-202h-56l-13 -139h-208l13 139h-66h-195h-13z" />
    <glyph glyph-name="omega" unicode="&#x3c9;" horiz-adv-x="880" 
d="M32 36l19 212l43 128h196l-43 -128l-14 -152h86l20 224h196l-20 -224h86l14 152l-21 128h196l21 -128l-19 -212h-32h-164h-86h-196h-86h-147h-49z" />
    <glyph glyph-name="iotadieresis" unicode="&#x3ca;" horiz-adv-x="512" 
 />
    <glyph glyph-name="upsilondieresis" unicode="&#x3cb;" horiz-adv-x="512" 
 />
    <glyph glyph-name="omicrontonos" unicode="&#x3cc;" horiz-adv-x="800" 
d="M302 500l5 60l225 32l-5 -60zM62 376h8h200h260h203h5l-30 -340h-12h-196h-260h-208zM245 96h260l20 220h-260z" />
    <glyph glyph-name="upsilontonos" unicode="&#x3cd;" horiz-adv-x="800" 
d="M302 500l5 60l225 32l-5 -60zM62 376h208l-25 -280h260l25 280h208l-30 -340h-12h-196h-260h-208z" />
    <glyph glyph-name="omegatonos" unicode="&#x3ce;" horiz-adv-x="880" 
d="M32 36l19 212l43 128h196l-43 -128l-14 -152h86l20 224h196l-20 -224h86l14 152l-21 128h196l21 -128l-19 -212h-760zM302 500l5 60l225 32l-5 -60z" />
    <glyph glyph-name="uni0401" unicode="&#x401;" horiz-adv-x="800" 
d="M253 652l7 74h108l-7 -74h-108zM501 652l7 74h108l-7 -74h-108zM32 36l50 579h12h196h465l-5 -60h-465l-16 -179h454l-5 -60h-454l-19 -220h466l-5 -60h-466h-191h-17z" />
    <glyph glyph-name="uni0402" unicode="&#x402;" horiz-adv-x="512" 
 />
    <glyph glyph-name="uni0403" unicode="&#x403;" horiz-adv-x="512" 
 />
    <glyph glyph-name="uni0404" unicode="&#x404;" horiz-adv-x="512" 
 />
    <glyph glyph-name="uni0405" unicode="&#x405;" horiz-adv-x="512" 
 />
    <glyph glyph-name="uni0406" unicode="&#x406;" horiz-adv-x="512" 
 />
    <glyph glyph-name="uni0407" unicode="&#x407;" horiz-adv-x="512" 
 />
    <glyph glyph-name="uni0408" unicode="&#x408;" horiz-adv-x="512" 
 />
    <glyph glyph-name="uni0409" unicode="&#x409;" horiz-adv-x="512" 
 />
    <glyph glyph-name="uni040A" unicode="&#x40a;" horiz-adv-x="512" 
 />
    <glyph glyph-name="uni040B" unicode="&#x40b;" horiz-adv-x="512" 
 />
    <glyph glyph-name="uni040C" unicode="&#x40c;" horiz-adv-x="512" 
 />
    <glyph glyph-name="uni040E" unicode="&#x40e;" horiz-adv-x="512" 
 />
    <glyph glyph-name="uni040F" unicode="&#x40f;" horiz-adv-x="512" 
 />
    <glyph glyph-name="uni0410" unicode="&#x410;" horiz-adv-x="800" 
d="M32 36l50 579h12h196h260h189h19l-50 -579h-208l24 280h-260l-24 -280h-208zM529 376l16 179h-260l-16 -179h260z" />
    <glyph glyph-name="uni0411" unicode="&#x411;" horiz-adv-x="800" 
d="M29 555l5 60h48h208h245l-5 -60h-245l-16 -179h261h193h15l-30 -340h-208h-260h-208l45 519h-48zM525 316h-261l-19 -220h260z" />
    <glyph glyph-name="uni0412" unicode="&#x412;" horiz-adv-x="800" 
d="M738 376l-30 -340h-208h-260h-208l50 579h16h192h196h193h15l-21 -239h50h15zM525 316h-261l-19 -220h260zM465 376l16 179h-196l-16 -179h196z" />
    <glyph glyph-name="uni0413" unicode="&#x413;" horiz-adv-x="679" 
d="M32 36l50 579h16h192h389l-5 -60h-389l-45 -519h-208z" />
    <glyph glyph-name="uni0414" unicode="&#x414;" horiz-adv-x="807" 
d="M-1 -39l11 135h40h10l102 519h12h196h196h205h3l-45 -519h26h27l-11 -135h-192l6 75h-69h-260h-59l-6 -75h-192zM268 96h253l40 459h-203z" />
    <glyph glyph-name="uni0415" unicode="&#x415;" horiz-adv-x="800" 
d="M32 36l50 579h12h196h465l-5 -60h-465l-16 -179h454l-5 -60h-454l-19 -220h466l-5 -60h-466h-191h-17z" />
    <glyph glyph-name="uni0416" unicode="&#x416;" horiz-adv-x="900" 
d="M58 320l25 295h200l-20 -235h106l21 235h208l-21 -235h96l21 235h200l-26 -295h-6h-55l45 -284h-200l-45 284h-35l-26 -284h-208l26 284h-34l-98 -284h-200l98 284h-72z" />
    <glyph glyph-name="uni0417" unicode="&#x417;" horiz-adv-x="800" 
d="M32 36l5 60h468l20 220h-460l5 60h460l16 179h-469l5 60h469h203h5l-51 -579h-13h-195h-468z" />
    <glyph glyph-name="uni0418" unicode="&#x418;" horiz-adv-x="880" 
d="M32 36l50 579h208l-34 -391l366 391h160h48l-50 -579h-208l34 391l-366 -391h-160h-48z" />
    <glyph glyph-name="uni0419" unicode="&#x419;" horiz-adv-x="880" 
d="M32 36l50 579h208l-34 -391l366 391h160h48l-50 -579h-208l34 391l-366 -391h-160h-48zM305 684l7 74l179 -32l177 32l-7 -74l-176 -32z" />
    <glyph glyph-name="uni041A" unicode="&#x41a;" horiz-adv-x="800" 
d="M32 36l50 579h208l-21 -239h31l256 240h208l-290 -272l234 -308h-208l-213 280h-23l-24 -280h-208z" />
    <glyph glyph-name="uni041B" unicode="&#x41b;" horiz-adv-x="800" 
d="M0 36l114 579h12h196h228h205h3l-50 -579h-208l45 519h-235l-102 -519h-208z" />
    <glyph glyph-name="uni041C" unicode="&#x41c;" horiz-adv-x="880" 
d="M32 36l50 579h48h160l147 -199l185 199h160h48l-50 -579h-208l34 389l-98 -105h-160l-75 101l-33 -385h-208z" />
    <glyph glyph-name="uni041D" unicode="&#x41d;" horiz-adv-x="800" 
d="M32 36l50 579h208l-21 -239h260l21 239h208l-50 -579h-208l24 280h-260l-24 -280h-208z" />
    <glyph glyph-name="uni041E" unicode="&#x41e;" horiz-adv-x="800" 
d="M32 36l50 579h12h196h260h205h3l-50 -579h-2h-206h-260h-191h-17zM245 96h260l40 459h-260z" />
    <glyph glyph-name="uni041F" unicode="&#x41f;" horiz-adv-x="800" 
d="M32 36l50 579h12h196h260h205h3l-50 -579h-208l45 519h-260l-45 -519h-208z" />
    <glyph glyph-name="uni0420" unicode="&#x420;" horiz-adv-x="800" 
d="M32 36l50 579h16h192h260h193h15l-26 -299h-14h-194h-260l-24 -280h-208zM529 376l16 179h-260l-16 -179h260z" />
    <glyph glyph-name="uni0421" unicode="&#x421;" horiz-adv-x="800" 
d="M32 36l50 579h12h196h465l-5 -60h-465l-40 -459h466l-5 -60h-466h-191h-17z" />
    <glyph glyph-name="uni0422" unicode="&#x422;" horiz-adv-x="800" 
d="M77 555l5 60h235h208h228l-5 -60h-228l-45 -519h-208l45 519h-235z" />
    <glyph glyph-name="uni0423" unicode="&#x423;" horiz-adv-x="800" 
d="M32 36l6 60h466l8 88h-256v-1h-208v1v1l37 430h208l-32 -371h257l33 371h208l-52 -579h-12h-196h-467z" />
    <glyph glyph-name="uni0424" unicode="&#x424;" horiz-adv-x="880" 
d="M36 84l43 483h8h200h67l4 48h208l-4 -48h57h201h7l-44 -483h-6h-202h-57l-4 -48h-208l4 48h-66h-195h-13zM249 144h67l32 363h-66zM556 507l-32 -363h56l34 363h-58z" />
    <glyph glyph-name="uni0425" unicode="&#x425;" horiz-adv-x="828" 
d="M548 36l-141 172l-171 -172h-208l286 286l-240 293h208l146 -178l178 178h208l-292 -293l234 -286h-208z" />
    <glyph glyph-name="uni0426" unicode="&#x426;" horiz-adv-x="800" 
d="M32 36l50 579h208l-45 -519h260l45 519h208l-45 -519h69l-12 -138h-196l7 78h-81h-260h-123h-85z" />
    <glyph glyph-name="uni0427" unicode="&#x427;" horiz-adv-x="800" 
d="M501 36l21 248h-258h-208l30 331h208l-25 -271h259l23 271h208l-50 -579h-208z" />
    <glyph glyph-name="uni0428" unicode="&#x428;" horiz-adv-x="884" 
d="M32 36l51 577h196l-46 -517h86l46 517h196l-46 -517h86l46 517h196l-51 -577h-32h-164h-86h-196h-86h-147h-49z" />
    <glyph glyph-name="uni0429" unicode="&#x429;" horiz-adv-x="940" 
d="M32 36l50 579h208l-45 -519h84l45 519h208l-45 -519h76l45 519h208l-45 -519h69l-12 -138h-196l7 78h-81h-76h-208h-84h-123h-85z" />
    <glyph glyph-name="uni042A" unicode="&#x42a;" horiz-adv-x="848" 
d="M29 555l5 60h128h165h43l-21 -239h261h193h15l-30 -340h-208h-260h-208l45 519h-128zM605 316h-261l-19 -220h260z" />
    <glyph glyph-name="uni042B" unicode="&#x42b;" 
d="M721 36l51 580h208l-51 -580h-208zM706 376l-30 -340h-208h-228h-208l50 579h208l-21 -239h229h193h15zM493 316h-229l-19 -220h228z" />
    <glyph glyph-name="uni042C" unicode="&#x42c;" horiz-adv-x="800" 
d="M738 376l-30 -340h-208h-260h-208l50 579h208l-21 -239h261h193h15zM525 316h-261l-19 -220h260z" />
    <glyph glyph-name="uni042D" unicode="&#x42d;" horiz-adv-x="800" 
d="M79 555l5 60h428h172h36l30 -200l-16 -179l-66 -200h-162h-46h-427l5 60h442l46 140l7 83h-474l5 60h475l3 36l-21 140h-442z" />
    <glyph glyph-name="uni042E" unicode="&#x42e;" horiz-adv-x="1129" 
d="M376 36l24 280h-132l-24 -280h-208l50 579h208l-21 -239h132l21 239h8h200h260h201h7l-50 -579h-6h-202h-260h-195h-13zM589 96h260l40 459h-260z" />
    <glyph glyph-name="uni042F" unicode="&#x42f;" horiz-adv-x="800" 
d="M500 36l24 280h-144l-136 -280h-208l136 280h-99h-13l26 299h12h196h256h193h15l-50 -579h-208zM529 376l16 179h-256l-16 -179h256z" />
    <glyph glyph-name="uni0430" unicode="&#x430;" horiz-adv-x="800" 
d="M65 316l5 60h461h202h6l-30 -340h-13h-195h-261h-208l18 209h5h203h261l7 71h-461zM245 96h261l8 89h-261z" />
    <glyph glyph-name="uni0431" unicode="&#x431;" horiz-adv-x="800" 
d="M738 376l-30 -340h-208h-260h-208l47 533l562 62l-5 -60l-352 -39l-14 -156h260h193h15zM525 316h-260l-20 -220h260z" />
    <glyph glyph-name="uni0432" unicode="&#x432;" horiz-adv-x="800" 
d="M669 376l-11 -131h69l-18 -209h-81h-127h-261h-208l30 340h8h200h191h204h4zM445 185h-192l-8 -89h261l8 89h-69zM456 316h-191l-7 -71h192z" />
    <glyph glyph-name="uni0433" unicode="&#x433;" horiz-adv-x="800" 
d="M32 36l30 340h8h200h463l-5 -60h-463l-25 -280h-208z" />
    <glyph glyph-name="uni0434" unicode="&#x434;" horiz-adv-x="807" 
d="M-1 -39l11 135h40h14l80 299h12h196h196h205h3l-27 -299h26h27l-11 -135h-192l6 75h-69h-260h-59l-6 -75h-192zM272 96h249l22 239h-207z" />
    <glyph glyph-name="uni0435" unicode="&#x435;" horiz-adv-x="800" 
d="M737 376l-16 -191h-8h-200h-260l-8 -89h456l-5 -60h-456h-208l30 340h8h200h259h204h4zM524 316h-259l-7 -71h260z" />
    <glyph glyph-name="uni0436" unicode="&#x436;" horiz-adv-x="900" 
d="M47 192l15 183h200l-10 -123h106l11 123h208l-11 -123h96l11 123h200l-16 -183h-6h-56l57 -156h-200l-57 156h-34l-14 -156h-208l14 156h-32l-89 -156h-200l89 156h-61h-13z" />
    <glyph glyph-name="uni0437" unicode="&#x437;" horiz-adv-x="800" 
d="M32 36l6 60h468l8 89h-464l5 60h464l7 71h-465l5 60h465h202h6l-30 -340h-13h-195h-469z" />
    <glyph glyph-name="uni0438" unicode="&#x438;" horiz-adv-x="800" 
d="M32 36l30 340h208l-17 -196l277 196h192h16l-30 -340h-208l17 196l-277 -196h-192h-16z" />
    <glyph glyph-name="uni0439" unicode="&#x439;" horiz-adv-x="800" 
d="M32 36l30 340h208l-17 -196l277 196h192h16l-30 -340h-208l17 196l-277 -196h-192h-16zM230 500l7 74l179 -32l177 32l-7 -74l-176 -32z" />
    <glyph glyph-name="uni043A" unicode="&#x43a;" horiz-adv-x="800" 
d="M32 36l29 340h208l-11 -131h103l169 131h208l-206 -160l176 -180h-208l-146 149h-101l-13 -149h-208z" />
    <glyph glyph-name="uni043B" unicode="&#x43b;" horiz-adv-x="800" 
d="M32 36l94 340h24h184h196h187h21l-30 -340h-208l25 280h-208l-77 -280h-208z" />
    <glyph glyph-name="uni043C" unicode="&#x43c;" horiz-adv-x="880" 
d="M33 36l29 339h48h160l148 -186l184 186h160h48l-30 -339h-208l14 162l-97 -98h-160l-75 94l-13 -158h-208z" />
    <glyph glyph-name="uni043D" unicode="&#x43d;" horiz-adv-x="800" 
d="M501 36l13 149h-261l-13 -149h-208l30 340h208l-12 -131h261l12 131h208l-30 -340h-208z" />
    <glyph glyph-name="uni043E" unicode="&#x43e;" horiz-adv-x="800" 
d="M62 376h8h200h260h203h5l-30 -340h-12h-196h-260h-208zM245 96h260l20 220h-260z" />
    <glyph glyph-name="uni043F" unicode="&#x43f;" horiz-adv-x="800" 
d="M32 36l30 340h8h200h260h203h5l-30 -340h-208l25 280h-260l-25 -280h-208z" />
    <glyph glyph-name="uni0440" unicode="&#x440;" horiz-adv-x="800" 
d="M32 36l2 15l28 325h8h200h260h203h5l-30 -340h-12h-196h-260l-12 -139h-208zM525 316h-260l-20 -220h260z" />
    <glyph glyph-name="uni0441" unicode="&#x441;" horiz-adv-x="800" 
d="M62 376h8h200h463l-5 -60h-463l-20 -220h464l-5 -60h-464h-208z" />
    <glyph glyph-name="uni0442" unicode="&#x442;" horiz-adv-x="800" 
d="M65 316l5 60h228h208h227l-5 -60h-227l-25 -280h-208l25 280h-228z" />
    <glyph glyph-name="uni0443" unicode="&#x443;" horiz-adv-x="800" 
d="M132 -103l6 60h355l7 79h-260h-208l30 340h208l-25 -280h260l25 280h208l-42 -479h-12h-196h-356z" />
    <glyph glyph-name="uni0444" unicode="&#x444;" horiz-adv-x="880" 
d="M294 -103l12 139h-66h-208l30 340h8h200h67l13 144h208l-13 -144h65h203h5l-30 -340h-12h-196h-66l-12 -139h-208zM245 96h67l20 220h-67zM540 316l-20 -220h65l20 220h-65z" />
    <glyph glyph-name="uni0445" unicode="&#x445;" horiz-adv-x="783" 
d="M520 36l-143 101l-161 -101h-208l272 169l-242 171h208l144 -102l164 102h208l-274 -171l240 -169h-208z" />
    <glyph glyph-name="uni0446" unicode="&#x446;" horiz-adv-x="800" 
d="M32 36l29 339h208l-24 -279h260l24 279h208l-24 -279h69l-12 -138h-196l7 78h-81h-260h-123h-85z" />
    <glyph glyph-name="uni0447" unicode="&#x447;" horiz-adv-x="800" 
d="M501 36l13 149h-260h-204h-4l16 190h208l-11 -130h260l12 131h208l-30 -340h-208z" />
    <glyph glyph-name="uni0448" unicode="&#x448;" horiz-adv-x="884" 
d="M32 36l30 340h196l-25 -280h86l25 280h196l-25 -280h86l25 280h196l-30 -340h-32h-164h-86h-196h-86h-147h-49z" />
    <glyph glyph-name="uni0449" unicode="&#x449;" horiz-adv-x="940" 
d="M32 36l30 340h204l-25 -280h90l25 280h204l-25 -280h82l25 280h204l-25 -280h69l-12 -138h-196l7 78h-77h-82h-204h-90h-155h-49z" />
    <glyph glyph-name="uni044A" unicode="&#x44a;" horiz-adv-x="848" 
d="M17 316l5 60h120h187h21l-12 -131h261h131h77l-18 -209h-81h-127h-261h-208l25 280h-120zM325 96h261l8 89h-261z" />
    <glyph glyph-name="uni044B" unicode="&#x44b;" 
d="M720 36l30 340h208l-30 -340h-208zM62 376h208l-12 -131h229h131h77l-18 -209h-81h-127h-229h-208zM245 96h229l8 89h-229z" />
    <glyph glyph-name="uni044C" unicode="&#x44c;" horiz-adv-x="800" 
d="M62 376h208l-12 -131h261h131h77l-18 -209h-81h-127h-261h-208zM245 96h261l8 89h-261z" />
    <glyph glyph-name="uni044D" unicode="&#x44d;" horiz-adv-x="800" 
d="M32 36l6 60h437l34 24l6 65h-353l5 60h353l4 47l-30 24h-433l5 60h353h202h6l105 -84l-15 -172l-120 -84h-13h-195h-357z" />
    <glyph glyph-name="uni044E" unicode="&#x44e;" horiz-adv-x="1060" 
d="M36 36l30 340h208l-12 -131h124l12 131h8h200h180h203h5l-30 -340h-12h-196h-180h-208l13 149h-124l-13 -149h-208zM581 96h180l20 220h-180z" />
    <glyph glyph-name="uni044F" unicode="&#x44f;" horiz-adv-x="800" 
d="M45 185l16 191h9h199h261h203h5l-30 -340h-208l13 149h-156l-113 -149h-208l113 149h-99h-5zM258 245h260l7 71h-261z" />
    <glyph glyph-name="uni0451" unicode="&#x451;" horiz-adv-x="800" 
d="M233 496l7 74h108l-7 -74h-108zM481 496l7 74h108l-7 -74h-108zM737 376l-16 -191h-8h-200h-260l-8 -89h456l-5 -60h-456h-208l30 340h8h200h259h204h4zM524 316h-259l-7 -71h260z" />
    <glyph glyph-name="uni0452" unicode="&#x452;" horiz-adv-x="512" 
 />
    <glyph glyph-name="uni0453" unicode="&#x453;" horiz-adv-x="512" 
 />
    <glyph glyph-name="uni0454" unicode="&#x454;" horiz-adv-x="512" 
 />
    <glyph glyph-name="uni0455" unicode="&#x455;" horiz-adv-x="512" 
 />
    <glyph glyph-name="uni0456" unicode="&#x456;" horiz-adv-x="512" 
 />
    <glyph glyph-name="uni0457" unicode="&#x457;" horiz-adv-x="512" 
 />
    <glyph glyph-name="uni0458" unicode="&#x458;" horiz-adv-x="512" 
 />
    <glyph glyph-name="uni0459" unicode="&#x459;" horiz-adv-x="512" 
 />
    <glyph glyph-name="uni045A" unicode="&#x45a;" horiz-adv-x="512" 
 />
    <glyph glyph-name="uni045B" unicode="&#x45b;" horiz-adv-x="512" 
 />
    <glyph glyph-name="uni045C" unicode="&#x45c;" horiz-adv-x="512" 
 />
    <glyph glyph-name="uni045E" unicode="&#x45e;" horiz-adv-x="512" 
 />
    <glyph glyph-name="uni045F" unicode="&#x45f;" horiz-adv-x="512" 
 />
    <glyph glyph-name="uni0460" unicode="&#x460;" horiz-adv-x="512" 
 />
    <glyph glyph-name="uni0461" unicode="&#x461;" horiz-adv-x="512" 
 />
    <glyph glyph-name="uni0462" unicode="&#x462;" horiz-adv-x="512" 
 />
    <glyph glyph-name="uni0463" unicode="&#x463;" horiz-adv-x="512" 
 />
    <glyph glyph-name="uni0464" unicode="&#x464;" horiz-adv-x="512" 
 />
    <glyph glyph-name="uni0465" unicode="&#x465;" horiz-adv-x="512" 
 />
    <glyph glyph-name="uni0466" unicode="&#x466;" horiz-adv-x="512" 
 />
    <glyph glyph-name="uni0467" unicode="&#x467;" horiz-adv-x="512" 
 />
    <glyph glyph-name="uni0468" unicode="&#x468;" horiz-adv-x="512" 
 />
    <glyph glyph-name="uni0469" unicode="&#x469;" horiz-adv-x="512" 
 />
    <glyph glyph-name="uni046A" unicode="&#x46a;" horiz-adv-x="512" 
 />
    <glyph glyph-name="uni046B" unicode="&#x46b;" horiz-adv-x="512" 
 />
    <glyph glyph-name="uni046C" unicode="&#x46c;" horiz-adv-x="512" 
 />
    <glyph glyph-name="uni046D" unicode="&#x46d;" horiz-adv-x="512" 
 />
    <glyph glyph-name="uni046E" unicode="&#x46e;" horiz-adv-x="512" 
 />
    <glyph glyph-name="uni046F" unicode="&#x46f;" horiz-adv-x="512" 
 />
    <glyph glyph-name="uni0470" unicode="&#x470;" horiz-adv-x="512" 
 />
    <glyph glyph-name="uni0471" unicode="&#x471;" horiz-adv-x="512" 
 />
    <glyph glyph-name="uni0472" unicode="&#x472;" horiz-adv-x="512" 
 />
    <glyph glyph-name="uni0473" unicode="&#x473;" horiz-adv-x="512" 
 />
    <glyph glyph-name="uni0474" unicode="&#x474;" horiz-adv-x="512" 
 />
    <glyph glyph-name="uni0475" unicode="&#x475;" horiz-adv-x="512" 
 />
    <glyph glyph-name="uni0476" unicode="&#x476;" horiz-adv-x="512" 
 />
    <glyph glyph-name="uni0477" unicode="&#x477;" horiz-adv-x="512" 
 />
    <glyph glyph-name="uni0478" unicode="&#x478;" horiz-adv-x="512" 
 />
    <glyph glyph-name="uni0479" unicode="&#x479;" horiz-adv-x="512" 
 />
    <glyph glyph-name="uni047A" unicode="&#x47a;" horiz-adv-x="512" 
 />
    <glyph glyph-name="uni047B" unicode="&#x47b;" horiz-adv-x="512" 
 />
    <glyph glyph-name="uni047C" unicode="&#x47c;" horiz-adv-x="512" 
 />
    <glyph glyph-name="uni047D" unicode="&#x47d;" horiz-adv-x="512" 
 />
    <glyph glyph-name="uni047E" unicode="&#x47e;" horiz-adv-x="512" 
 />
    <glyph glyph-name="uni047F" unicode="&#x47f;" horiz-adv-x="512" 
 />
    <glyph glyph-name="uni0480" unicode="&#x480;" horiz-adv-x="512" 
 />
    <glyph glyph-name="uni0481" unicode="&#x481;" horiz-adv-x="512" 
 />
    <glyph glyph-name="uni0482" unicode="&#x482;" horiz-adv-x="512" 
 />
    <glyph glyph-name="uni0483" unicode="&#x483;" horiz-adv-x="512" 
 />
    <glyph glyph-name="uni0484" unicode="&#x484;" horiz-adv-x="512" 
 />
    <glyph glyph-name="uni0485" unicode="&#x485;" horiz-adv-x="512" 
 />
    <glyph glyph-name="uni0486" unicode="&#x486;" horiz-adv-x="512" 
 />
    <glyph glyph-name="uni0490" unicode="&#x490;" horiz-adv-x="512" 
 />
    <glyph glyph-name="uni0491" unicode="&#x491;" horiz-adv-x="512" 
 />
    <glyph glyph-name="uni0492" unicode="&#x492;" horiz-adv-x="512" 
 />
    <glyph glyph-name="uni0493" unicode="&#x493;" horiz-adv-x="512" 
 />
    <glyph glyph-name="uni0494" unicode="&#x494;" horiz-adv-x="512" 
 />
    <glyph glyph-name="uni0495" unicode="&#x495;" horiz-adv-x="512" 
 />
    <glyph glyph-name="uni0496" unicode="&#x496;" horiz-adv-x="512" 
 />
    <glyph glyph-name="uni0497" unicode="&#x497;" horiz-adv-x="512" 
 />
    <glyph glyph-name="uni0498" unicode="&#x498;" horiz-adv-x="512" 
 />
    <glyph glyph-name="uni0499" unicode="&#x499;" horiz-adv-x="512" 
 />
    <glyph glyph-name="uni049A" unicode="&#x49a;" horiz-adv-x="512" 
 />
    <glyph glyph-name="uni049B" unicode="&#x49b;" horiz-adv-x="512" 
 />
    <glyph glyph-name="uni049C" unicode="&#x49c;" horiz-adv-x="512" 
 />
    <glyph glyph-name="uni049D" unicode="&#x49d;" horiz-adv-x="512" 
 />
    <glyph glyph-name="uni049E" unicode="&#x49e;" horiz-adv-x="512" 
 />
    <glyph glyph-name="uni049F" unicode="&#x49f;" horiz-adv-x="512" 
 />
    <glyph glyph-name="uni04A0" unicode="&#x4a0;" horiz-adv-x="512" 
 />
    <glyph glyph-name="uni04A1" unicode="&#x4a1;" horiz-adv-x="512" 
 />
    <glyph glyph-name="uni04A2" unicode="&#x4a2;" horiz-adv-x="512" 
 />
    <glyph glyph-name="uni04A3" unicode="&#x4a3;" horiz-adv-x="512" 
 />
    <glyph glyph-name="uni04A4" unicode="&#x4a4;" horiz-adv-x="512" 
 />
    <glyph glyph-name="uni04A5" unicode="&#x4a5;" horiz-adv-x="512" 
 />
    <glyph glyph-name="uni04A6" unicode="&#x4a6;" horiz-adv-x="512" 
 />
    <glyph glyph-name="uni04A7" unicode="&#x4a7;" horiz-adv-x="512" 
 />
    <glyph glyph-name="uni04A8" unicode="&#x4a8;" horiz-adv-x="512" 
 />
    <glyph glyph-name="uni04A9" unicode="&#x4a9;" horiz-adv-x="512" 
 />
    <glyph glyph-name="uni04AA" unicode="&#x4aa;" horiz-adv-x="512" 
 />
    <glyph glyph-name="uni04AB" unicode="&#x4ab;" horiz-adv-x="512" 
 />
    <glyph glyph-name="uni04AC" unicode="&#x4ac;" horiz-adv-x="512" 
 />
    <glyph glyph-name="uni04AD" unicode="&#x4ad;" horiz-adv-x="512" 
 />
    <glyph glyph-name="uni04AE" unicode="&#x4ae;" horiz-adv-x="512" 
 />
    <glyph glyph-name="uni04AF" unicode="&#x4af;" horiz-adv-x="512" 
 />
    <glyph glyph-name="uni04B0" unicode="&#x4b0;" horiz-adv-x="512" 
 />
    <glyph glyph-name="uni04B1" unicode="&#x4b1;" horiz-adv-x="512" 
 />
    <glyph glyph-name="uni04B2" unicode="&#x4b2;" horiz-adv-x="512" 
 />
    <glyph glyph-name="uni04B3" unicode="&#x4b3;" horiz-adv-x="512" 
 />
    <glyph glyph-name="uni04B4" unicode="&#x4b4;" horiz-adv-x="512" 
 />
    <glyph glyph-name="uni04B5" unicode="&#x4b5;" horiz-adv-x="512" 
 />
    <glyph glyph-name="uni04B6" unicode="&#x4b6;" horiz-adv-x="512" 
 />
    <glyph glyph-name="uni04B7" unicode="&#x4b7;" horiz-adv-x="512" 
 />
    <glyph glyph-name="uni04B8" unicode="&#x4b8;" horiz-adv-x="512" 
 />
    <glyph glyph-name="uni04B9" unicode="&#x4b9;" horiz-adv-x="512" 
 />
    <glyph glyph-name="uni04BA" unicode="&#x4ba;" horiz-adv-x="512" 
 />
    <glyph glyph-name="uni04BB" unicode="&#x4bb;" horiz-adv-x="512" 
 />
    <glyph glyph-name="uni04BC" unicode="&#x4bc;" horiz-adv-x="512" 
 />
    <glyph glyph-name="uni04BD" unicode="&#x4bd;" horiz-adv-x="512" 
 />
    <glyph glyph-name="uni04BE" unicode="&#x4be;" horiz-adv-x="512" 
 />
    <glyph glyph-name="uni04BF" unicode="&#x4bf;" horiz-adv-x="512" 
 />
    <glyph glyph-name="uni04C0" unicode="&#x4c0;" horiz-adv-x="512" 
 />
    <glyph glyph-name="uni04C1" unicode="&#x4c1;" horiz-adv-x="512" 
 />
    <glyph glyph-name="uni04C2" unicode="&#x4c2;" horiz-adv-x="512" 
 />
    <glyph glyph-name="uni04C3" unicode="&#x4c3;" horiz-adv-x="512" 
 />
    <glyph glyph-name="uni04C4" unicode="&#x4c4;" horiz-adv-x="512" 
 />
    <glyph glyph-name="uni04C7" unicode="&#x4c7;" horiz-adv-x="512" 
 />
    <glyph glyph-name="uni04C8" unicode="&#x4c8;" horiz-adv-x="512" 
 />
    <glyph glyph-name="uni04CB" unicode="&#x4cb;" horiz-adv-x="512" 
 />
    <glyph glyph-name="uni04CC" unicode="&#x4cc;" horiz-adv-x="512" 
 />
    <glyph glyph-name="uni04D0" unicode="&#x4d0;" horiz-adv-x="512" 
 />
    <glyph glyph-name="uni04D1" unicode="&#x4d1;" horiz-adv-x="512" 
 />
    <glyph glyph-name="uni04D2" unicode="&#x4d2;" horiz-adv-x="512" 
 />
    <glyph glyph-name="uni04D3" unicode="&#x4d3;" horiz-adv-x="512" 
 />
    <glyph glyph-name="uni04D4" unicode="&#x4d4;" horiz-adv-x="512" 
 />
    <glyph glyph-name="uni04D5" unicode="&#x4d5;" horiz-adv-x="512" 
 />
    <glyph glyph-name="uni04D6" unicode="&#x4d6;" horiz-adv-x="512" 
 />
    <glyph glyph-name="uni04D7" unicode="&#x4d7;" horiz-adv-x="512" 
 />
    <glyph glyph-name="uni04D8" unicode="&#x4d8;" horiz-adv-x="512" 
 />
    <glyph glyph-name="uni04D9" unicode="&#x4d9;" horiz-adv-x="512" 
 />
    <glyph glyph-name="uni04DA" unicode="&#x4da;" horiz-adv-x="512" 
 />
    <glyph glyph-name="uni04DB" unicode="&#x4db;" horiz-adv-x="512" 
 />
    <glyph glyph-name="uni04DC" unicode="&#x4dc;" horiz-adv-x="512" 
 />
    <glyph glyph-name="uni04DD" unicode="&#x4dd;" horiz-adv-x="512" 
 />
    <glyph glyph-name="uni04DE" unicode="&#x4de;" horiz-adv-x="512" 
 />
    <glyph glyph-name="uni04DF" unicode="&#x4df;" horiz-adv-x="512" 
 />
    <glyph glyph-name="uni04E0" unicode="&#x4e0;" horiz-adv-x="512" 
 />
    <glyph glyph-name="uni04E1" unicode="&#x4e1;" horiz-adv-x="512" 
 />
    <glyph glyph-name="uni04E2" unicode="&#x4e2;" horiz-adv-x="512" 
 />
    <glyph glyph-name="uni04E3" unicode="&#x4e3;" horiz-adv-x="512" 
 />
    <glyph glyph-name="uni04E4" unicode="&#x4e4;" horiz-adv-x="512" 
 />
    <glyph glyph-name="uni04E5" unicode="&#x4e5;" horiz-adv-x="512" 
 />
    <glyph glyph-name="uni04E6" unicode="&#x4e6;" horiz-adv-x="512" 
 />
    <glyph glyph-name="uni04E7" unicode="&#x4e7;" horiz-adv-x="512" 
 />
    <glyph glyph-name="uni04E8" unicode="&#x4e8;" horiz-adv-x="512" 
 />
    <glyph glyph-name="uni04E9" unicode="&#x4e9;" horiz-adv-x="512" 
 />
    <glyph glyph-name="uni04EA" unicode="&#x4ea;" horiz-adv-x="512" 
 />
    <glyph glyph-name="uni04EB" unicode="&#x4eb;" horiz-adv-x="512" 
 />
    <glyph glyph-name="uni04EE" unicode="&#x4ee;" horiz-adv-x="512" 
 />
    <glyph glyph-name="uni04EF" unicode="&#x4ef;" horiz-adv-x="512" 
 />
    <glyph glyph-name="uni04F0" unicode="&#x4f0;" horiz-adv-x="512" 
 />
    <glyph glyph-name="uni04F1" unicode="&#x4f1;" horiz-adv-x="512" 
 />
    <glyph glyph-name="uni04F2" unicode="&#x4f2;" horiz-adv-x="512" 
 />
    <glyph glyph-name="uni04F3" unicode="&#x4f3;" horiz-adv-x="512" 
 />
    <glyph glyph-name="uni04F4" unicode="&#x4f4;" horiz-adv-x="512" 
 />
    <glyph glyph-name="uni04F5" unicode="&#x4f5;" horiz-adv-x="512" 
 />
    <glyph glyph-name="uni04F8" unicode="&#x4f8;" horiz-adv-x="512" 
 />
    <glyph glyph-name="uni04F9" unicode="&#x4f9;" horiz-adv-x="512" 
 />
    <glyph glyph-name="Wgrave" unicode="&#x1e80;" horiz-adv-x="512" 
 />
    <glyph glyph-name="wgrave" unicode="&#x1e81;" horiz-adv-x="512" 
 />
    <glyph glyph-name="Wacute" unicode="&#x1e82;" horiz-adv-x="512" 
 />
    <glyph glyph-name="wacute" unicode="&#x1e83;" horiz-adv-x="512" 
 />
    <glyph glyph-name="Wdieresis" unicode="&#x1e84;" horiz-adv-x="512" 
 />
    <glyph glyph-name="wdieresis" unicode="&#x1e85;" horiz-adv-x="512" 
 />
    <glyph glyph-name="Ygrave" unicode="&#x1ef2;" horiz-adv-x="512" 
 />
    <glyph glyph-name="ygrave" unicode="&#x1ef3;" horiz-adv-x="512" 
 />
    <glyph glyph-name="uni2000" unicode="&#x2000;" 
 />
    <glyph glyph-name="uni2001" unicode="&#x2001;" 
 />
    <glyph glyph-name="uni2002" unicode="&#x2002;" 
 />
    <glyph glyph-name="uni2003" unicode="&#x2003;" 
 />
    <glyph glyph-name="uni2004" unicode="&#x2004;" 
 />
    <glyph glyph-name="uni2005" unicode="&#x2005;" 
 />
    <glyph glyph-name="uni2006" unicode="&#x2006;" 
 />
    <glyph glyph-name="uni2007" unicode="&#x2007;" 
 />
    <glyph glyph-name="uni2008" unicode="&#x2008;" 
 />
    <glyph glyph-name="uni2009" unicode="&#x2009;" 
 />
    <glyph glyph-name="uni200A" unicode="&#x200a;" 
 />
    <glyph glyph-name="uni200B" unicode="&#x200b;" horiz-adv-x="512" 
 />
    <glyph glyph-name="uni200C" unicode="&#x200c;" horiz-adv-x="512" 
 />
    <glyph glyph-name="uni200D" unicode="&#x200d;" horiz-adv-x="512" 
 />
    <glyph glyph-name="uni200E" unicode="&#x200e;" horiz-adv-x="512" 
 />
    <glyph glyph-name="uni200F" unicode="&#x200f;" horiz-adv-x="512" 
 />
    <glyph glyph-name="uni2010" unicode="&#x2010;" 
d="M277 268l5 60h451l-5 -60h-451z" />
    <glyph glyph-name="uni2011" unicode="&#x2011;" 
 />
    <glyph glyph-name="figuredash" unicode="&#x2012;" 
 />
    <glyph glyph-name="endash" unicode="&#x2013;" 
 />
    <glyph glyph-name="emdash" unicode="&#x2014;" 
 />
    <glyph glyph-name="uni2015" unicode="&#x2015;" 
d="M-6 320l5 60h1036l-5 -60h-1036z" />
    <glyph glyph-name="underscoredbl" unicode="&#x2017;" 
 />
    <glyph glyph-name="quoteleft" unicode="&#x2018;" horiz-adv-x="400" 
d="M302 547l-13 -150h-224l14 150l16 72h111l-15 -72h111z" />
    <glyph glyph-name="quoteright" unicode="&#x2019;" horiz-adv-x="400" 
d="M72 469l13 150h224l-14 -150l-16 -72h-111l15 72h-111z" />
    <glyph glyph-name="quotesinglbase" unicode="&#x201a;" 
 />
    <glyph glyph-name="quotereversed" unicode="&#x201b;" 
 />
    <glyph glyph-name="quotedblleft" unicode="&#x201c;" horiz-adv-x="600" 
d="M270 547l-13 -150h-192l14 150l16 72h111l-15 -72h79zM510 547l-13 -150h-192l14 150l16 72h111l-15 -72h79z" />
    <glyph glyph-name="quotedblright" unicode="&#x201d;" horiz-adv-x="600" 
d="M312 469l13 150h192l-14 -150l-16 -72h-111l15 72h-79zM72 469l13 150h192l-14 -150l-16 -72h-111l15 72h-79z" />
    <glyph glyph-name="quotedblbase" unicode="&#x201e;" 
 />
    <glyph glyph-name="uni201F" unicode="&#x201f;" 
 />
    <glyph glyph-name="dagger" unicode="&#x2020;" horiz-adv-x="592" 
d="M69 436l5 60h142l11 124h200l-11 -124h137l-5 -60h-137l-28 -320h-200l28 320h-142z" />
    <glyph glyph-name="daggerdbl" unicode="&#x2021;" horiz-adv-x="592" 
d="M73 468l5 60h141l8 92h200l-8 -92h138l-5 -60h-138l-11 -124h138l-5 -60h-138l-15 -168h-200l15 168h-141l5 60h141l11 124h-141z" />
    <glyph glyph-name="bullet" unicode="&#x2022;" 
 />
    <glyph glyph-name="uni2023" unicode="&#x2023;" 
 />
    <glyph glyph-name="onedotenleader" unicode="&#x2024;" 
 />
    <glyph glyph-name="twodotenleader" unicode="&#x2025;" 
d="M187 277l10 118h127l-10 -118h-127zM700 277l10 118h127l-10 -118h-127z" />
    <glyph glyph-name="ellipsis" unicode="&#x2026;" 
d="M99 277l10 118h127l-10 -118h-127zM781 277l10 118h127l-10 -118h-127zM440 277l10 118h127l-10 -118h-127z" />
    <glyph glyph-name="uni2027" unicode="&#x2027;" 
 />
    <glyph glyph-name="uni2028" unicode="&#x2028;" 
 />
    <glyph glyph-name="uni2029" unicode="&#x2029;" horiz-adv-x="512" 
 />
    <glyph glyph-name="uni202A" unicode="&#x202a;" horiz-adv-x="512" 
 />
    <glyph glyph-name="uni202B" unicode="&#x202b;" horiz-adv-x="512" 
 />
    <glyph glyph-name="uni202C" unicode="&#x202c;" horiz-adv-x="512" 
 />
    <glyph glyph-name="uni202D" unicode="&#x202d;" horiz-adv-x="512" 
 />
    <glyph glyph-name="uni202E" unicode="&#x202e;" horiz-adv-x="512" 
 />
    <glyph glyph-name="perthousand" unicode="&#x2030;" 
d="M147 36l123 237h-79h-36h-104l30 340h8h96h36h99h5l-25 -283l149 286h144l-125 -240h85h36h99h5l-30 -340h-12h-92h-36h-104l26 296l-154 -296h-144zM721 376h8h96h36h99h5l-30 -340h-12h-92h-36h-104zM528 96h36l20 220h-36zM160 333h36l20 220h-36zM800 96h36l20 220
h-36z" />
    <glyph glyph-name="uni2031" unicode="&#x2031;" 
 />
    <glyph glyph-name="minute" unicode="&#x2032;" horiz-adv-x="280" 
d="M62 360l36 256h152l-36 -256h-152z" />
    <glyph glyph-name="second" unicode="&#x2033;" horiz-adv-x="512" 
d="M62 360l36 256h152l-36 -256h-152zM270 360l36 256h152l-36 -256h-152z" />
    <glyph glyph-name="uni2034" unicode="&#x2034;" 
 />
    <glyph glyph-name="uni2035" unicode="&#x2035;" 
 />
    <glyph glyph-name="uni2036" unicode="&#x2036;" 
 />
    <glyph glyph-name="uni2037" unicode="&#x2037;" 
 />
    <glyph glyph-name="uni2038" unicode="&#x2038;" 
 />
    <glyph glyph-name="guilsinglleft" unicode="&#x2039;" 
 />
    <glyph glyph-name="guilsinglright" unicode="&#x203a;" 
 />
    <glyph glyph-name="uni203B" unicode="&#x203b;" 
d="M881 20h-164l-214 221l-252 -221h-164l341 299l-288 298h164l213 -220l251 220h164l-340 -298zM73 277l10 118h144l-11 -118h-143zM793 277l10 118h144l-11 -118h-143zM449 501l10 118h144l-11 -118h-143zM407 21l10 118h144l-11 -118h-143z" />
    <glyph glyph-name="exclamdbl" unicode="&#x203c;" 
 />
    <glyph glyph-name="uni203D" unicode="&#x203d;" 
 />
    <glyph glyph-name="uni203E" unicode="&#x203e;" 
 />
    <glyph glyph-name="uni203F" unicode="&#x203f;" 
 />
    <glyph glyph-name="uni2040" unicode="&#x2040;" 
 />
    <glyph glyph-name="uni2041" unicode="&#x2041;" 
 />
    <glyph glyph-name="uni2042" unicode="&#x2042;" 
 />
    <glyph glyph-name="uni2043" unicode="&#x2043;" 
 />
    <glyph glyph-name="fraction" unicode="&#x2044;" 
 />
    <glyph glyph-name="uni2045" unicode="&#x2045;" 
 />
    <glyph glyph-name="uni2046" unicode="&#x2046;" 
 />
    <glyph glyph-name="uni2070" unicode="&#x2070;" horiz-adv-x="512" 
 />
    <glyph glyph-name="uni2074" unicode="&#x2074;" horiz-adv-x="512" 
 />
    <glyph glyph-name="uni2075" unicode="&#x2075;" horiz-adv-x="512" 
 />
    <glyph glyph-name="uni2076" unicode="&#x2076;" horiz-adv-x="512" 
 />
    <glyph glyph-name="uni2077" unicode="&#x2077;" horiz-adv-x="512" 
 />
    <glyph glyph-name="uni2078" unicode="&#x2078;" horiz-adv-x="512" 
 />
    <glyph glyph-name="uni2079" unicode="&#x2079;" horiz-adv-x="512" 
 />
    <glyph glyph-name="uni207A" unicode="&#x207a;" horiz-adv-x="512" 
 />
    <glyph glyph-name="uni207B" unicode="&#x207b;" horiz-adv-x="512" 
 />
    <glyph glyph-name="uni207C" unicode="&#x207c;" horiz-adv-x="512" 
 />
    <glyph glyph-name="uni207D" unicode="&#x207d;" horiz-adv-x="512" 
 />
    <glyph glyph-name="uni207E" unicode="&#x207e;" horiz-adv-x="512" 
 />
    <glyph glyph-name="uni207F" unicode="&#x207f;" horiz-adv-x="512" 
 />
    <glyph glyph-name="uni2080" unicode="&#x2080;" horiz-adv-x="512" 
 />
    <glyph glyph-name="uni2081" unicode="&#x2081;" horiz-adv-x="512" 
 />
    <glyph glyph-name="uni2082" unicode="&#x2082;" horiz-adv-x="512" 
 />
    <glyph glyph-name="uni2083" unicode="&#x2083;" horiz-adv-x="512" 
 />
    <glyph glyph-name="uni2084" unicode="&#x2084;" horiz-adv-x="512" 
 />
    <glyph glyph-name="uni2085" unicode="&#x2085;" horiz-adv-x="512" 
 />
    <glyph glyph-name="uni2086" unicode="&#x2086;" horiz-adv-x="512" 
 />
    <glyph glyph-name="uni2087" unicode="&#x2087;" horiz-adv-x="512" 
 />
    <glyph glyph-name="uni2088" unicode="&#x2088;" horiz-adv-x="512" 
 />
    <glyph glyph-name="uni2089" unicode="&#x2089;" horiz-adv-x="512" 
 />
    <glyph glyph-name="uni208A" unicode="&#x208a;" horiz-adv-x="512" 
 />
    <glyph glyph-name="uni208B" unicode="&#x208b;" horiz-adv-x="512" 
 />
    <glyph glyph-name="uni208C" unicode="&#x208c;" horiz-adv-x="512" 
 />
    <glyph glyph-name="uni208D" unicode="&#x208d;" horiz-adv-x="512" 
 />
    <glyph glyph-name="uni208E" unicode="&#x208e;" horiz-adv-x="512" 
 />
    <glyph glyph-name="uni20A0" unicode="&#x20a0;" horiz-adv-x="512" 
 />
    <glyph glyph-name="colonmonetary" unicode="&#x20a1;" horiz-adv-x="512" 
 />
    <glyph glyph-name="uni20A2" unicode="&#x20a2;" horiz-adv-x="512" 
 />
    <glyph glyph-name="franc" unicode="&#x20a3;" horiz-adv-x="512" 
 />
    <glyph glyph-name="lira" unicode="&#x20a4;" horiz-adv-x="512" 
 />
    <glyph glyph-name="uni20A5" unicode="&#x20a5;" horiz-adv-x="512" 
 />
    <glyph glyph-name="uni20A6" unicode="&#x20a6;" horiz-adv-x="512" 
 />
    <glyph glyph-name="peseta" unicode="&#x20a7;" horiz-adv-x="512" 
 />
    <glyph glyph-name="uni20A8" unicode="&#x20a8;" horiz-adv-x="512" 
 />
    <glyph glyph-name="uni20A9" unicode="&#x20a9;" horiz-adv-x="512" 
 />
    <glyph glyph-name="uni20AA" unicode="&#x20aa;" horiz-adv-x="512" 
 />
    <glyph glyph-name="uni2100" unicode="&#x2100;" 
 />
    <glyph glyph-name="uni2101" unicode="&#x2101;" 
 />
    <glyph glyph-name="uni2102" unicode="&#x2102;" 
 />
    <glyph glyph-name="uni2103" unicode="&#x2103;" 
d="M321 424h-5h-95h-52h-89h-11l18 196h8h92h52h92h8zM336 36l50 579h12h196h385l-5 -60h-385l-40 -459h386l-5 -60h-386h-191h-17zM233 560h-52l-6 -76h52z" />
    <glyph glyph-name="uni2104" unicode="&#x2104;" 
 />
    <glyph glyph-name="uni2105" unicode="&#x2105;" 
 />
    <glyph glyph-name="uni2106" unicode="&#x2106;" 
 />
    <glyph glyph-name="uni2107" unicode="&#x2107;" 
 />
    <glyph glyph-name="uni2108" unicode="&#x2108;" 
 />
    <glyph glyph-name="uni2109" unicode="&#x2109;" 
 />
    <glyph glyph-name="uni210A" unicode="&#x210a;" 
 />
    <glyph glyph-name="uni210B" unicode="&#x210b;" 
 />
    <glyph glyph-name="uni210C" unicode="&#x210c;" 
 />
    <glyph glyph-name="uni210D" unicode="&#x210d;" 
 />
    <glyph glyph-name="uni210E" unicode="&#x210e;" 
 />
    <glyph glyph-name="uni210F" unicode="&#x210f;" 
 />
    <glyph glyph-name="uni2110" unicode="&#x2110;" 
 />
    <glyph glyph-name="Ifraktur" unicode="&#x2111;" 
 />
    <glyph glyph-name="uni2112" unicode="&#x2112;" 
 />
    <glyph glyph-name="uni2113" unicode="&#x2113;" 
 />
    <glyph glyph-name="uni2114" unicode="&#x2114;" 
 />
    <glyph glyph-name="uni2115" unicode="&#x2115;" 
 />
    <glyph glyph-name="uni2116" unicode="&#x2116;" 
 />
    <glyph glyph-name="uni2117" unicode="&#x2117;" 
 />
    <glyph glyph-name="weierstrass" unicode="&#x2118;" 
 />
    <glyph glyph-name="uni2119" unicode="&#x2119;" 
 />
    <glyph glyph-name="uni211A" unicode="&#x211a;" 
 />
    <glyph glyph-name="uni211B" unicode="&#x211b;" 
 />
    <glyph glyph-name="Rfraktur" unicode="&#x211c;" 
 />
    <glyph glyph-name="uni211D" unicode="&#x211d;" 
 />
    <glyph glyph-name="prescription" unicode="&#x211e;" 
 />
    <glyph glyph-name="uni211F" unicode="&#x211f;" 
 />
    <glyph glyph-name="uni2120" unicode="&#x2120;" 
 />
    <glyph glyph-name="uni2121" unicode="&#x2121;" 
 />
    <glyph glyph-name="trademark" unicode="&#x2122;" 
 />
    <glyph glyph-name="uni2123" unicode="&#x2123;" 
 />
    <glyph glyph-name="uni2124" unicode="&#x2124;" 
 />
    <glyph glyph-name="uni2125" unicode="&#x2125;" 
 />
    <glyph glyph-name="Omega" unicode="&#x2126;" 
 />
    <glyph glyph-name="uni2127" unicode="&#x2127;" 
 />
    <glyph glyph-name="uni2128" unicode="&#x2128;" 
 />
    <glyph glyph-name="uni2129" unicode="&#x2129;" 
 />
    <glyph glyph-name="uni212A" unicode="&#x212a;" 
 />
    <glyph glyph-name="uni212B" unicode="&#x212b;" horiz-adv-x="800" 
d="M32 36l199 427h164h28h164l121 -427h-192l-43 152h-178l-71 -152h-192zM512 472h-5h-71h-52h-65h-11l13 148h8h68h52h68h8zM456 248l-50 178l-83 -178h133zM444 560h-52l-3 -28h52z" />
    <glyph glyph-name="uni212C" unicode="&#x212c;" 
 />
    <glyph glyph-name="uni212D" unicode="&#x212d;" 
 />
    <glyph glyph-name="estimated" unicode="&#x212e;" 
 />
    <glyph glyph-name="uni212F" unicode="&#x212f;" 
 />
    <glyph glyph-name="uni2130" unicode="&#x2130;" 
 />
    <glyph glyph-name="uni2131" unicode="&#x2131;" 
 />
    <glyph glyph-name="uni2132" unicode="&#x2132;" 
 />
    <glyph glyph-name="uni2133" unicode="&#x2133;" 
 />
    <glyph glyph-name="uni2134" unicode="&#x2134;" 
 />
    <glyph glyph-name="aleph" unicode="&#x2135;" 
 />
    <glyph glyph-name="uni2136" unicode="&#x2136;" 
 />
    <glyph glyph-name="uni2137" unicode="&#x2137;" 
 />
    <glyph glyph-name="uni2138" unicode="&#x2138;" 
 />
    <glyph glyph-name="onethird" unicode="&#x2153;" horiz-adv-x="512" 
 />
    <glyph glyph-name="twothirds" unicode="&#x2154;" horiz-adv-x="512" 
 />
    <glyph glyph-name="uni2155" unicode="&#x2155;" horiz-adv-x="512" 
 />
    <glyph glyph-name="uni2156" unicode="&#x2156;" horiz-adv-x="512" 
 />
    <glyph glyph-name="uni2157" unicode="&#x2157;" horiz-adv-x="512" 
 />
    <glyph glyph-name="uni2158" unicode="&#x2158;" horiz-adv-x="512" 
 />
    <glyph glyph-name="uni2159" unicode="&#x2159;" horiz-adv-x="512" 
 />
    <glyph glyph-name="uni215A" unicode="&#x215a;" horiz-adv-x="512" 
 />
    <glyph glyph-name="oneeighth" unicode="&#x215b;" horiz-adv-x="512" 
 />
    <glyph glyph-name="threeeighths" unicode="&#x215c;" horiz-adv-x="512" 
 />
    <glyph glyph-name="fiveeighths" unicode="&#x215d;" horiz-adv-x="512" 
 />
    <glyph glyph-name="seveneighths" unicode="&#x215e;" horiz-adv-x="512" 
 />
    <glyph glyph-name="uni215F" unicode="&#x215f;" horiz-adv-x="512" 
 />
    <glyph glyph-name="uni2160" unicode="&#x2160;" 
d="M345 555l5 60h365l-5 -60h-77l-40 -459h78l-5 -60h-365l5 60h79l40 459h-80z" />
    <glyph glyph-name="uni2161" unicode="&#x2161;" 
d="M217 555l5 60h621l-5 -60h-77l-40 -459h78l-5 -60h-621l5 60h79l40 459h-80zM449 96h80l40 459h-80z" />
    <glyph glyph-name="uni2162" unicode="&#x2162;" 
d="M81 555l5 60h889l-5 -60h-77l-40 -459h78l-5 -60h-889l5 60h79l40 459h-80zM313 96h80l40 459h-80zM625 555l-40 -459h76l40 459h-76z" />
    <glyph glyph-name="uni2163" unicode="&#x2163;" 
d="M89 555l5 60h317l-5 -60h-61l-40 -459h62l-5 -60h-317l5 60h63l40 459h-64zM430 615h176l66 -302l126 302h176l-242 -579h-176z" />
    <glyph glyph-name="uni2164" unicode="&#x2164;" 
d="M182 615h192l128 -360l188 360h192l-302 -579h-192z" />
    <glyph glyph-name="uni2165" unicode="&#x2165;" 
d="M653 555l5 60h317l-5 -60h-61l-40 -459h62l-5 -60h-317l5 60h63l40 459h-64zM94 615h176l66 -302l126 302h176l-242 -579h-176z" />
    <glyph glyph-name="uni2166" unicode="&#x2166;" 
d="M461 36l5 60h47l40 459h-25l-188 -519h-160l-94 579h160l45 -274l99 274h581l-5 -60h-45l-40 -459h46l-5 -60h-461zM761 555h-48l-40 -459h48z" />
    <glyph glyph-name="uni2167" unicode="&#x2167;" 
d="M393 36l5 60h43l40 459h-33l-156 -519h-144l-66 579h144l26 -232l70 232h661l-5 -60h-37l-40 -459h38l-5 -60h-541zM645 555h-32l-40 -459h32zM737 96h32l40 459h-32z" />
    <glyph glyph-name="uni2168" unicode="&#x2168;" 
d="M89 555l5 60h317l-5 -60h-61l-40 -459h62l-5 -60h-317l5 60h63l40 459h-64zM380 36l207 293l-157 286h184l77 -140l99 140h184l-203 -286l161 -293h-184l-80 146l-104 -146h-184z" />
    <glyph glyph-name="uni2169" unicode="&#x2169;" 
d="M129 36l279 292l-229 287h200l138 -173l166 173h200l-275 -287l233 -292h-200l-142 178l-170 -178h-200z" />
    <glyph glyph-name="uni216A" unicode="&#x216a;" horiz-adv-x="512" 
 />
    <glyph glyph-name="uni216B" unicode="&#x216b;" horiz-adv-x="512" 
 />
    <glyph glyph-name="uni216C" unicode="&#x216c;" horiz-adv-x="512" 
 />
    <glyph glyph-name="uni216D" unicode="&#x216d;" horiz-adv-x="512" 
 />
    <glyph glyph-name="uni216E" unicode="&#x216e;" horiz-adv-x="512" 
 />
    <glyph glyph-name="uni216F" unicode="&#x216f;" horiz-adv-x="512" 
 />
    <glyph glyph-name="uni2170" unicode="&#x2170;" 
 />
    <glyph glyph-name="uni2171" unicode="&#x2171;" 
 />
    <glyph glyph-name="uni2172" unicode="&#x2172;" 
 />
    <glyph glyph-name="uni2173" unicode="&#x2173;" 
 />
    <glyph glyph-name="uni2174" unicode="&#x2174;" 
 />
    <glyph glyph-name="uni2175" unicode="&#x2175;" 
 />
    <glyph glyph-name="uni2176" unicode="&#x2176;" 
 />
    <glyph glyph-name="uni2177" unicode="&#x2177;" 
 />
    <glyph glyph-name="uni2178" unicode="&#x2178;" 
 />
    <glyph glyph-name="uni2179" unicode="&#x2179;" 
 />
    <glyph glyph-name="uni217A" unicode="&#x217a;" horiz-adv-x="512" 
 />
    <glyph glyph-name="uni217B" unicode="&#x217b;" horiz-adv-x="512" 
 />
    <glyph glyph-name="uni217C" unicode="&#x217c;" horiz-adv-x="512" 
 />
    <glyph glyph-name="uni217D" unicode="&#x217d;" horiz-adv-x="512" 
 />
    <glyph glyph-name="uni217E" unicode="&#x217e;" horiz-adv-x="512" 
 />
    <glyph glyph-name="uni217F" unicode="&#x217f;" horiz-adv-x="512" 
 />
    <glyph glyph-name="uni2180" unicode="&#x2180;" horiz-adv-x="512" 
 />
    <glyph glyph-name="uni2181" unicode="&#x2181;" horiz-adv-x="512" 
 />
    <glyph glyph-name="uni2182" unicode="&#x2182;" horiz-adv-x="512" 
 />
    <glyph glyph-name="arrowleft" unicode="&#x2190;" 
d="M958 352l-5 -60h-562l-11 -128l-322 156l349 156l-11 -124h562z" />
    <glyph glyph-name="arrowup" unicode="&#x2191;" 
d="M436 36l30 340h-146l214 244l174 -244h-154l-30 -340h-88z" />
    <glyph glyph-name="arrowright" unicode="&#x2192;" 
d="M58 292l5 60h562l11 124l322 -156l-349 -156l11 128h-562z" />
    <glyph glyph-name="arrowdown" unicode="&#x2193;" 
d="M580 620l-30 -340h150l-214 -244l-174 244h150l30 340h88z" />
    <glyph glyph-name="arrowboth" unicode="&#x2194;" horiz-adv-x="512" 
 />
    <glyph glyph-name="arrowupdn" unicode="&#x2195;" horiz-adv-x="512" 
 />
    <glyph glyph-name="uni2196" unicode="&#x2196;" horiz-adv-x="512" 
 />
    <glyph glyph-name="uni2197" unicode="&#x2197;" horiz-adv-x="512" 
 />
    <glyph glyph-name="uni2198" unicode="&#x2198;" horiz-adv-x="512" 
 />
    <glyph glyph-name="uni2199" unicode="&#x2199;" horiz-adv-x="512" 
 />
    <glyph glyph-name="uni219A" unicode="&#x219a;" horiz-adv-x="512" 
 />
    <glyph glyph-name="uni219B" unicode="&#x219b;" horiz-adv-x="512" 
 />
    <glyph glyph-name="uni219C" unicode="&#x219c;" horiz-adv-x="512" 
 />
    <glyph glyph-name="uni219D" unicode="&#x219d;" horiz-adv-x="512" 
 />
    <glyph glyph-name="uni219E" unicode="&#x219e;" horiz-adv-x="512" 
 />
    <glyph glyph-name="uni219F" unicode="&#x219f;" horiz-adv-x="512" 
 />
    <glyph glyph-name="uni21A0" unicode="&#x21a0;" horiz-adv-x="512" 
 />
    <glyph glyph-name="uni21A1" unicode="&#x21a1;" horiz-adv-x="512" 
 />
    <glyph glyph-name="uni21A2" unicode="&#x21a2;" horiz-adv-x="512" 
 />
    <glyph glyph-name="uni21A3" unicode="&#x21a3;" horiz-adv-x="512" 
 />
    <glyph glyph-name="uni21A4" unicode="&#x21a4;" horiz-adv-x="512" 
 />
    <glyph glyph-name="uni21A5" unicode="&#x21a5;" horiz-adv-x="512" 
 />
    <glyph glyph-name="uni21A6" unicode="&#x21a6;" horiz-adv-x="512" 
 />
    <glyph glyph-name="uni21A7" unicode="&#x21a7;" horiz-adv-x="512" 
 />
    <glyph glyph-name="arrowupdnbse" unicode="&#x21a8;" horiz-adv-x="512" 
 />
    <glyph glyph-name="uni21A9" unicode="&#x21a9;" horiz-adv-x="512" 
 />
    <glyph glyph-name="uni21AA" unicode="&#x21aa;" horiz-adv-x="512" 
 />
    <glyph glyph-name="uni21AB" unicode="&#x21ab;" horiz-adv-x="512" 
 />
    <glyph glyph-name="uni21AC" unicode="&#x21ac;" horiz-adv-x="512" 
 />
    <glyph glyph-name="uni21AD" unicode="&#x21ad;" horiz-adv-x="512" 
 />
    <glyph glyph-name="uni21AE" unicode="&#x21ae;" horiz-adv-x="512" 
 />
    <glyph glyph-name="uni21AF" unicode="&#x21af;" horiz-adv-x="512" 
 />
    <glyph glyph-name="uni21B0" unicode="&#x21b0;" horiz-adv-x="512" 
 />
    <glyph glyph-name="uni21B1" unicode="&#x21b1;" horiz-adv-x="512" 
 />
    <glyph glyph-name="uni21B2" unicode="&#x21b2;" horiz-adv-x="512" 
 />
    <glyph glyph-name="uni21B3" unicode="&#x21b3;" horiz-adv-x="512" 
 />
    <glyph glyph-name="uni21B4" unicode="&#x21b4;" horiz-adv-x="512" 
 />
    <glyph glyph-name="carriagereturn" unicode="&#x21b5;" horiz-adv-x="512" 
 />
    <glyph glyph-name="uni21B6" unicode="&#x21b6;" horiz-adv-x="512" 
 />
    <glyph glyph-name="uni21B7" unicode="&#x21b7;" horiz-adv-x="512" 
 />
    <glyph glyph-name="uni21B8" unicode="&#x21b8;" horiz-adv-x="512" 
 />
    <glyph glyph-name="uni21B9" unicode="&#x21b9;" horiz-adv-x="512" 
 />
    <glyph glyph-name="uni21BA" unicode="&#x21ba;" horiz-adv-x="512" 
 />
    <glyph glyph-name="uni21BB" unicode="&#x21bb;" horiz-adv-x="512" 
 />
    <glyph glyph-name="uni21BC" unicode="&#x21bc;" horiz-adv-x="512" 
 />
    <glyph glyph-name="uni21BD" unicode="&#x21bd;" horiz-adv-x="512" 
 />
    <glyph glyph-name="uni21BE" unicode="&#x21be;" horiz-adv-x="512" 
 />
    <glyph glyph-name="uni21BF" unicode="&#x21bf;" horiz-adv-x="512" 
 />
    <glyph glyph-name="uni21C0" unicode="&#x21c0;" horiz-adv-x="512" 
 />
    <glyph glyph-name="uni21C1" unicode="&#x21c1;" horiz-adv-x="512" 
 />
    <glyph glyph-name="uni21C2" unicode="&#x21c2;" horiz-adv-x="512" 
 />
    <glyph glyph-name="uni21C3" unicode="&#x21c3;" horiz-adv-x="512" 
 />
    <glyph glyph-name="uni21C4" unicode="&#x21c4;" horiz-adv-x="512" 
 />
    <glyph glyph-name="uni21C5" unicode="&#x21c5;" horiz-adv-x="512" 
 />
    <glyph glyph-name="uni21C6" unicode="&#x21c6;" horiz-adv-x="512" 
 />
    <glyph glyph-name="uni21C7" unicode="&#x21c7;" horiz-adv-x="512" 
 />
    <glyph glyph-name="uni21C8" unicode="&#x21c8;" horiz-adv-x="512" 
 />
    <glyph glyph-name="uni21C9" unicode="&#x21c9;" horiz-adv-x="512" 
 />
    <glyph glyph-name="uni21CA" unicode="&#x21ca;" horiz-adv-x="512" 
 />
    <glyph glyph-name="uni21CB" unicode="&#x21cb;" horiz-adv-x="512" 
 />
    <glyph glyph-name="uni21CC" unicode="&#x21cc;" horiz-adv-x="512" 
 />
    <glyph glyph-name="uni21CD" unicode="&#x21cd;" horiz-adv-x="512" 
 />
    <glyph glyph-name="uni21CE" unicode="&#x21ce;" horiz-adv-x="512" 
 />
    <glyph glyph-name="uni21CF" unicode="&#x21cf;" horiz-adv-x="512" 
 />
    <glyph glyph-name="arrowdblleft" unicode="&#x21d0;" horiz-adv-x="512" 
 />
    <glyph glyph-name="arrowdblup" unicode="&#x21d1;" horiz-adv-x="512" 
 />
    <glyph glyph-name="arrowdblright" unicode="&#x21d2;" 
d="M58 333l5 44h665l-97 47l5 52l322 -156l-349 -156l5 52l100 45h-662l5 44h756l33 15l-27 13h-761z" />
    <glyph glyph-name="arrowdbldown" unicode="&#x21d3;" horiz-adv-x="512" 
 />
    <glyph glyph-name="arrowdblboth" unicode="&#x21d4;" 
d="M407 476l-5 -52l-105 -47h431l-97 47l5 52l322 -156l-349 -156l5 52l100 45h-422l93 -45l-5 -52l-322 156zM170 320l31 -15h612l33 15l-27 13h-620z" />
    <glyph glyph-name="uni21D5" unicode="&#x21d5;" horiz-adv-x="512" 
 />
    <glyph glyph-name="uni21D6" unicode="&#x21d6;" horiz-adv-x="512" 
 />
    <glyph glyph-name="uni21D7" unicode="&#x21d7;" horiz-adv-x="512" 
 />
    <glyph glyph-name="uni21D8" unicode="&#x21d8;" horiz-adv-x="512" 
 />
    <glyph glyph-name="uni21D9" unicode="&#x21d9;" horiz-adv-x="512" 
 />
    <glyph glyph-name="uni21DA" unicode="&#x21da;" horiz-adv-x="512" 
 />
    <glyph glyph-name="uni21DB" unicode="&#x21db;" horiz-adv-x="512" 
 />
    <glyph glyph-name="uni21DC" unicode="&#x21dc;" horiz-adv-x="512" 
 />
    <glyph glyph-name="uni21DD" unicode="&#x21dd;" horiz-adv-x="512" 
 />
    <glyph glyph-name="uni21DE" unicode="&#x21de;" horiz-adv-x="512" 
 />
    <glyph glyph-name="uni21DF" unicode="&#x21df;" horiz-adv-x="512" 
 />
    <glyph glyph-name="uni21E0" unicode="&#x21e0;" horiz-adv-x="512" 
 />
    <glyph glyph-name="uni21E1" unicode="&#x21e1;" horiz-adv-x="512" 
 />
    <glyph glyph-name="uni21E2" unicode="&#x21e2;" horiz-adv-x="512" 
 />
    <glyph glyph-name="uni21E3" unicode="&#x21e3;" horiz-adv-x="512" 
 />
    <glyph glyph-name="uni21E4" unicode="&#x21e4;" horiz-adv-x="512" 
 />
    <glyph glyph-name="uni21E5" unicode="&#x21e5;" horiz-adv-x="512" 
 />
    <glyph glyph-name="uni21E6" unicode="&#x21e6;" horiz-adv-x="512" 
 />
    <glyph glyph-name="uni21E7" unicode="&#x21e7;" horiz-adv-x="512" 
 />
    <glyph glyph-name="uni21E8" unicode="&#x21e8;" horiz-adv-x="512" 
 />
    <glyph glyph-name="uni21E9" unicode="&#x21e9;" horiz-adv-x="512" 
 />
    <glyph glyph-name="uni21EA" unicode="&#x21ea;" horiz-adv-x="512" 
 />
    <glyph glyph-name="universal" unicode="&#x2200;" 
d="M742 615h208l-378 -579h-176l-282 579h176l70 -144h296zM620 411h-231l104 -213z" />
    <glyph glyph-name="uni2201" unicode="&#x2201;" horiz-adv-x="512" 
 />
    <glyph glyph-name="partialdiff" unicode="&#x2202;" horiz-adv-x="773" 
d="M72 36l-31 85l34 170l65 85h18h190h172l8 39l-27 139h-264l5 60h247v1h208l39 -200l-36 -179l-89 -200h-11h-197h-123h-200h-8zM283 291l-34 -170l9 -25h172l62 140l16 80h-206z" />
    <glyph glyph-name="existential" unicode="&#x2203;" 
d="M148 56l5 60h468l15 160h-467l5 60h467l13 143h-469l5 60h469h203h5l-43 -483h-13h-195h-468z" />
    <glyph glyph-name="uni2204" unicode="&#x2204;" horiz-adv-x="512" 
 />
    <glyph glyph-name="emptyset" unicode="&#x2205;" horiz-adv-x="512" 
 />
    <glyph glyph-name="Delta" unicode="&#x2206;" horiz-adv-x="512" 
 />
    <glyph glyph-name="gradient" unicode="&#x2207;" 
d="M896 605l-381 -560h-104l-265 560h750zM784 547h-449l186 -389z" />
    <glyph glyph-name="element" unicode="&#x2208;" 
d="M908 563l-5 -60h-512l-79 -92l-4 -52h584l-5 -60h-584l-6 -67l57 -92h518l-5 -60h-476h-101h-107l-94 152l15 179l130 152h106h102h466z" />
    <glyph glyph-name="notelement" unicode="&#x2209;" horiz-adv-x="512" 
 />
    <glyph glyph-name="uni220A" unicode="&#x220a;" horiz-adv-x="512" 
 />
    <glyph glyph-name="suchthat" unicode="&#x220b;" 
d="M88 79l5 60h512l79 92l6 68h-582l5 60h582l4 51l-57 92h-518l5 60h476h101h107l94 -152l-15 -179l-130 -152h-106h-102h-466z" />
    <glyph glyph-name="uni220C" unicode="&#x220c;" horiz-adv-x="512" 
 />
    <glyph glyph-name="uni220D" unicode="&#x220d;" horiz-adv-x="512" 
 />
    <glyph glyph-name="uni220E" unicode="&#x220e;" horiz-adv-x="512" 
 />
    <glyph glyph-name="product" unicode="&#x220f;" horiz-adv-x="512" 
 />
    <glyph glyph-name="uni2210" unicode="&#x2210;" horiz-adv-x="512" 
 />
    <glyph glyph-name="summation" unicode="&#x2211;" 
 />
    <glyph glyph-name="minus" unicode="&#x2212;" 
d="M173 316l5 60h671l-5 -60h-671z" />
    <glyph glyph-name="uni2213" unicode="&#x2213;" horiz-adv-x="512" 
 />
    <glyph glyph-name="uni2214" unicode="&#x2214;" horiz-adv-x="512" 
 />
    <glyph glyph-name="uni2215" unicode="&#x2215;" horiz-adv-x="512" 
 />
    <glyph glyph-name="uni2216" unicode="&#x2216;" horiz-adv-x="512" 
 />
    <glyph glyph-name="asteriskmath" unicode="&#x2217;" horiz-adv-x="512" 
 />
    <glyph glyph-name="uni2218" unicode="&#x2218;" horiz-adv-x="512" 
 />
    <glyph glyph-name="uni2219" unicode="&#x2219;" horiz-adv-x="512" 
 />
    <glyph glyph-name="radical" unicode="&#x221a;" horiz-adv-x="671" 
d="M49 259l5 60h215l46 -128l218 440h160l-311 -627h-160l-91 255h-82z" />
    <glyph glyph-name="uni221B" unicode="&#x221b;" horiz-adv-x="512" 
 />
    <glyph glyph-name="uni221C" unicode="&#x221c;" horiz-adv-x="512" 
 />
    <glyph glyph-name="proportional" unicode="&#x221d;" 
d="M134 96l-76 224l116 224h16h152h8h88h80l48 -87l64 87h64h112h152l-5 -60h-191l-120 -164l91 -164h177l-5 -60h-139h-110h-66l-48 87l-64 -87h-77h-91h-8h-150h-18zM290 156h56l120 164l-91 164h-56l-85 -164z" />
    <glyph glyph-name="infinity" unicode="&#x221e;" 
d="M70 96l-12 224l52 224h16h152h8h88h80l63 -101l81 101h64h104h8h152h16l12 -224l-52 -224h-29h-139h-8h-102h-66l-63 101l-81 -101h-77h-91h-8h-150h-18zM778 320l-9 164h-43l-132 -164l103 -164h43zM243 156h43l132 164l-102 164h-44l-38 -164z" />
    <glyph glyph-name="orthogonal" unicode="&#x221f;" 
 />
    <glyph glyph-name="angle" unicode="&#x2220;" 
d="M32 36l646 579h240l-579 -519h596l-5 -60h-898z" />
    <glyph glyph-name="uni2221" unicode="&#x2221;" horiz-adv-x="512" 
 />
    <glyph glyph-name="uni2222" unicode="&#x2222;" horiz-adv-x="512" 
 />
    <glyph glyph-name="uni2223" unicode="&#x2223;" horiz-adv-x="512" 
 />
    <glyph glyph-name="uni2224" unicode="&#x2224;" horiz-adv-x="512" 
 />
    <glyph glyph-name="uni2225" unicode="&#x2225;" 
d="M229 36l159 580h128l-159 -580h-128zM437 20l159 580h128l-159 -580h-128z" />
    <glyph glyph-name="uni2226" unicode="&#x2226;" horiz-adv-x="512" 
 />
    <glyph glyph-name="logicaland" unicode="&#x2227;" 
d="M636 615l218 -579h-176l-159 422l-229 -422h-176l314 579h32h144h32z" />
    <glyph glyph-name="logicalor" unicode="&#x2228;" 
d="M380 36l-218 579h176l155 -412l201 412h208l-314 -579h-32h-144h-32z" />
    <glyph glyph-name="intersection" unicode="&#x2229;" 
d="M868 36h-192l38 443l-65 76h-221l-70 -76l-38 -443h-192l38 443l126 136h497l117 -136z" />
    <glyph glyph-name="union" unicode="&#x222a;" 
d="M178 615h192l-38 -443l65 -76h221l70 76l38 443h192l-38 -443l-126 -136h-497l-117 136z" />
    <glyph glyph-name="integral" unicode="&#x222b;" horiz-adv-x="542" 
d="M562 620l-5 -60h-81l-198 -752h-265l5 60h68l198 752h278z" />
    <glyph glyph-name="uni222C" unicode="&#x222c;" horiz-adv-x="796" 
d="M530 620l-5 -60h-81l-198 -752h-53h-123h-57l5 60h68l198 752h66h110h70zM818 620l-5 -60h-81l-198 -752h-53h-123h-57l5 60h68l198 752h66h110h70z" />
    <glyph glyph-name="uni222D" unicode="&#x222d;" horiz-adv-x="512" 
 />
    <glyph glyph-name="uni222E" unicode="&#x222e;" 
 />
    <glyph glyph-name="uni222F" unicode="&#x222f;" horiz-adv-x="512" 
 />
    <glyph glyph-name="uni2230" unicode="&#x2230;" horiz-adv-x="512" 
 />
    <glyph glyph-name="uni2231" unicode="&#x2231;" horiz-adv-x="512" 
 />
    <glyph glyph-name="uni2232" unicode="&#x2232;" horiz-adv-x="512" 
 />
    <glyph glyph-name="uni2233" unicode="&#x2233;" horiz-adv-x="512" 
 />
    <glyph glyph-name="therefore" unicode="&#x2234;" 
d="M440 472l12 134h160l-12 -134h-160zM152 112l12 134h160l-12 -134h-160zM668 112l12 134h160l-12 -134h-160z" />
    <glyph glyph-name="uni2235" unicode="&#x2235;" 
d="M584 246l-12 -134h-160l12 134h160zM872 606l-12 -134h-160l12 134h160zM356 606l-12 -134h-160l12 134h160z" />
    <glyph glyph-name="uni2236" unicode="&#x2236;" horiz-adv-x="512" 
 />
    <glyph glyph-name="uni2237" unicode="&#x2237;" horiz-adv-x="512" 
 />
    <glyph glyph-name="uni2238" unicode="&#x2238;" horiz-adv-x="512" 
 />
    <glyph glyph-name="uni2239" unicode="&#x2239;" horiz-adv-x="512" 
 />
    <glyph glyph-name="uni223A" unicode="&#x223a;" horiz-adv-x="512" 
 />
    <glyph glyph-name="uni223B" unicode="&#x223b;" horiz-adv-x="512" 
 />
    <glyph glyph-name="similar" unicode="&#x223c;" horiz-adv-x="512" 
 />
    <glyph glyph-name="uni223D" unicode="&#x223d;" 
d="M102 96l-44 224l84 224h16h160h88l-5 -60h-105l-62 -164l32 -164h44l256 388h64h104h8h152h16l44 -224l-84 -224h-29h-147h-102l6 60h119l61 164l-32 164h-44l-256 -388h-77h-91h-8h-150h-18z" />
    <glyph glyph-name="uni223E" unicode="&#x223e;" horiz-adv-x="512" 
 />
    <glyph glyph-name="uni223F" unicode="&#x223f;" horiz-adv-x="512" 
 />
    <glyph glyph-name="uni2240" unicode="&#x2240;" horiz-adv-x="512" 
 />
    <glyph glyph-name="uni2241" unicode="&#x2241;" horiz-adv-x="512" 
 />
    <glyph glyph-name="uni2242" unicode="&#x2242;" horiz-adv-x="512" 
 />
    <glyph glyph-name="uni2243" unicode="&#x2243;" horiz-adv-x="512" 
 />
    <glyph glyph-name="uni2244" unicode="&#x2244;" horiz-adv-x="512" 
 />
    <glyph glyph-name="congruent" unicode="&#x2245;" horiz-adv-x="512" 
 />
    <glyph glyph-name="uni2246" unicode="&#x2246;" horiz-adv-x="512" 
 />
    <glyph glyph-name="uni2247" unicode="&#x2247;" horiz-adv-x="512" 
 />
    <glyph glyph-name="approxequal" unicode="&#x2248;" horiz-adv-x="512" 
 />
    <glyph glyph-name="uni2249" unicode="&#x2249;" horiz-adv-x="512" 
 />
    <glyph glyph-name="uni224A" unicode="&#x224a;" horiz-adv-x="512" 
 />
    <glyph glyph-name="uni224B" unicode="&#x224b;" horiz-adv-x="512" 
 />
    <glyph glyph-name="uni224C" unicode="&#x224c;" horiz-adv-x="512" 
 />
    <glyph glyph-name="uni224D" unicode="&#x224d;" horiz-adv-x="512" 
 />
    <glyph glyph-name="uni224E" unicode="&#x224e;" horiz-adv-x="512" 
 />
    <glyph glyph-name="uni224F" unicode="&#x224f;" horiz-adv-x="512" 
 />
    <glyph glyph-name="uni2250" unicode="&#x2250;" horiz-adv-x="512" 
 />
    <glyph glyph-name="uni2251" unicode="&#x2251;" horiz-adv-x="512" 
 />
    <glyph glyph-name="uni2252" unicode="&#x2252;" 
d="M199 384l5 60h635l-5 -60h-635zM181 216l5 60h635l-5 -60h-635zM612 39l11 118h144l-11 -118h-144zM252 503l10 118h144l-10 -118h-144z" />
    <glyph glyph-name="uni2253" unicode="&#x2253;" horiz-adv-x="512" 
 />
    <glyph glyph-name="uni2254" unicode="&#x2254;" horiz-adv-x="512" 
 />
    <glyph glyph-name="uni2255" unicode="&#x2255;" horiz-adv-x="512" 
 />
    <glyph glyph-name="uni2256" unicode="&#x2256;" horiz-adv-x="512" 
 />
    <glyph glyph-name="uni2257" unicode="&#x2257;" horiz-adv-x="512" 
 />
    <glyph glyph-name="uni2258" unicode="&#x2258;" horiz-adv-x="512" 
 />
    <glyph glyph-name="uni2259" unicode="&#x2259;" horiz-adv-x="512" 
 />
    <glyph glyph-name="uni225A" unicode="&#x225a;" horiz-adv-x="512" 
 />
    <glyph glyph-name="uni225B" unicode="&#x225b;" horiz-adv-x="512" 
 />
    <glyph glyph-name="uni225C" unicode="&#x225c;" horiz-adv-x="512" 
 />
    <glyph glyph-name="uni225D" unicode="&#x225d;" horiz-adv-x="512" 
 />
    <glyph glyph-name="uni225E" unicode="&#x225e;" horiz-adv-x="512" 
 />
    <glyph glyph-name="uni225F" unicode="&#x225f;" horiz-adv-x="512" 
 />
    <glyph glyph-name="notequal" unicode="&#x2260;" 
d="M199 384l5 60h355l111 97h164l-111 -97h116l-5 -60h-179l-123 -108h289l-5 -60h-352l-119 -104h-164l119 104h-119l5 60h182l123 108h-292z" />
    <glyph glyph-name="equivalence" unicode="&#x2261;" 
d="M191 300l5 60h635l-5 -60h-635zM177 132l5 60h635l-5 -60h-635zM205 468l5 60h635l-5 -60h-635z" />
    <glyph glyph-name="uni2262" unicode="&#x2262;" horiz-adv-x="512" 
 />
    <glyph glyph-name="uni2263" unicode="&#x2263;" horiz-adv-x="512" 
 />
    <glyph glyph-name="lessequal" unicode="&#x2264;" horiz-adv-x="512" 
 />
    <glyph glyph-name="greaterequal" unicode="&#x2265;" horiz-adv-x="512" 
 />
    <glyph glyph-name="uni2266" unicode="&#x2266;" 
d="M644 280l-507 176l546 161h256l-546 -161l507 -176h-256zM97 160l5 60h795l-5 -60h-795zM85 24l5 60h795l-5 -60h-795z" />
    <glyph glyph-name="uni2267" unicode="&#x2267;" 
d="M408 616l507 -160l-546 -177h-256l546 177l-507 160h256zM97 160l5 60h795l-5 -60h-795zM85 24l5 60h795l-5 -60h-795z" />
    <glyph glyph-name="uni2268" unicode="&#x2268;" horiz-adv-x="512" 
 />
    <glyph glyph-name="uni2269" unicode="&#x2269;" horiz-adv-x="512" 
 />
    <glyph glyph-name="uni226A" unicode="&#x226a;" 
d="M404 80l-347 240l386 225h192l-386 -225l347 -240h-192zM744 80l-347 240l386 225h192l-386 -225l347 -240h-192z" />
    <glyph glyph-name="uni226B" unicode="&#x226b;" 
d="M612 544l347 -224l-386 -241h-192l386 241l-347 224h192zM272 544l347 -224l-386 -241h-192l386 241l-347 224h192z" />
    <glyph glyph-name="uni226C" unicode="&#x226c;" horiz-adv-x="512" 
 />
    <glyph glyph-name="uni226D" unicode="&#x226d;" horiz-adv-x="512" 
 />
    <glyph glyph-name="uni226E" unicode="&#x226e;" horiz-adv-x="512" 
 />
    <glyph glyph-name="uni226F" unicode="&#x226f;" horiz-adv-x="512" 
 />
    <glyph glyph-name="uni2270" unicode="&#x2270;" horiz-adv-x="512" 
 />
    <glyph glyph-name="uni2271" unicode="&#x2271;" horiz-adv-x="512" 
 />
    <glyph glyph-name="uni2272" unicode="&#x2272;" horiz-adv-x="512" 
 />
    <glyph glyph-name="uni2273" unicode="&#x2273;" horiz-adv-x="512" 
 />
    <glyph glyph-name="uni2274" unicode="&#x2274;" horiz-adv-x="512" 
 />
    <glyph glyph-name="uni2275" unicode="&#x2275;" horiz-adv-x="512" 
 />
    <glyph glyph-name="uni2276" unicode="&#x2276;" horiz-adv-x="512" 
 />
    <glyph glyph-name="uni2277" unicode="&#x2277;" horiz-adv-x="512" 
 />
    <glyph glyph-name="uni2278" unicode="&#x2278;" horiz-adv-x="512" 
 />
    <glyph glyph-name="uni2279" unicode="&#x2279;" horiz-adv-x="512" 
 />
    <glyph glyph-name="uni227A" unicode="&#x227a;" horiz-adv-x="512" 
 />
    <glyph glyph-name="uni227B" unicode="&#x227b;" horiz-adv-x="512" 
 />
    <glyph glyph-name="uni227C" unicode="&#x227c;" horiz-adv-x="512" 
 />
    <glyph glyph-name="uni227D" unicode="&#x227d;" horiz-adv-x="512" 
 />
    <glyph glyph-name="uni227E" unicode="&#x227e;" horiz-adv-x="512" 
 />
    <glyph glyph-name="uni227F" unicode="&#x227f;" horiz-adv-x="512" 
 />
    <glyph glyph-name="uni2280" unicode="&#x2280;" horiz-adv-x="512" 
 />
    <glyph glyph-name="uni2281" unicode="&#x2281;" horiz-adv-x="512" 
 />
    <glyph glyph-name="propersubset" unicode="&#x2282;" 
d="M908 563l-5 -60h-512l-79 -92l-15 -179l57 -92h518l-5 -60h-476h-101h-107l-94 152l15 179l130 152h106h102h466z" />
    <glyph glyph-name="propersuperset" unicode="&#x2283;" 
d="M124 502l5 60h476h101h107l94 -152l-15 -179l-130 -152h-106h-102h-466l5 60h512l79 92l15 179l-57 92h-518z" />
    <glyph glyph-name="notsubset" unicode="&#x2284;" horiz-adv-x="512" 
 />
    <glyph glyph-name="uni2285" unicode="&#x2285;" horiz-adv-x="512" 
 />
    <glyph glyph-name="reflexsubset" unicode="&#x2286;" 
d="M80 20l5 60h785l-5 -60h-785zM912 611l-5 -60h-512l-79 -92l-13 -147l57 -92h518l-5 -60h-476h-101h-107l-94 152l13 147l130 152h106h102h466z" />
    <glyph glyph-name="reflexsuperset" unicode="&#x2287;" 
d="M80 20l5 60h785l-5 -60h-785zM94 159l5 60h512l79 92l13 147l-57 92h-518l5 60h476h101h107l94 -152l-13 -147l-130 -152h-106h-102h-466z" />
    <glyph glyph-name="uni2288" unicode="&#x2288;" horiz-adv-x="512" 
 />
    <glyph glyph-name="uni2289" unicode="&#x2289;" horiz-adv-x="512" 
 />
    <glyph glyph-name="uni228A" unicode="&#x228a;" horiz-adv-x="512" 
 />
    <glyph glyph-name="uni228B" unicode="&#x228b;" horiz-adv-x="512" 
 />
    <glyph glyph-name="uni228C" unicode="&#x228c;" horiz-adv-x="512" 
 />
    <glyph glyph-name="uni228D" unicode="&#x228d;" horiz-adv-x="512" 
 />
    <glyph glyph-name="uni228E" unicode="&#x228e;" horiz-adv-x="512" 
 />
    <glyph glyph-name="uni228F" unicode="&#x228f;" horiz-adv-x="512" 
 />
    <glyph glyph-name="uni2290" unicode="&#x2290;" horiz-adv-x="512" 
 />
    <glyph glyph-name="uni2291" unicode="&#x2291;" horiz-adv-x="512" 
 />
    <glyph glyph-name="uni2292" unicode="&#x2292;" horiz-adv-x="512" 
 />
    <glyph glyph-name="uni2293" unicode="&#x2293;" horiz-adv-x="512" 
 />
    <glyph glyph-name="uni2294" unicode="&#x2294;" horiz-adv-x="512" 
 />
    <glyph glyph-name="circleplus" unicode="&#x2295;" horiz-adv-x="512" 
 />
    <glyph glyph-name="uni2296" unicode="&#x2296;" horiz-adv-x="512" 
 />
    <glyph glyph-name="circlemultiply" unicode="&#x2297;" horiz-adv-x="512" 
 />
    <glyph glyph-name="uni2298" unicode="&#x2298;" horiz-adv-x="512" 
 />
    <glyph glyph-name="uni2299" unicode="&#x2299;" horiz-adv-x="512" 
 />
    <glyph glyph-name="uni229A" unicode="&#x229a;" horiz-adv-x="512" 
 />
    <glyph glyph-name="uni229B" unicode="&#x229b;" horiz-adv-x="512" 
 />
    <glyph glyph-name="uni229C" unicode="&#x229c;" horiz-adv-x="512" 
 />
    <glyph glyph-name="uni229D" unicode="&#x229d;" horiz-adv-x="512" 
 />
    <glyph glyph-name="uni229E" unicode="&#x229e;" horiz-adv-x="512" 
 />
    <glyph glyph-name="uni229F" unicode="&#x229f;" horiz-adv-x="512" 
 />
    <glyph glyph-name="uni22A0" unicode="&#x22a0;" horiz-adv-x="512" 
 />
    <glyph glyph-name="uni22A1" unicode="&#x22a1;" horiz-adv-x="512" 
 />
    <glyph glyph-name="uni22A2" unicode="&#x22a2;" horiz-adv-x="512" 
 />
    <glyph glyph-name="uni22A3" unicode="&#x22a3;" horiz-adv-x="512" 
 />
    <glyph glyph-name="uni22A4" unicode="&#x22a4;" horiz-adv-x="512" 
 />
    <glyph glyph-name="perpendicular" unicode="&#x22a5;" 
d="M37 36l5 60h343l45 519h208l-45 -519h342l-5 -60h-893z" />
    <glyph glyph-name="uni22A6" unicode="&#x22a6;" horiz-adv-x="512" 
 />
    <glyph glyph-name="uni22A7" unicode="&#x22a7;" horiz-adv-x="512" 
 />
    <glyph glyph-name="uni22A8" unicode="&#x22a8;" horiz-adv-x="512" 
 />
    <glyph glyph-name="uni22A9" unicode="&#x22a9;" horiz-adv-x="512" 
 />
    <glyph glyph-name="uni22AA" unicode="&#x22aa;" horiz-adv-x="512" 
 />
    <glyph glyph-name="uni22AB" unicode="&#x22ab;" horiz-adv-x="512" 
 />
    <glyph glyph-name="uni22AC" unicode="&#x22ac;" horiz-adv-x="512" 
 />
    <glyph glyph-name="uni22AD" unicode="&#x22ad;" horiz-adv-x="512" 
 />
    <glyph glyph-name="uni22AE" unicode="&#x22ae;" horiz-adv-x="512" 
 />
    <glyph glyph-name="uni22AF" unicode="&#x22af;" horiz-adv-x="512" 
 />
    <glyph glyph-name="uni22B0" unicode="&#x22b0;" horiz-adv-x="512" 
 />
    <glyph glyph-name="uni22B1" unicode="&#x22b1;" horiz-adv-x="512" 
 />
    <glyph glyph-name="uni22B2" unicode="&#x22b2;" horiz-adv-x="512" 
 />
    <glyph glyph-name="uni22B3" unicode="&#x22b3;" horiz-adv-x="512" 
 />
    <glyph glyph-name="uni22B4" unicode="&#x22b4;" horiz-adv-x="512" 
 />
    <glyph glyph-name="uni22B5" unicode="&#x22b5;" horiz-adv-x="512" 
 />
    <glyph glyph-name="uni22B6" unicode="&#x22b6;" horiz-adv-x="512" 
 />
    <glyph glyph-name="uni22B7" unicode="&#x22b7;" horiz-adv-x="512" 
 />
    <glyph glyph-name="uni22B8" unicode="&#x22b8;" horiz-adv-x="512" 
 />
    <glyph glyph-name="uni22B9" unicode="&#x22b9;" horiz-adv-x="512" 
 />
    <glyph glyph-name="uni22BA" unicode="&#x22ba;" horiz-adv-x="512" 
 />
    <glyph glyph-name="uni22BB" unicode="&#x22bb;" horiz-adv-x="512" 
 />
    <glyph glyph-name="uni22BC" unicode="&#x22bc;" horiz-adv-x="512" 
 />
    <glyph glyph-name="uni22BD" unicode="&#x22bd;" horiz-adv-x="512" 
 />
    <glyph glyph-name="uni22BE" unicode="&#x22be;" horiz-adv-x="512" 
 />
    <glyph glyph-name="uni22BF" unicode="&#x22bf;" 
 />
    <glyph glyph-name="uni22C0" unicode="&#x22c0;" horiz-adv-x="512" 
 />
    <glyph glyph-name="uni22C1" unicode="&#x22c1;" horiz-adv-x="512" 
 />
    <glyph glyph-name="uni22C2" unicode="&#x22c2;" horiz-adv-x="512" 
 />
    <glyph glyph-name="uni22C3" unicode="&#x22c3;" horiz-adv-x="512" 
 />
    <glyph glyph-name="uni22C4" unicode="&#x22c4;" horiz-adv-x="512" 
 />
    <glyph glyph-name="dotmath" unicode="&#x22c5;" horiz-adv-x="512" 
 />
    <glyph glyph-name="uni22C6" unicode="&#x22c6;" horiz-adv-x="512" 
 />
    <glyph glyph-name="uni22C7" unicode="&#x22c7;" horiz-adv-x="512" 
 />
    <glyph glyph-name="uni22C8" unicode="&#x22c8;" horiz-adv-x="512" 
 />
    <glyph glyph-name="uni22C9" unicode="&#x22c9;" horiz-adv-x="512" 
 />
    <glyph glyph-name="uni22CA" unicode="&#x22ca;" horiz-adv-x="512" 
 />
    <glyph glyph-name="uni22CB" unicode="&#x22cb;" horiz-adv-x="512" 
 />
    <glyph glyph-name="uni22CC" unicode="&#x22cc;" horiz-adv-x="512" 
 />
    <glyph glyph-name="uni22CD" unicode="&#x22cd;" horiz-adv-x="512" 
 />
    <glyph glyph-name="uni22CE" unicode="&#x22ce;" horiz-adv-x="512" 
 />
    <glyph glyph-name="uni22CF" unicode="&#x22cf;" horiz-adv-x="512" 
 />
    <glyph glyph-name="uni22D0" unicode="&#x22d0;" horiz-adv-x="512" 
 />
    <glyph glyph-name="uni22D1" unicode="&#x22d1;" horiz-adv-x="512" 
 />
    <glyph glyph-name="uni22D2" unicode="&#x22d2;" horiz-adv-x="512" 
 />
    <glyph glyph-name="uni22D3" unicode="&#x22d3;" horiz-adv-x="512" 
 />
    <glyph glyph-name="uni22D4" unicode="&#x22d4;" horiz-adv-x="512" 
 />
    <glyph glyph-name="uni22D5" unicode="&#x22d5;" horiz-adv-x="512" 
 />
    <glyph glyph-name="uni22D6" unicode="&#x22d6;" horiz-adv-x="512" 
 />
    <glyph glyph-name="uni22D7" unicode="&#x22d7;" horiz-adv-x="512" 
 />
    <glyph glyph-name="uni22D8" unicode="&#x22d8;" horiz-adv-x="512" 
 />
    <glyph glyph-name="uni22D9" unicode="&#x22d9;" horiz-adv-x="512" 
 />
    <glyph glyph-name="uni22DA" unicode="&#x22da;" horiz-adv-x="512" 
 />
    <glyph glyph-name="uni22DB" unicode="&#x22db;" horiz-adv-x="512" 
 />
    <glyph glyph-name="uni22DC" unicode="&#x22dc;" horiz-adv-x="512" 
 />
    <glyph glyph-name="uni22DD" unicode="&#x22dd;" horiz-adv-x="512" 
 />
    <glyph glyph-name="uni22DE" unicode="&#x22de;" horiz-adv-x="512" 
 />
    <glyph glyph-name="uni22DF" unicode="&#x22df;" horiz-adv-x="512" 
 />
    <glyph glyph-name="uni22E0" unicode="&#x22e0;" horiz-adv-x="512" 
 />
    <glyph glyph-name="uni22E1" unicode="&#x22e1;" horiz-adv-x="512" 
 />
    <glyph glyph-name="uni22E2" unicode="&#x22e2;" horiz-adv-x="512" 
 />
    <glyph glyph-name="uni22E3" unicode="&#x22e3;" horiz-adv-x="512" 
 />
    <glyph glyph-name="uni22E4" unicode="&#x22e4;" horiz-adv-x="512" 
 />
    <glyph glyph-name="uni22E5" unicode="&#x22e5;" horiz-adv-x="512" 
 />
    <glyph glyph-name="uni22E6" unicode="&#x22e6;" horiz-adv-x="512" 
 />
    <glyph glyph-name="uni22E7" unicode="&#x22e7;" horiz-adv-x="512" 
 />
    <glyph glyph-name="uni22E8" unicode="&#x22e8;" horiz-adv-x="512" 
 />
    <glyph glyph-name="uni22E9" unicode="&#x22e9;" horiz-adv-x="512" 
 />
    <glyph glyph-name="uni22EA" unicode="&#x22ea;" horiz-adv-x="512" 
 />
    <glyph glyph-name="uni22EB" unicode="&#x22eb;" horiz-adv-x="512" 
 />
    <glyph glyph-name="uni22EC" unicode="&#x22ec;" horiz-adv-x="512" 
 />
    <glyph glyph-name="uni22ED" unicode="&#x22ed;" horiz-adv-x="512" 
 />
    <glyph glyph-name="uni22EE" unicode="&#x22ee;" horiz-adv-x="512" 
 />
    <glyph glyph-name="uni22EF" unicode="&#x22ef;" horiz-adv-x="512" 
 />
    <glyph glyph-name="uni22F0" unicode="&#x22f0;" horiz-adv-x="512" 
 />
    <glyph glyph-name="uni22F1" unicode="&#x22f1;" horiz-adv-x="512" 
 />
    <glyph glyph-name="house" unicode="&#x2302;" horiz-adv-x="512" 
 />
    <glyph glyph-name="revlogicalnot" unicode="&#x2310;" horiz-adv-x="512" 
 />
    <glyph glyph-name="uni2312" unicode="&#x2312;" 
d="M966 519h-192l-87 36h-329l-100 -36h-192l266 96h192h17h192z" />
    <glyph glyph-name="integraltp" unicode="&#x2320;" horiz-adv-x="512" 
 />
    <glyph glyph-name="integralbt" unicode="&#x2321;" horiz-adv-x="512" 
 />
    <glyph glyph-name="uni2460" unicode="&#x2460;" 
 />
    <glyph glyph-name="uni2461" unicode="&#x2461;" 
 />
    <glyph glyph-name="uni2462" unicode="&#x2462;" 
 />
    <glyph glyph-name="uni2463" unicode="&#x2463;" 
 />
    <glyph glyph-name="uni2464" unicode="&#x2464;" 
 />
    <glyph glyph-name="uni2465" unicode="&#x2465;" 
 />
    <glyph glyph-name="uni2466" unicode="&#x2466;" 
 />
    <glyph glyph-name="uni2467" unicode="&#x2467;" 
 />
    <glyph glyph-name="uni2468" unicode="&#x2468;" 
 />
    <glyph glyph-name="uni2469" unicode="&#x2469;" 
 />
    <glyph glyph-name="uni246A" unicode="&#x246a;" 
 />
    <glyph glyph-name="uni246B" unicode="&#x246b;" 
 />
    <glyph glyph-name="uni246C" unicode="&#x246c;" 
 />
    <glyph glyph-name="uni246D" unicode="&#x246d;" 
 />
    <glyph glyph-name="uni246E" unicode="&#x246e;" 
 />
    <glyph glyph-name="uni246F" unicode="&#x246f;" 
 />
    <glyph glyph-name="uni2470" unicode="&#x2470;" 
 />
    <glyph glyph-name="uni2471" unicode="&#x2471;" 
 />
    <glyph glyph-name="uni2472" unicode="&#x2472;" 
 />
    <glyph glyph-name="uni2473" unicode="&#x2473;" 
 />
    <glyph glyph-name="uni2474" unicode="&#x2474;" 
 />
    <glyph glyph-name="uni2475" unicode="&#x2475;" 
 />
    <glyph glyph-name="uni2476" unicode="&#x2476;" 
 />
    <glyph glyph-name="uni2477" unicode="&#x2477;" 
 />
    <glyph glyph-name="uni2478" unicode="&#x2478;" 
 />
    <glyph glyph-name="uni2479" unicode="&#x2479;" 
 />
    <glyph glyph-name="uni247A" unicode="&#x247a;" 
 />
    <glyph glyph-name="uni247B" unicode="&#x247b;" 
 />
    <glyph glyph-name="uni247C" unicode="&#x247c;" 
 />
    <glyph glyph-name="uni247D" unicode="&#x247d;" 
 />
    <glyph glyph-name="uni247E" unicode="&#x247e;" 
 />
    <glyph glyph-name="uni247F" unicode="&#x247f;" 
 />
    <glyph glyph-name="uni2480" unicode="&#x2480;" 
 />
    <glyph glyph-name="uni2481" unicode="&#x2481;" 
 />
    <glyph glyph-name="uni2482" unicode="&#x2482;" 
 />
    <glyph glyph-name="uni2483" unicode="&#x2483;" 
 />
    <glyph glyph-name="uni2484" unicode="&#x2484;" 
 />
    <glyph glyph-name="uni2485" unicode="&#x2485;" 
 />
    <glyph glyph-name="uni2486" unicode="&#x2486;" 
 />
    <glyph glyph-name="uni2487" unicode="&#x2487;" 
 />
    <glyph glyph-name="uni2488" unicode="&#x2488;" 
 />
    <glyph glyph-name="uni2489" unicode="&#x2489;" 
 />
    <glyph glyph-name="uni248A" unicode="&#x248a;" 
 />
    <glyph glyph-name="uni248B" unicode="&#x248b;" 
 />
    <glyph glyph-name="uni248C" unicode="&#x248c;" 
 />
    <glyph glyph-name="uni248D" unicode="&#x248d;" 
 />
    <glyph glyph-name="uni248E" unicode="&#x248e;" 
 />
    <glyph glyph-name="uni248F" unicode="&#x248f;" 
 />
    <glyph glyph-name="uni2490" unicode="&#x2490;" 
 />
    <glyph glyph-name="uni2491" unicode="&#x2491;" 
 />
    <glyph glyph-name="uni2492" unicode="&#x2492;" 
 />
    <glyph glyph-name="uni2493" unicode="&#x2493;" 
 />
    <glyph glyph-name="uni2494" unicode="&#x2494;" 
 />
    <glyph glyph-name="uni2495" unicode="&#x2495;" 
 />
    <glyph glyph-name="uni2496" unicode="&#x2496;" 
 />
    <glyph glyph-name="uni2497" unicode="&#x2497;" 
 />
    <glyph glyph-name="uni2498" unicode="&#x2498;" 
 />
    <glyph glyph-name="uni2499" unicode="&#x2499;" 
 />
    <glyph glyph-name="uni249A" unicode="&#x249a;" 
 />
    <glyph glyph-name="uni249B" unicode="&#x249b;" 
 />
    <glyph glyph-name="uni249C" unicode="&#x249c;" 
 />
    <glyph glyph-name="uni249D" unicode="&#x249d;" 
 />
    <glyph glyph-name="uni249E" unicode="&#x249e;" 
 />
    <glyph glyph-name="uni249F" unicode="&#x249f;" 
 />
    <glyph glyph-name="uni24A0" unicode="&#x24a0;" 
 />
    <glyph glyph-name="uni24A1" unicode="&#x24a1;" 
 />
    <glyph glyph-name="uni24A2" unicode="&#x24a2;" 
 />
    <glyph glyph-name="uni24A3" unicode="&#x24a3;" 
 />
    <glyph glyph-name="uni24A4" unicode="&#x24a4;" 
 />
    <glyph glyph-name="uni24A5" unicode="&#x24a5;" 
 />
    <glyph glyph-name="uni24A6" unicode="&#x24a6;" 
 />
    <glyph glyph-name="uni24A7" unicode="&#x24a7;" 
 />
    <glyph glyph-name="uni24A8" unicode="&#x24a8;" 
 />
    <glyph glyph-name="uni24A9" unicode="&#x24a9;" 
 />
    <glyph glyph-name="uni24AA" unicode="&#x24aa;" 
 />
    <glyph glyph-name="uni24AB" unicode="&#x24ab;" 
 />
    <glyph glyph-name="uni24AC" unicode="&#x24ac;" 
 />
    <glyph glyph-name="uni24AD" unicode="&#x24ad;" 
 />
    <glyph glyph-name="uni24AE" unicode="&#x24ae;" 
 />
    <glyph glyph-name="uni24AF" unicode="&#x24af;" 
 />
    <glyph glyph-name="uni24B0" unicode="&#x24b0;" 
 />
    <glyph glyph-name="uni24B1" unicode="&#x24b1;" 
 />
    <glyph glyph-name="uni24B2" unicode="&#x24b2;" 
 />
    <glyph glyph-name="uni24B3" unicode="&#x24b3;" 
 />
    <glyph glyph-name="uni24B4" unicode="&#x24b4;" 
 />
    <glyph glyph-name="uni24B5" unicode="&#x24b5;" 
 />
    <glyph glyph-name="uni24B6" unicode="&#x24b6;" 
 />
    <glyph glyph-name="uni24B7" unicode="&#x24b7;" 
 />
    <glyph glyph-name="uni24B8" unicode="&#x24b8;" 
 />
    <glyph glyph-name="uni24B9" unicode="&#x24b9;" 
 />
    <glyph glyph-name="uni24BA" unicode="&#x24ba;" 
 />
    <glyph glyph-name="uni24BB" unicode="&#x24bb;" 
 />
    <glyph glyph-name="uni24BC" unicode="&#x24bc;" 
 />
    <glyph glyph-name="uni24BD" unicode="&#x24bd;" 
 />
    <glyph glyph-name="uni24BE" unicode="&#x24be;" 
 />
    <glyph glyph-name="uni24BF" unicode="&#x24bf;" 
 />
    <glyph glyph-name="uni24C0" unicode="&#x24c0;" 
 />
    <glyph glyph-name="uni24C1" unicode="&#x24c1;" 
 />
    <glyph glyph-name="uni24C2" unicode="&#x24c2;" 
 />
    <glyph glyph-name="uni24C3" unicode="&#x24c3;" 
 />
    <glyph glyph-name="uni24C4" unicode="&#x24c4;" 
 />
    <glyph glyph-name="uni24C5" unicode="&#x24c5;" 
 />
    <glyph glyph-name="uni24C6" unicode="&#x24c6;" 
 />
    <glyph glyph-name="uni24C7" unicode="&#x24c7;" 
 />
    <glyph glyph-name="uni24C8" unicode="&#x24c8;" 
 />
    <glyph glyph-name="uni24C9" unicode="&#x24c9;" 
 />
    <glyph glyph-name="uni24CA" unicode="&#x24ca;" 
 />
    <glyph glyph-name="uni24CB" unicode="&#x24cb;" 
 />
    <glyph glyph-name="uni24CC" unicode="&#x24cc;" 
 />
    <glyph glyph-name="uni24CD" unicode="&#x24cd;" 
 />
    <glyph glyph-name="uni24CE" unicode="&#x24ce;" 
 />
    <glyph glyph-name="uni24CF" unicode="&#x24cf;" 
 />
    <glyph glyph-name="uni24D0" unicode="&#x24d0;" 
 />
    <glyph glyph-name="uni24D1" unicode="&#x24d1;" 
 />
    <glyph glyph-name="uni24D2" unicode="&#x24d2;" 
 />
    <glyph glyph-name="uni24D3" unicode="&#x24d3;" 
 />
    <glyph glyph-name="uni24D4" unicode="&#x24d4;" 
 />
    <glyph glyph-name="uni24D5" unicode="&#x24d5;" 
 />
    <glyph glyph-name="uni24D6" unicode="&#x24d6;" 
 />
    <glyph glyph-name="uni24D7" unicode="&#x24d7;" 
 />
    <glyph glyph-name="uni24D8" unicode="&#x24d8;" 
 />
    <glyph glyph-name="uni24D9" unicode="&#x24d9;" 
 />
    <glyph glyph-name="uni24DA" unicode="&#x24da;" 
 />
    <glyph glyph-name="uni24DB" unicode="&#x24db;" 
 />
    <glyph glyph-name="uni24DC" unicode="&#x24dc;" 
 />
    <glyph glyph-name="uni24DD" unicode="&#x24dd;" 
 />
    <glyph glyph-name="uni24DE" unicode="&#x24de;" 
 />
    <glyph glyph-name="uni24DF" unicode="&#x24df;" 
 />
    <glyph glyph-name="uni24E0" unicode="&#x24e0;" 
 />
    <glyph glyph-name="uni24E1" unicode="&#x24e1;" 
 />
    <glyph glyph-name="uni24E2" unicode="&#x24e2;" 
 />
    <glyph glyph-name="uni24E3" unicode="&#x24e3;" 
 />
    <glyph glyph-name="uni24E4" unicode="&#x24e4;" 
 />
    <glyph glyph-name="uni24E5" unicode="&#x24e5;" 
 />
    <glyph glyph-name="uni24E6" unicode="&#x24e6;" 
 />
    <glyph glyph-name="uni24E7" unicode="&#x24e7;" 
 />
    <glyph glyph-name="uni24E8" unicode="&#x24e8;" 
 />
    <glyph glyph-name="uni24E9" unicode="&#x24e9;" 
 />
    <glyph glyph-name="uni24EA" unicode="&#x24ea;" 
 />
    <glyph glyph-name="SF100000" unicode="&#x2500;" 
d="M0 352v60h512h512v-60h-512h-512z" />
    <glyph glyph-name="uni2501" unicode="&#x2501;" 
d="M0 330v104h458h108h458v-104h-458h-108h-458z" />
    <glyph glyph-name="SF110000" unicode="&#x2502;" 
d="M542 -201h-60v577v425h60v-425v-577z" />
    <glyph glyph-name="uni2503" unicode="&#x2503;" 
d="M566 -200h-108v520v64v416h108v-416v-64v-520z" />
    <glyph glyph-name="uni2504" unicode="&#x2504;" horiz-adv-x="512" 
 />
    <glyph glyph-name="uni2505" unicode="&#x2505;" horiz-adv-x="512" 
 />
    <glyph glyph-name="uni2506" unicode="&#x2506;" horiz-adv-x="512" 
 />
    <glyph glyph-name="uni2507" unicode="&#x2507;" horiz-adv-x="512" 
 />
    <glyph glyph-name="uni2508" unicode="&#x2508;" horiz-adv-x="512" 
 />
    <glyph glyph-name="uni2509" unicode="&#x2509;" horiz-adv-x="512" 
 />
    <glyph glyph-name="uni250A" unicode="&#x250a;" horiz-adv-x="512" 
 />
    <glyph glyph-name="uni250B" unicode="&#x250b;" horiz-adv-x="512" 
 />
    <glyph glyph-name="SF010000" unicode="&#x250c;" 
d="M482 412h542v-60h-482v-553h-60v553v24v36z" />
    <glyph glyph-name="uni250D" unicode="&#x250d;" horiz-adv-x="512" 
 />
    <glyph glyph-name="uni250E" unicode="&#x250e;" horiz-adv-x="512" 
 />
    <glyph glyph-name="uni250F" unicode="&#x250f;" 
d="M566 -200h-108v530v54v50h566v-104h-458v-530z" />
    <glyph glyph-name="SF030000" unicode="&#x2510;" 
d="M542 -201h-60v553h-482v60h542v-36v-24v-553z" />
    <glyph glyph-name="uni2511" unicode="&#x2511;" horiz-adv-x="512" 
 />
    <glyph glyph-name="uni2512" unicode="&#x2512;" horiz-adv-x="512" 
 />
    <glyph glyph-name="uni2513" unicode="&#x2513;" 
d="M566 -200h-108v530h-458v104h566v-50v-54v-530z" />
    <glyph glyph-name="SF020000" unicode="&#x2514;" 
d="M482 801h60v-389h482v-60h-542v24v36v389z" />
    <glyph glyph-name="uni2515" unicode="&#x2515;" horiz-adv-x="512" 
 />
    <glyph glyph-name="uni2516" unicode="&#x2516;" horiz-adv-x="512" 
 />
    <glyph glyph-name="uni2517" unicode="&#x2517;" 
d="M458 800h108v-366h458v-104h-566v6v98v366z" />
    <glyph glyph-name="SF040000" unicode="&#x2518;" 
d="M0 352v60h482v389h60v-389v-36v-24h-542z" />
    <glyph glyph-name="uni2519" unicode="&#x2519;" horiz-adv-x="512" 
 />
    <glyph glyph-name="uni251A" unicode="&#x251a;" horiz-adv-x="512" 
 />
    <glyph glyph-name="uni251B" unicode="&#x251b;" 
d="M0 330v104h458v366h108v-366v-98v-6h-566z" />
    <glyph glyph-name="SF080000" unicode="&#x251c;" 
d="M542 -201h-60v577v425h60v-389h482v-60h-482v-553z" />
    <glyph glyph-name="uni251D" unicode="&#x251d;" 
d="M542 -201h-60v577v425h60v-367h482v-104h-482v-531z" />
    <glyph glyph-name="uni251E" unicode="&#x251e;" horiz-adv-x="512" 
 />
    <glyph glyph-name="uni251F" unicode="&#x251f;" horiz-adv-x="512" 
 />
    <glyph glyph-name="uni2520" unicode="&#x2520;" 
d="M566 -200h-108v552v32v416h108v-388h458v-60h-458v-552z" />
    <glyph glyph-name="uni2521" unicode="&#x2521;" horiz-adv-x="512" 
 />
    <glyph glyph-name="uni2522" unicode="&#x2522;" horiz-adv-x="512" 
 />
    <glyph glyph-name="uni2523" unicode="&#x2523;" 
d="M566 -200h-108v530v6v48v50v366h108v-366h458v-104h-458v-530z" />
    <glyph glyph-name="SF090000" unicode="&#x2524;" 
d="M542 -201h-60v553h-482v60h482v389h60v-389v-36v-24v-553z" />
    <glyph glyph-name="uni2525" unicode="&#x2525;" 
d="M542 -201h-60v531h-482v104h482v367h60v-425v-577z" />
    <glyph glyph-name="uni2526" unicode="&#x2526;" horiz-adv-x="512" 
 />
    <glyph glyph-name="uni2527" unicode="&#x2527;" horiz-adv-x="512" 
 />
    <glyph glyph-name="uni2528" unicode="&#x2528;" 
d="M566 -200h-108v520v32h-458v60h458v388h108v-416v-64v-520z" />
    <glyph glyph-name="uni2529" unicode="&#x2529;" horiz-adv-x="512" 
 />
    <glyph glyph-name="uni252A" unicode="&#x252a;" horiz-adv-x="512" 
 />
    <glyph glyph-name="uni252B" unicode="&#x252b;" 
d="M566 -200h-108v520v10h-458v104h458v366h108v-366v-50v-54v-10v-520z" />
    <glyph glyph-name="SF060000" unicode="&#x252c;" 
d="M542 -201h-60v553h-482v60h482h60h482v-60h-482v-553z" />
    <glyph glyph-name="uni252D" unicode="&#x252d;" horiz-adv-x="512" 
 />
    <glyph glyph-name="uni252E" unicode="&#x252e;" horiz-adv-x="512" 
 />
    <glyph glyph-name="uni252F" unicode="&#x252f;" 
d="M0 330v104h458h108h458v-104h-458h-24v-531h-60v531h-24h-458z" />
    <glyph glyph-name="uni2530" unicode="&#x2530;" 
d="M0 352v60h482h60h482v-60h-458v-552h-108v552h-458z" />
    <glyph glyph-name="uni2531" unicode="&#x2531;" horiz-adv-x="512" 
 />
    <glyph glyph-name="uni2532" unicode="&#x2532;" horiz-adv-x="512" 
 />
    <glyph glyph-name="uni2533" unicode="&#x2533;" 
d="M566 -200h-108v530h-458v104h458h108h458v-104h-458v-530z" />
    <glyph glyph-name="SF070000" unicode="&#x2534;" 
d="M0 352v60h482v389h60v-389h482v-60h-482h-60h-482z" />
    <glyph glyph-name="uni2535" unicode="&#x2535;" horiz-adv-x="512" 
 />
    <glyph glyph-name="uni2536" unicode="&#x2536;" horiz-adv-x="512" 
 />
    <glyph glyph-name="uni2537" unicode="&#x2537;" 
d="M0 330v104h458h24v367h60v-367h24h458v-104h-458h-108h-458z" />
    <glyph glyph-name="uni2538" unicode="&#x2538;" 
d="M0 352v60h458v388h108v-388h458v-60h-482h-60h-482z" />
    <glyph glyph-name="uni2539" unicode="&#x2539;" horiz-adv-x="512" 
 />
    <glyph glyph-name="uni253A" unicode="&#x253a;" horiz-adv-x="512" 
 />
    <glyph glyph-name="uni253B" unicode="&#x253b;" 
d="M0 330v104h458v366h108v-366h458v-104h-458h-108h-458z" />
    <glyph glyph-name="SF050000" unicode="&#x253c;" 
d="M0 352v60h482v389h60v-389h482v-60h-482v-553h-60v553h-482z" />
    <glyph glyph-name="uni253D" unicode="&#x253d;" horiz-adv-x="512" 
 />
    <glyph glyph-name="uni253E" unicode="&#x253e;" horiz-adv-x="512" 
 />
    <glyph glyph-name="uni253F" unicode="&#x253f;" 
d="M0 330v104h458h24v367h60v-367h24h458v-104h-458h-108h-458z" />
    <glyph glyph-name="uni2540" unicode="&#x2540;" horiz-adv-x="512" 
 />
    <glyph glyph-name="uni2541" unicode="&#x2541;" horiz-adv-x="512" 
 />
    <glyph glyph-name="uni2542" unicode="&#x2542;" 
d="M0 352v60h458v388h108v-388h458v-60h-458v-32v-520h-108v520v32h-458z" />
    <glyph glyph-name="uni2543" unicode="&#x2543;" horiz-adv-x="512" 
 />
    <glyph glyph-name="uni2544" unicode="&#x2544;" horiz-adv-x="512" 
 />
    <glyph glyph-name="uni2545" unicode="&#x2545;" horiz-adv-x="512" 
 />
    <glyph glyph-name="uni2546" unicode="&#x2546;" horiz-adv-x="512" 
 />
    <glyph glyph-name="uni2547" unicode="&#x2547;" horiz-adv-x="512" 
 />
    <glyph glyph-name="uni2548" unicode="&#x2548;" horiz-adv-x="512" 
 />
    <glyph glyph-name="uni2549" unicode="&#x2549;" horiz-adv-x="512" 
 />
    <glyph glyph-name="uni254A" unicode="&#x254a;" horiz-adv-x="512" 
 />
    <glyph glyph-name="uni254B" unicode="&#x254b;" 
d="M0 330v104h458v366h108v-366h458v-104h-458v-530h-108v530h-458z" />
    <glyph glyph-name="uni254C" unicode="&#x254c;" horiz-adv-x="512" 
 />
    <glyph glyph-name="uni254D" unicode="&#x254d;" horiz-adv-x="512" 
 />
    <glyph glyph-name="uni254E" unicode="&#x254e;" horiz-adv-x="512" 
 />
    <glyph glyph-name="uni254F" unicode="&#x254f;" horiz-adv-x="512" 
 />
    <glyph glyph-name="SF430000" unicode="&#x2550;" horiz-adv-x="512" 
 />
    <glyph glyph-name="SF240000" unicode="&#x2551;" horiz-adv-x="512" 
 />
    <glyph glyph-name="SF510000" unicode="&#x2552;" horiz-adv-x="512" 
 />
    <glyph glyph-name="SF520000" unicode="&#x2553;" horiz-adv-x="512" 
 />
    <glyph glyph-name="SF390000" unicode="&#x2554;" horiz-adv-x="512" 
 />
    <glyph glyph-name="SF220000" unicode="&#x2555;" horiz-adv-x="512" 
 />
    <glyph glyph-name="SF210000" unicode="&#x2556;" horiz-adv-x="512" 
 />
    <glyph glyph-name="SF250000" unicode="&#x2557;" horiz-adv-x="512" 
 />
    <glyph glyph-name="SF500000" unicode="&#x2558;" horiz-adv-x="512" 
 />
    <glyph glyph-name="SF490000" unicode="&#x2559;" horiz-adv-x="512" 
 />
    <glyph glyph-name="SF380000" unicode="&#x255a;" horiz-adv-x="512" 
 />
    <glyph glyph-name="SF280000" unicode="&#x255b;" horiz-adv-x="512" 
 />
    <glyph glyph-name="SF270000" unicode="&#x255c;" horiz-adv-x="512" 
 />
    <glyph glyph-name="SF260000" unicode="&#x255d;" horiz-adv-x="512" 
 />
    <glyph glyph-name="SF360000" unicode="&#x255e;" horiz-adv-x="512" 
 />
    <glyph glyph-name="SF370000" unicode="&#x255f;" horiz-adv-x="512" 
 />
    <glyph glyph-name="SF420000" unicode="&#x2560;" horiz-adv-x="512" 
 />
    <glyph glyph-name="SF190000" unicode="&#x2561;" horiz-adv-x="512" 
 />
    <glyph glyph-name="SF200000" unicode="&#x2562;" horiz-adv-x="512" 
 />
    <glyph glyph-name="SF230000" unicode="&#x2563;" horiz-adv-x="512" 
 />
    <glyph glyph-name="SF470000" unicode="&#x2564;" horiz-adv-x="512" 
 />
    <glyph glyph-name="SF480000" unicode="&#x2565;" horiz-adv-x="512" 
 />
    <glyph glyph-name="SF410000" unicode="&#x2566;" horiz-adv-x="512" 
 />
    <glyph glyph-name="SF450000" unicode="&#x2567;" horiz-adv-x="512" 
 />
    <glyph glyph-name="SF460000" unicode="&#x2568;" horiz-adv-x="512" 
 />
    <glyph glyph-name="SF400000" unicode="&#x2569;" horiz-adv-x="512" 
 />
    <glyph glyph-name="SF540000" unicode="&#x256a;" horiz-adv-x="512" 
 />
    <glyph glyph-name="SF530000" unicode="&#x256b;" horiz-adv-x="512" 
 />
    <glyph glyph-name="SF440000" unicode="&#x256c;" horiz-adv-x="512" 
 />
    <glyph glyph-name="uni256D" unicode="&#x256d;" horiz-adv-x="512" 
 />
    <glyph glyph-name="uni256E" unicode="&#x256e;" horiz-adv-x="512" 
 />
    <glyph glyph-name="uni256F" unicode="&#x256f;" horiz-adv-x="512" 
 />
    <glyph glyph-name="uni2570" unicode="&#x2570;" horiz-adv-x="512" 
 />
    <glyph glyph-name="uni2571" unicode="&#x2571;" horiz-adv-x="512" 
 />
    <glyph glyph-name="uni2572" unicode="&#x2572;" horiz-adv-x="512" 
 />
    <glyph glyph-name="uni2573" unicode="&#x2573;" horiz-adv-x="512" 
 />
    <glyph glyph-name="uni2574" unicode="&#x2574;" horiz-adv-x="512" 
 />
    <glyph glyph-name="uni2575" unicode="&#x2575;" horiz-adv-x="512" 
 />
    <glyph glyph-name="uni2576" unicode="&#x2576;" horiz-adv-x="512" 
 />
    <glyph glyph-name="uni2577" unicode="&#x2577;" horiz-adv-x="512" 
 />
    <glyph glyph-name="uni2578" unicode="&#x2578;" horiz-adv-x="512" 
 />
    <glyph glyph-name="uni2579" unicode="&#x2579;" horiz-adv-x="512" 
 />
    <glyph glyph-name="uni257A" unicode="&#x257a;" horiz-adv-x="512" 
 />
    <glyph glyph-name="uni257B" unicode="&#x257b;" horiz-adv-x="512" 
 />
    <glyph glyph-name="uni257C" unicode="&#x257c;" horiz-adv-x="512" 
 />
    <glyph glyph-name="uni257D" unicode="&#x257d;" horiz-adv-x="512" 
 />
    <glyph glyph-name="uni257E" unicode="&#x257e;" horiz-adv-x="512" 
 />
    <glyph glyph-name="uni257F" unicode="&#x257f;" horiz-adv-x="512" 
 />
    <glyph glyph-name="upblock" unicode="&#x2580;" horiz-adv-x="512" 
 />
    <glyph glyph-name="uni2581" unicode="&#x2581;" horiz-adv-x="512" 
 />
    <glyph glyph-name="uni2582" unicode="&#x2582;" horiz-adv-x="512" 
 />
    <glyph glyph-name="uni2583" unicode="&#x2583;" horiz-adv-x="512" 
 />
    <glyph glyph-name="dnblock" unicode="&#x2584;" horiz-adv-x="512" 
 />
    <glyph glyph-name="uni2585" unicode="&#x2585;" horiz-adv-x="512" 
 />
    <glyph glyph-name="uni2586" unicode="&#x2586;" horiz-adv-x="512" 
 />
    <glyph glyph-name="uni2587" unicode="&#x2587;" horiz-adv-x="512" 
 />
    <glyph glyph-name="block" unicode="&#x2588;" horiz-adv-x="512" 
 />
    <glyph glyph-name="uni2589" unicode="&#x2589;" horiz-adv-x="512" 
 />
    <glyph glyph-name="uni258A" unicode="&#x258a;" horiz-adv-x="512" 
 />
    <glyph glyph-name="uni258B" unicode="&#x258b;" horiz-adv-x="512" 
 />
    <glyph glyph-name="lfblock" unicode="&#x258c;" horiz-adv-x="512" 
 />
    <glyph glyph-name="uni258D" unicode="&#x258d;" horiz-adv-x="512" 
 />
    <glyph glyph-name="uni258E" unicode="&#x258e;" horiz-adv-x="512" 
 />
    <glyph glyph-name="uni258F" unicode="&#x258f;" horiz-adv-x="512" 
 />
    <glyph glyph-name="rtblock" unicode="&#x2590;" horiz-adv-x="512" 
 />
    <glyph glyph-name="ltshade" unicode="&#x2591;" horiz-adv-x="512" 
 />
    <glyph glyph-name="shade" unicode="&#x2592;" horiz-adv-x="512" 
 />
    <glyph glyph-name="dkshade" unicode="&#x2593;" horiz-adv-x="512" 
 />
    <glyph glyph-name="uni2594" unicode="&#x2594;" horiz-adv-x="512" 
 />
    <glyph glyph-name="uni2595" unicode="&#x2595;" horiz-adv-x="512" 
 />
    <glyph glyph-name="filledbox" unicode="&#x25a0;" 
d="M208 56l48 532h561l-48 -532h-561z" />
    <glyph glyph-name="H22073" unicode="&#x25a1;" 
d="M208 56l48 532h561l-48 -532h-561zM261 104h459l44 435h-459z" />
    <glyph glyph-name="uni25A2" unicode="&#x25a2;" 
 />
    <glyph glyph-name="uni25A3" unicode="&#x25a3;" 
 />
    <glyph glyph-name="uni25A4" unicode="&#x25a4;" 
 />
    <glyph glyph-name="uni25A5" unicode="&#x25a5;" 
 />
    <glyph glyph-name="uni25A6" unicode="&#x25a6;" 
 />
    <glyph glyph-name="uni25A7" unicode="&#x25a7;" 
 />
    <glyph glyph-name="uni25A8" unicode="&#x25a8;" 
 />
    <glyph glyph-name="uni25A9" unicode="&#x25a9;" 
 />
    <glyph glyph-name="H18543" unicode="&#x25aa;" 
 />
    <glyph glyph-name="H18551" unicode="&#x25ab;" 
 />
    <glyph glyph-name="filledrect" unicode="&#x25ac;" 
 />
    <glyph glyph-name="uni25AD" unicode="&#x25ad;" 
 />
    <glyph glyph-name="uni25AE" unicode="&#x25ae;" 
 />
    <glyph glyph-name="uni25AF" unicode="&#x25af;" 
 />
    <glyph glyph-name="uni25B0" unicode="&#x25b0;" 
 />
    <glyph glyph-name="uni25B1" unicode="&#x25b1;" 
 />
    <glyph glyph-name="triagup" unicode="&#x25b2;" 
d="M194 56l338 537l238 -537h-576z" />
    <glyph glyph-name="uni25B3" unicode="&#x25b3;" 
d="M154 65l381 560l265 -560h-646zM266 123h449l-186 389z" />
    <glyph glyph-name="uni25B4" unicode="&#x25b4;" 
 />
    <glyph glyph-name="uni25B5" unicode="&#x25b5;" 
 />
    <glyph glyph-name="uni25B6" unicode="&#x25b6;" 
 />
    <glyph glyph-name="uni25B7" unicode="&#x25b7;" 
 />
    <glyph glyph-name="uni25B8" unicode="&#x25b8;" 
 />
    <glyph glyph-name="uni25B9" unicode="&#x25b9;" 
 />
    <glyph glyph-name="triagrt" unicode="&#x25ba;" 
 />
    <glyph glyph-name="uni25BB" unicode="&#x25bb;" 
 />
    <glyph glyph-name="triagdn" unicode="&#x25bc;" 
d="M860 605l-381 -560l-265 560h646z" />
    <glyph glyph-name="uni25BD" unicode="&#x25bd;" 
d="M860 605l-381 -560l-265 560h646zM748 547h-449l186 -389z" />
    <glyph glyph-name="uni25BE" unicode="&#x25be;" 
 />
    <glyph glyph-name="uni25BF" unicode="&#x25bf;" 
 />
    <glyph glyph-name="uni25C0" unicode="&#x25c0;" 
 />
    <glyph glyph-name="uni25C1" unicode="&#x25c1;" 
 />
    <glyph glyph-name="uni25C2" unicode="&#x25c2;" 
 />
    <glyph glyph-name="uni25C3" unicode="&#x25c3;" 
 />
    <glyph glyph-name="triaglf" unicode="&#x25c4;" 
 />
    <glyph glyph-name="uni25C5" unicode="&#x25c5;" 
 />
    <glyph glyph-name="uni25C6" unicode="&#x25c6;" 
d="M485 39l-260 284l308 284l260 -284z" />
    <glyph glyph-name="uni25C7" unicode="&#x25c7;" 
d="M485 34l-288 290l336 287l287 -291zM487 121l244 201l-200 202l-243 -202z" />
    <glyph glyph-name="uni25C8" unicode="&#x25c8;" 
 />
    <glyph glyph-name="uni25C9" unicode="&#x25c9;" 
 />
    <glyph glyph-name="lozenge" unicode="&#x25ca;" 
 />
    <glyph glyph-name="circle" unicode="&#x25cb;" 
d="M208 320q11 124 107 212t220 88t204 -88t69 -212t-107 -212t-220 -88t-204 88t-69 212zM265 320q-8 -101 56.5 -172t164.5 -71t178 71t87 172t-56 172.5t-165 71.5t-178 -71.5t-87 -172.5z" />
    <glyph glyph-name="uni25CC" unicode="&#x25cc;" 
 />
    <glyph glyph-name="uni25CD" unicode="&#x25cd;" 
 />
    <glyph glyph-name="uni25CE" unicode="&#x25ce;" 
d="M304 322q6 79 69.5 137.5t149.5 58.5q88 0 142 -59t47 -142q-7 -79 -70 -137t-149 -58q-88 0 -142.5 59t-46.5 141zM348 320q-6 -65 35.5 -110t109.5 -45q66 0 117.5 45t56.5 110q7 64 -35 109.5t-109 45.5t-118 -45.5t-57 -109.5zM193 322q11 124 109.5 212t230.5 88
q129 0 215 -90t75 -215q-11 -124 -109.5 -211.5t-231.5 -87.5q-129 0 -215 89.5t-74 214.5zM237 320q-11 -106 62.5 -182.5t182.5 -76.5q113 0 199.5 76.5t97.5 182.5q10 105 -63.5 181.5t-182.5 76.5q-113 0 -199.5 -76.5t-96.5 -181.5z" />
    <glyph glyph-name="H18533" unicode="&#x25cf;" 
d="M208 320q11 124 107 212t220 88t204 -88t69 -212t-107 -212t-220 -88t-204 88t-69 212z" />
    <glyph glyph-name="uni25D0" unicode="&#x25d0;" 
 />
    <glyph glyph-name="uni25D1" unicode="&#x25d1;" 
 />
    <glyph glyph-name="uni25D2" unicode="&#x25d2;" 
 />
    <glyph glyph-name="uni25D3" unicode="&#x25d3;" 
 />
    <glyph glyph-name="uni25D4" unicode="&#x25d4;" 
 />
    <glyph glyph-name="uni25D5" unicode="&#x25d5;" 
 />
    <glyph glyph-name="uni25D6" unicode="&#x25d6;" 
 />
    <glyph glyph-name="uni25D7" unicode="&#x25d7;" 
 />
    <glyph glyph-name="invbullet" unicode="&#x25d8;" 
 />
    <glyph glyph-name="invcircle" unicode="&#x25d9;" 
 />
    <glyph glyph-name="uni25DA" unicode="&#x25da;" 
 />
    <glyph glyph-name="uni25DB" unicode="&#x25db;" 
 />
    <glyph glyph-name="uni25DC" unicode="&#x25dc;" 
 />
    <glyph glyph-name="uni25DD" unicode="&#x25dd;" 
 />
    <glyph glyph-name="uni25DE" unicode="&#x25de;" 
 />
    <glyph glyph-name="uni25DF" unicode="&#x25df;" 
 />
    <glyph glyph-name="uni25E0" unicode="&#x25e0;" 
 />
    <glyph glyph-name="uni25E1" unicode="&#x25e1;" 
 />
    <glyph glyph-name="uni25E2" unicode="&#x25e2;" 
 />
    <glyph glyph-name="uni25E3" unicode="&#x25e3;" 
 />
    <glyph glyph-name="uni25E4" unicode="&#x25e4;" 
 />
    <glyph glyph-name="uni25E5" unicode="&#x25e5;" 
 />
    <glyph glyph-name="openbullet" unicode="&#x25e6;" 
 />
    <glyph glyph-name="uni25E7" unicode="&#x25e7;" 
 />
    <glyph glyph-name="uni25E8" unicode="&#x25e8;" 
 />
    <glyph glyph-name="uni25E9" unicode="&#x25e9;" 
 />
    <glyph glyph-name="uni25EA" unicode="&#x25ea;" 
 />
    <glyph glyph-name="uni25EB" unicode="&#x25eb;" 
 />
    <glyph glyph-name="uni25EC" unicode="&#x25ec;" 
 />
    <glyph glyph-name="uni25ED" unicode="&#x25ed;" 
 />
    <glyph glyph-name="uni25EE" unicode="&#x25ee;" 
 />
    <glyph glyph-name="uni25EF" unicode="&#x25ef;" 
d="M105 212q14 164 140.5 281t289.5 117q164 0 269.5 -117.5t90.5 -280.5q-14 -164 -140.5 -281t-289.5 -117q-164 0 -269.5 117.5t-90.5 280.5zM185 212q-11 -132 72.5 -223.5t213.5 -91.5t231 92t113 223q12 132 -72 224.5t-214 92.5t-231 -93t-113 -224z" />
    <glyph glyph-name="uni2600" unicode="&#x2600;" 
 />
    <glyph glyph-name="uni2601" unicode="&#x2601;" 
 />
    <glyph glyph-name="uni2602" unicode="&#x2602;" 
 />
    <glyph glyph-name="uni2603" unicode="&#x2603;" 
 />
    <glyph glyph-name="uni2604" unicode="&#x2604;" 
 />
    <glyph glyph-name="uni2605" unicode="&#x2605;" 
d="M535 624l61 -212h276l-231 -152l74 -256l-219 162l-246 -162l116 256l-205 152h276z" />
    <glyph glyph-name="uni2606" unicode="&#x2606;" 
d="M537 631l65 -213h305l-257 -157l85 -255l-238 161l-273 -154l125 251l-223 154h306zM527 495l-63 -126h-176l132 -81l-80 -162l158 101l142 -93l-44 154l147 81h-181z" />
    <glyph glyph-name="uni2607" unicode="&#x2607;" 
 />
    <glyph glyph-name="uni2608" unicode="&#x2608;" 
 />
    <glyph glyph-name="uni2609" unicode="&#x2609;" 
 />
    <glyph glyph-name="uni260A" unicode="&#x260a;" 
 />
    <glyph glyph-name="uni260B" unicode="&#x260b;" 
 />
    <glyph glyph-name="uni260C" unicode="&#x260c;" 
 />
    <glyph glyph-name="uni260D" unicode="&#x260d;" 
 />
    <glyph glyph-name="uni260E" unicode="&#x260e;" 
 />
    <glyph glyph-name="uni260F" unicode="&#x260f;" 
 />
    <glyph glyph-name="uni2610" unicode="&#x2610;" 
 />
    <glyph glyph-name="uni2611" unicode="&#x2611;" 
 />
    <glyph glyph-name="uni2612" unicode="&#x2612;" 
 />
    <glyph glyph-name="uni2613" unicode="&#x2613;" 
 />
    <glyph glyph-name="uni261A" unicode="&#x261a;" 
 />
    <glyph glyph-name="uni261B" unicode="&#x261b;" 
 />
    <glyph glyph-name="uni261C" unicode="&#x261c;" 
 />
    <glyph glyph-name="uni261D" unicode="&#x261d;" 
 />
    <glyph glyph-name="uni261E" unicode="&#x261e;" 
 />
    <glyph glyph-name="uni261F" unicode="&#x261f;" 
 />
    <glyph glyph-name="uni2620" unicode="&#x2620;" 
 />
    <glyph glyph-name="uni2621" unicode="&#x2621;" 
 />
    <glyph glyph-name="uni2622" unicode="&#x2622;" 
 />
    <glyph glyph-name="uni2623" unicode="&#x2623;" 
 />
    <glyph glyph-name="uni2624" unicode="&#x2624;" 
 />
    <glyph glyph-name="uni2625" unicode="&#x2625;" 
 />
    <glyph glyph-name="uni2626" unicode="&#x2626;" 
 />
    <glyph glyph-name="uni2627" unicode="&#x2627;" 
 />
    <glyph glyph-name="uni2628" unicode="&#x2628;" 
 />
    <glyph glyph-name="uni2629" unicode="&#x2629;" 
 />
    <glyph glyph-name="uni262A" unicode="&#x262a;" 
 />
    <glyph glyph-name="uni262B" unicode="&#x262b;" 
 />
    <glyph glyph-name="uni262C" unicode="&#x262c;" 
 />
    <glyph glyph-name="uni262D" unicode="&#x262d;" 
 />
    <glyph glyph-name="uni262E" unicode="&#x262e;" 
 />
    <glyph glyph-name="uni262F" unicode="&#x262f;" 
 />
    <glyph glyph-name="uni2630" unicode="&#x2630;" 
 />
    <glyph glyph-name="uni2631" unicode="&#x2631;" 
 />
    <glyph glyph-name="uni2632" unicode="&#x2632;" 
 />
    <glyph glyph-name="uni2633" unicode="&#x2633;" 
 />
    <glyph glyph-name="uni2634" unicode="&#x2634;" 
 />
    <glyph glyph-name="uni2635" unicode="&#x2635;" 
 />
    <glyph glyph-name="uni2636" unicode="&#x2636;" 
 />
    <glyph glyph-name="uni2637" unicode="&#x2637;" 
 />
    <glyph glyph-name="uni2638" unicode="&#x2638;" 
 />
    <glyph glyph-name="uni2639" unicode="&#x2639;" 
 />
    <glyph glyph-name="smileface" unicode="&#x263a;" 
 />
    <glyph glyph-name="invsmileface" unicode="&#x263b;" 
 />
    <glyph glyph-name="sun" unicode="&#x263c;" 
 />
    <glyph glyph-name="uni263D" unicode="&#x263d;" 
 />
    <glyph glyph-name="uni263E" unicode="&#x263e;" 
 />
    <glyph glyph-name="uni263F" unicode="&#x263f;" 
 />
    <glyph glyph-name="female" unicode="&#x2640;" 
d="M204 304l-21 156l48 148h30h170h204h174h26l20 -148l-47 -156h-23h-175l-10 -112h238l-5 -60h-238l-10 -112h-208l10 112h-234l5 60h234l10 112h-165h-33zM396 364h230l29 96l-12 88h-231l-29 -88z" />
    <glyph glyph-name="uni2641" unicode="&#x2641;" 
 />
    <glyph glyph-name="male" unicode="&#x2642;" 
d="M72 20l-18 168l47 169h12h188h108h75l234 204h-244l5 60h332h36h132l-28 -313h-168l15 162l-184 -160l12 -122l-46 -168h-11h-189h-108h-187h-13zM266 80h130l30 108l-11 109h-131l-30 -109z" />
    <glyph glyph-name="uni2643" unicode="&#x2643;" 
 />
    <glyph glyph-name="uni2644" unicode="&#x2644;" 
 />
    <glyph glyph-name="uni2645" unicode="&#x2645;" 
 />
    <glyph glyph-name="uni2646" unicode="&#x2646;" 
 />
    <glyph glyph-name="uni2647" unicode="&#x2647;" 
 />
    <glyph glyph-name="uni2648" unicode="&#x2648;" 
 />
    <glyph glyph-name="uni2649" unicode="&#x2649;" 
 />
    <glyph glyph-name="uni264A" unicode="&#x264a;" 
 />
    <glyph glyph-name="uni264B" unicode="&#x264b;" 
 />
    <glyph glyph-name="uni264C" unicode="&#x264c;" 
 />
    <glyph glyph-name="uni264D" unicode="&#x264d;" 
 />
    <glyph glyph-name="uni264E" unicode="&#x264e;" 
 />
    <glyph glyph-name="uni264F" unicode="&#x264f;" 
 />
    <glyph glyph-name="uni2650" unicode="&#x2650;" 
 />
    <glyph glyph-name="uni2651" unicode="&#x2651;" 
 />
    <glyph glyph-name="uni2652" unicode="&#x2652;" 
 />
    <glyph glyph-name="uni2653" unicode="&#x2653;" 
 />
    <glyph glyph-name="uni2654" unicode="&#x2654;" 
 />
    <glyph glyph-name="uni2655" unicode="&#x2655;" 
 />
    <glyph glyph-name="uni2656" unicode="&#x2656;" 
 />
    <glyph glyph-name="uni2657" unicode="&#x2657;" 
 />
    <glyph glyph-name="uni2658" unicode="&#x2658;" 
 />
    <glyph glyph-name="uni2659" unicode="&#x2659;" 
 />
    <glyph glyph-name="uni265A" unicode="&#x265a;" 
 />
    <glyph glyph-name="uni265B" unicode="&#x265b;" 
 />
    <glyph glyph-name="uni265C" unicode="&#x265c;" 
 />
    <glyph glyph-name="uni265D" unicode="&#x265d;" 
 />
    <glyph glyph-name="uni265E" unicode="&#x265e;" 
 />
    <glyph glyph-name="uni265F" unicode="&#x265f;" 
 />
    <glyph glyph-name="spade" unicode="&#x2660;" 
 />
    <glyph glyph-name="uni2661" unicode="&#x2661;" 
 />
    <glyph glyph-name="uni2662" unicode="&#x2662;" 
 />
    <glyph glyph-name="club" unicode="&#x2663;" 
 />
    <glyph glyph-name="uni2664" unicode="&#x2664;" 
 />
    <glyph glyph-name="heart" unicode="&#x2665;" 
 />
    <glyph glyph-name="diamond" unicode="&#x2666;" 
 />
    <glyph glyph-name="uni2667" unicode="&#x2667;" 
 />
    <glyph glyph-name="uni2668" unicode="&#x2668;" 
 />
    <glyph glyph-name="uni2669" unicode="&#x2669;" 
 />
    <glyph glyph-name="musicalnote" unicode="&#x266a;" horiz-adv-x="672" 
d="M32 20l20 224h225l35 392l331 -28l-14 -156l-220 19l-20 -227l-20 -224h-337z" />
    <glyph glyph-name="musicalnotedbl" unicode="&#x266b;" 
 />
    <glyph glyph-name="uni266C" unicode="&#x266c;" 
 />
    <glyph glyph-name="uni266D" unicode="&#x266d;" horiz-adv-x="360" 
d="M85 620h72l-18 -200h71h113h15l-22 -260l-279 -80zM116 161l74 21l15 178h-71z" />
    <glyph glyph-name="uni266E" unicode="&#x266e;" 
 />
    <glyph glyph-name="uni266F" unicode="&#x266f;" horiz-adv-x="464" 
d="M101 64l11 124l-65 -8l9 108l66 8l9 108l-66 -8l10 108l66 8l8 92h72l-7 -84l95 12l8 88h72l-7 -80l64 8l-9 -108l-65 -8l-9 -108l64 8l-8 -108l-66 -8l-12 -136h-72l11 128l-95 -12l-12 -132h-72zM194 304l96 12l10 108l-96 -12z" />
    <glyph glyph-name="uni2701" unicode="&#x2701;" 
 />
    <glyph glyph-name="uni2702" unicode="&#x2702;" 
 />
    <glyph glyph-name="uni2703" unicode="&#x2703;" 
 />
    <glyph glyph-name="uni2704" unicode="&#x2704;" 
 />
    <glyph glyph-name="uni2706" unicode="&#x2706;" 
 />
    <glyph glyph-name="uni2707" unicode="&#x2707;" 
 />
    <glyph glyph-name="uni2708" unicode="&#x2708;" 
 />
    <glyph glyph-name="uni2709" unicode="&#x2709;" 
 />
    <glyph glyph-name="uni270C" unicode="&#x270c;" 
 />
    <glyph glyph-name="uni270D" unicode="&#x270d;" 
 />
    <glyph glyph-name="uni270E" unicode="&#x270e;" 
 />
    <glyph glyph-name="uni270F" unicode="&#x270f;" 
 />
    <glyph glyph-name="uni2710" unicode="&#x2710;" 
 />
    <glyph glyph-name="uni2711" unicode="&#x2711;" 
 />
    <glyph glyph-name="uni2712" unicode="&#x2712;" 
 />
    <glyph glyph-name="uni2713" unicode="&#x2713;" 
 />
    <glyph glyph-name="uni2714" unicode="&#x2714;" 
 />
    <glyph glyph-name="uni2715" unicode="&#x2715;" 
 />
    <glyph glyph-name="uni2716" unicode="&#x2716;" 
 />
    <glyph glyph-name="uni2717" unicode="&#x2717;" 
 />
    <glyph glyph-name="uni2718" unicode="&#x2718;" 
 />
    <glyph glyph-name="uni2719" unicode="&#x2719;" 
 />
    <glyph glyph-name="uni271A" unicode="&#x271a;" 
 />
    <glyph glyph-name="uni271B" unicode="&#x271b;" 
 />
    <glyph glyph-name="uni271C" unicode="&#x271c;" 
 />
    <glyph glyph-name="uni271D" unicode="&#x271d;" 
 />
    <glyph glyph-name="uni271E" unicode="&#x271e;" 
 />
    <glyph glyph-name="uni271F" unicode="&#x271f;" 
 />
    <glyph glyph-name="uni2720" unicode="&#x2720;" 
 />
    <glyph glyph-name="uni2721" unicode="&#x2721;" 
 />
    <glyph glyph-name="uni2722" unicode="&#x2722;" 
 />
    <glyph glyph-name="uni2723" unicode="&#x2723;" 
 />
    <glyph glyph-name="uni2724" unicode="&#x2724;" 
 />
    <glyph glyph-name="uni2725" unicode="&#x2725;" 
 />
    <glyph glyph-name="uni2726" unicode="&#x2726;" 
 />
    <glyph glyph-name="uni2727" unicode="&#x2727;" 
 />
    <glyph glyph-name="uni2729" unicode="&#x2729;" 
 />
    <glyph glyph-name="uni272A" unicode="&#x272a;" 
 />
    <glyph glyph-name="uni272B" unicode="&#x272b;" 
 />
    <glyph glyph-name="uni272C" unicode="&#x272c;" 
 />
    <glyph glyph-name="uni272D" unicode="&#x272d;" 
 />
    <glyph glyph-name="uni272E" unicode="&#x272e;" 
 />
    <glyph glyph-name="uni272F" unicode="&#x272f;" 
 />
    <glyph glyph-name="uni2730" unicode="&#x2730;" 
 />
    <glyph glyph-name="uni2731" unicode="&#x2731;" 
 />
    <glyph glyph-name="uni2732" unicode="&#x2732;" 
 />
    <glyph glyph-name="uni2733" unicode="&#x2733;" 
 />
    <glyph glyph-name="uni2734" unicode="&#x2734;" 
 />
    <glyph glyph-name="uni2735" unicode="&#x2735;" 
 />
    <glyph glyph-name="uni2736" unicode="&#x2736;" 
 />
    <glyph glyph-name="uni2737" unicode="&#x2737;" 
 />
    <glyph glyph-name="uni2738" unicode="&#x2738;" 
 />
    <glyph glyph-name="uni2739" unicode="&#x2739;" 
 />
    <glyph glyph-name="uni273A" unicode="&#x273a;" 
 />
    <glyph glyph-name="uni273B" unicode="&#x273b;" 
 />
    <glyph glyph-name="uni273C" unicode="&#x273c;" 
 />
    <glyph glyph-name="uni273D" unicode="&#x273d;" 
 />
    <glyph glyph-name="uni273E" unicode="&#x273e;" 
 />
    <glyph glyph-name="uni273F" unicode="&#x273f;" 
 />
    <glyph glyph-name="uni2740" unicode="&#x2740;" 
 />
    <glyph glyph-name="uni2741" unicode="&#x2741;" 
 />
    <glyph glyph-name="uni2742" unicode="&#x2742;" 
 />
    <glyph glyph-name="uni2743" unicode="&#x2743;" 
 />
    <glyph glyph-name="uni2744" unicode="&#x2744;" 
 />
    <glyph glyph-name="uni2745" unicode="&#x2745;" 
 />
    <glyph glyph-name="uni2746" unicode="&#x2746;" 
 />
    <glyph glyph-name="uni2747" unicode="&#x2747;" 
 />
    <glyph glyph-name="uni2748" unicode="&#x2748;" 
 />
    <glyph glyph-name="uni2749" unicode="&#x2749;" 
 />
    <glyph glyph-name="uni274A" unicode="&#x274a;" 
 />
    <glyph glyph-name="uni274B" unicode="&#x274b;" 
 />
    <glyph glyph-name="uni274D" unicode="&#x274d;" 
 />
    <glyph glyph-name="uni274F" unicode="&#x274f;" 
 />
    <glyph glyph-name="uni2750" unicode="&#x2750;" 
 />
    <glyph glyph-name="uni2751" unicode="&#x2751;" 
 />
    <glyph glyph-name="uni2752" unicode="&#x2752;" 
 />
    <glyph glyph-name="uni2756" unicode="&#x2756;" 
 />
    <glyph glyph-name="uni2758" unicode="&#x2758;" 
 />
    <glyph glyph-name="uni2759" unicode="&#x2759;" 
 />
    <glyph glyph-name="uni275A" unicode="&#x275a;" 
 />
    <glyph glyph-name="uni275B" unicode="&#x275b;" 
 />
    <glyph glyph-name="uni275C" unicode="&#x275c;" 
 />
    <glyph glyph-name="uni275D" unicode="&#x275d;" 
 />
    <glyph glyph-name="uni275E" unicode="&#x275e;" 
 />
    <glyph glyph-name="uni2761" unicode="&#x2761;" 
 />
    <glyph glyph-name="uni2762" unicode="&#x2762;" 
 />
    <glyph glyph-name="uni2763" unicode="&#x2763;" 
 />
    <glyph glyph-name="uni2764" unicode="&#x2764;" 
 />
    <glyph glyph-name="uni2765" unicode="&#x2765;" 
 />
    <glyph glyph-name="uni2766" unicode="&#x2766;" 
 />
    <glyph glyph-name="uni2767" unicode="&#x2767;" 
 />
    <glyph glyph-name="uni2776" unicode="&#x2776;" 
 />
    <glyph glyph-name="uni2777" unicode="&#x2777;" 
 />
    <glyph glyph-name="uni2778" unicode="&#x2778;" 
 />
    <glyph glyph-name="uni2779" unicode="&#x2779;" 
 />
    <glyph glyph-name="uni277A" unicode="&#x277a;" 
 />
    <glyph glyph-name="uni277B" unicode="&#x277b;" 
 />
    <glyph glyph-name="uni277C" unicode="&#x277c;" 
 />
    <glyph glyph-name="uni277D" unicode="&#x277d;" 
 />
    <glyph glyph-name="uni277E" unicode="&#x277e;" 
 />
    <glyph glyph-name="uni277F" unicode="&#x277f;" 
 />
    <glyph glyph-name="uni2780" unicode="&#x2780;" 
 />
    <glyph glyph-name="uni2781" unicode="&#x2781;" 
 />
    <glyph glyph-name="uni2782" unicode="&#x2782;" 
 />
    <glyph glyph-name="uni2783" unicode="&#x2783;" 
 />
    <glyph glyph-name="uni2784" unicode="&#x2784;" 
 />
    <glyph glyph-name="uni2785" unicode="&#x2785;" 
 />
    <glyph glyph-name="uni2786" unicode="&#x2786;" 
 />
    <glyph glyph-name="uni2787" unicode="&#x2787;" 
 />
    <glyph glyph-name="uni2788" unicode="&#x2788;" 
 />
    <glyph glyph-name="uni2789" unicode="&#x2789;" 
 />
    <glyph glyph-name="uni278A" unicode="&#x278a;" 
 />
    <glyph glyph-name="uni278B" unicode="&#x278b;" 
 />
    <glyph glyph-name="uni278C" unicode="&#x278c;" 
 />
    <glyph glyph-name="uni278D" unicode="&#x278d;" 
 />
    <glyph glyph-name="uni278E" unicode="&#x278e;" 
 />
    <glyph glyph-name="uni278F" unicode="&#x278f;" 
 />
    <glyph glyph-name="uni2790" unicode="&#x2790;" 
 />
    <glyph glyph-name="uni2791" unicode="&#x2791;" 
 />
    <glyph glyph-name="uni2792" unicode="&#x2792;" 
 />
    <glyph glyph-name="uni2793" unicode="&#x2793;" 
 />
    <glyph glyph-name="uni2794" unicode="&#x2794;" 
 />
    <glyph glyph-name="uni2798" unicode="&#x2798;" 
 />
    <glyph glyph-name="uni2799" unicode="&#x2799;" 
 />
    <glyph glyph-name="uni279A" unicode="&#x279a;" 
 />
    <glyph glyph-name="uni279B" unicode="&#x279b;" 
 />
    <glyph glyph-name="uni279C" unicode="&#x279c;" 
 />
    <glyph glyph-name="uni279D" unicode="&#x279d;" 
 />
    <glyph glyph-name="uni279E" unicode="&#x279e;" 
 />
    <glyph glyph-name="uni279F" unicode="&#x279f;" 
 />
    <glyph glyph-name="uni27A0" unicode="&#x27a0;" 
 />
    <glyph glyph-name="uni27A1" unicode="&#x27a1;" 
 />
    <glyph glyph-name="uni27A2" unicode="&#x27a2;" 
 />
    <glyph glyph-name="uni27A3" unicode="&#x27a3;" 
 />
    <glyph glyph-name="uni27A4" unicode="&#x27a4;" 
 />
    <glyph glyph-name="uni27A5" unicode="&#x27a5;" 
 />
    <glyph glyph-name="uni27A6" unicode="&#x27a6;" 
 />
    <glyph glyph-name="uni27A7" unicode="&#x27a7;" 
 />
    <glyph glyph-name="uni27A8" unicode="&#x27a8;" 
 />
    <glyph glyph-name="uni27A9" unicode="&#x27a9;" 
 />
    <glyph glyph-name="uni27AA" unicode="&#x27aa;" 
 />
    <glyph glyph-name="uni27AB" unicode="&#x27ab;" 
 />
    <glyph glyph-name="uni27AC" unicode="&#x27ac;" 
 />
    <glyph glyph-name="uni27AD" unicode="&#x27ad;" 
 />
    <glyph glyph-name="uni27AE" unicode="&#x27ae;" 
 />
    <glyph glyph-name="uni27AF" unicode="&#x27af;" 
 />
    <glyph glyph-name="uni27B1" unicode="&#x27b1;" 
 />
    <glyph glyph-name="uni27B2" unicode="&#x27b2;" 
 />
    <glyph glyph-name="uni27B3" unicode="&#x27b3;" 
 />
    <glyph glyph-name="uni27B4" unicode="&#x27b4;" 
 />
    <glyph glyph-name="uni27B5" unicode="&#x27b5;" 
 />
    <glyph glyph-name="uni27B6" unicode="&#x27b6;" 
 />
    <glyph glyph-name="uni27B7" unicode="&#x27b7;" 
 />
    <glyph glyph-name="uni27B8" unicode="&#x27b8;" 
 />
    <glyph glyph-name="uni27B9" unicode="&#x27b9;" 
 />
    <glyph glyph-name="uni27BA" unicode="&#x27ba;" 
 />
    <glyph glyph-name="uni27BB" unicode="&#x27bb;" 
 />
    <glyph glyph-name="uni27BC" unicode="&#x27bc;" 
 />
    <glyph glyph-name="uni27BD" unicode="&#x27bd;" 
 />
    <glyph glyph-name="uni27BE" unicode="&#x27be;" 
 />
    <glyph glyph-name="uni3000" unicode="&#x3000;" 
 />
    <glyph glyph-name="uni3001" unicode="&#x3001;" 
d="M257 20l-157 228h192l157 -228h-192z" />
    <glyph glyph-name="uni3002" unicode="&#x3002;" 
d="M33 20l19 228h9h151h128h141h19l-19 -228h-13h-147h-128h-145h-15zM198 80h128l9 108h-128z" />
    <glyph glyph-name="uni3003" unicode="&#x3003;" 
d="M213 80l75 440h192l-107 -440h-160zM517 80l75 440h192l-107 -440h-160z" />
    <glyph glyph-name="uni3004" unicode="&#x3004;" 
 />
    <glyph glyph-name="uni3005" unicode="&#x3005;" 
d="M63 272l169 289h224h252h224l-214 -414l157 -19l-6 -76l-670 80l6 76l302 -36l170 329h-256l-134 -229h-224z" />
    <glyph glyph-name="uni3006" unicode="&#x3006;" 
d="M621 80l-129 132l-219 -192h-32h-176l43 300h176l-18 -123l130 114l-204 209h240l93 -96l219 192h208l-331 -290l240 -246h-240z" />
    <glyph glyph-name="uni3007" unicode="&#x3007;" 
d="M742 236l16 179l-66 140h-329l-91 -140l-16 -179l66 -140h329zM872 615l94 -200l-16 -179l-130 -200h-162h-46h-262h-101h-107l-94 200l16 179l130 200h106h102h262h172h36z" />
    <glyph glyph-name="uni3008" unicode="&#x3008;" horiz-adv-x="448" 
d="M208 20l-147 300l198 293h160l-198 -293l147 -300h-160z" />
    <glyph glyph-name="uni3009" unicode="&#x3009;" horiz-adv-x="448" 
d="M248 613l147 -292l-198 -301h-160l198 301l-147 292h160z" />
    <glyph glyph-name="uni300A" unicode="&#x300a;" horiz-adv-x="525" 
d="M136 20l-67 300l118 293h128l-118 -293l67 -300h-128zM328 20l-67 300l118 293h128l-118 -293l67 -300h-128z" />
    <glyph glyph-name="uni300B" unicode="&#x300b;" horiz-adv-x="525" 
d="M412 613l67 -292l-118 -301h-128l118 301l-67 292h128zM220 613l67 -292l-118 -301h-128l118 301l-67 292h128z" />
    <glyph glyph-name="uni300C" unicode="&#x300c;" 
d="M616 260l32 360h32h192h113l-5 -60h-113l-27 -300h-224z" />
    <glyph glyph-name="uni300D" unicode="&#x300d;" 
d="M176 380h224l-32 -360h-30h-194h-111l5 60h111z" />
    <glyph glyph-name="uni300E" unicode="&#x300e;" 
d="M717 500h31h82l6 60h-274l-32 -360h160zM829 140h-17h-127h-160h-98h-46l42 480h48h96h274h32h112l-16 -180h-97h-16z" />
    <glyph glyph-name="uni300F" unicode="&#x300f;" 
d="M301 140h-31h-84l-6 -60h275l32 360h-159zM189 500h17h127h159h98h46l-42 -480h-48h-96h-275h-32h-112l16 180h99h16z" />
    <glyph glyph-name="uni3010" unicode="&#x3010;" horiz-adv-x="448" 
d="M30 4l56 632h337l-131 -91l-40 -450l120 -91h-342z" />
    <glyph glyph-name="uni3011" unicode="&#x3011;" horiz-adv-x="448" 
d="M422 636l-54 -632h-337l131 91l38 450l-120 91h342z" />
    <glyph glyph-name="uni3012" unicode="&#x3012;" horiz-adv-x="861" 
d="M95 500l5 60h700l-5 -60h-700zM80 332l5 60h700l-5 -60h-263l-25 -296h-176l25 296h-261z" />
    <glyph glyph-name="uni3013" unicode="&#x3013;" 
d="M176 384l17 204h675l-17 -204h-675zM149 72l17 204h675l-17 -204h-675z" />
    <glyph glyph-name="uni3014" unicode="&#x3014;" horiz-adv-x="448" 
d="M180 4l-144 67l44 506l146 59h192l-146 -59l-44 -506l144 -67h-192z" />
    <glyph glyph-name="uni3015" unicode="&#x3015;" horiz-adv-x="448" 
d="M274 636l144 -67l-44 -506l-146 -59h-192l146 59l44 506l-144 67h192z" />
    <glyph glyph-name="uni3016" unicode="&#x3016;" 
 />
    <glyph glyph-name="uni3017" unicode="&#x3017;" 
 />
    <glyph glyph-name="uni3018" unicode="&#x3018;" 
 />
    <glyph glyph-name="uni3019" unicode="&#x3019;" 
 />
    <glyph glyph-name="uni301A" unicode="&#x301a;" 
 />
    <glyph glyph-name="uni301B" unicode="&#x301b;" 
 />
    <glyph glyph-name="uni301C" unicode="&#x301c;" 
d="M82 228l10 124l230 84l378 -108l230 68l-10 -124l-230 -68l-378 108z" />
    <glyph glyph-name="uni301D" unicode="&#x301d;" 
 />
    <glyph glyph-name="uni301E" unicode="&#x301e;" 
 />
    <glyph glyph-name="uni301F" unicode="&#x301f;" 
 />
    <glyph glyph-name="uni3020" unicode="&#x3020;" 
 />
    <glyph glyph-name="uni3030" unicode="&#x3030;" 
 />
    <glyph glyph-name="uni3031" unicode="&#x3031;" 
 />
    <glyph glyph-name="uni3032" unicode="&#x3032;" 
 />
    <glyph glyph-name="uni3033" unicode="&#x3033;" 
 />
    <glyph glyph-name="uni3034" unicode="&#x3034;" 
 />
    <glyph glyph-name="uni3035" unicode="&#x3035;" 
 />
    <glyph glyph-name="uni3036" unicode="&#x3036;" 
 />
    <glyph glyph-name="uni3037" unicode="&#x3037;" 
 />
    <glyph glyph-name="uni3041" unicode="&#x3041;" 
d="M137 404l5 59h253l4 47h204l-4 -47h300l-5 -59h-300l-7 -78h300l-26 -306h-188l7 77l-575 -77l27 306h252l6 78h-253zM379 267h-80l-13 -153l81 11zM572 153l114 15l8 99h-112z" />
    <glyph glyph-name="uni3042" unicode="&#x3042;" 
d="M107 502l5 59h276l4 47h220l-4 -47h339l-5 -59h-339l-10 -114h339l-32 -368h-220l12 132l-626 -132l32 368h275l10 114h-276zM369 330h-88l-17 -199l89 19zM576 197l122 25l10 108h-120z" />
    <glyph glyph-name="uni3043" unicode="&#x3043;" 
d="M128 20l41 458h188l-36 -400h112l-5 -58h-300zM670 63l17 386h188l-17 -386h-188z" />
    <glyph glyph-name="uni3044" unicode="&#x3044;" 
d="M69 20l49 564h211l-44 -505h105l-5 -59h-316zM681 79l26 476h211l-25 -476h-212z" />
    <glyph glyph-name="uni3045" unicode="&#x3045;" 
d="M233 451l5 59l582 -16l-5 -58zM135 298l5 59h749l-30 -337h-609l5 59h389l21 219h-530z" />
    <glyph glyph-name="uni3046" unicode="&#x3046;" 
d="M197 549l5 59l661 -16l-5 -58zM96 361l4 59h829l-37 -400h-734l5 59h515l26 282h-608z" />
    <glyph glyph-name="uni3047" unicode="&#x3047;" 
d="M148 302l5 59h643l-172 -121h143l-14 -161h144l-5 -59h-317l15 161h-49l-229 -161h-236l400 282h-328zM232 451l5 59l598 -16l-5 -58z" />
    <glyph glyph-name="uni3048" unicode="&#x3048;" 
d="M197 549l5 59l660 -16l-5 -58zM138 404l5 59h674l-210 -173h198l-20 -211h143l-5 -59h-363l20 212h-43l-257 -212h-235l465 384h-372z" />
    <glyph glyph-name="uni3049" unicode="&#x3049;" 
d="M136 393l4 59h249l5 58h188l-5 -58h153l-1 42h173l2 -164h-173l-1 63h-158l-9 -103h319l-21 -270h-181l17 212h-139l-19 -212h-435l26 270h245l9 103h-248zM356 79l14 153h-81l-15 -153h82z" />
    <glyph glyph-name="uni304A" unicode="&#x304a;" 
d="M104 460l5 59h269l8 89h204l-8 -89h169l2 73h172l-6 -211h-172l2 79h-172l-10 -122h335l-30 -318h-180l24 259h-155l-22 -259h-466l29 318h261l10 122h-269zM340 79l17 200h-80l-19 -200h82z" />
    <glyph glyph-name="uni304B" unicode="&#x304b;" 
d="M84 476l4 59h151l23 74h204l-23 -74h321l-44 -515h-204l39 456h-131l-143 -456h-204l143 456h-136zM804 94l-3 468h126l3 -468h-126z" />
    <glyph glyph-name="uni304C" unicode="&#x304c;" 
d="M84 476l5 59h150l23 74h204l-23 -74h321l-44 -515h-204l39 456h-131l-143 -456h-204l143 456h-136zM804 94l-2 416h45l9 98h43l-8 -98h31l9 98h43l-9 -98h-37l3 -416h-127z" />
    <glyph glyph-name="uni304D" unicode="&#x304d;" 
d="M116 518l5 59h407l-6 31h220l6 -31h208l-5 -59h-193l16 -86h171l-5 -59h-155l28 -153h-471l-11 -141h516l-5 -59h-735l20 259h456l-17 94h-461l5 59h445l-16 86h-423z" />
    <glyph glyph-name="uni304E" unicode="&#x304e;" 
d="M117 518l5 59h406l-6 31h220l6 -31h73l-5 -59h-58l16 -86h171l-5 -59h-155l28 -153h-471l-11 -141h516l-5 -59h-735l20 259h456l-17 94h-461l5 59h445l-16 86h-422zM965 510h-43l9 98h43zM891 510h-43l9 98h43z" />
    <glyph glyph-name="uni304F" unicode="&#x304f;" 
d="M897 20h-310l-486 318l596 270h262l-579 -267z" />
    <glyph glyph-name="uni3050" unicode="&#x3050;" 
d="M965 510h-43l9 98h43zM891 510h-43l8 98h44zM881 20h-294l-486 318l596 270h126l-5 -59l-445 -204z" />
    <glyph glyph-name="uni3051" unicode="&#x3051;" 
d="M64 79l44 505h204l-44 -505h-204zM623 20l52 456h-265l5 59h267l8 73h204l-8 -73h82l-5 -59h-84l-52 -456h-204z" />
    <glyph glyph-name="uni3052" unicode="&#x3052;" 
d="M64 79l44 505h204l-44 -505h-204zM623 20l53 456h-266l5 59h268l8 73h131l-8 -98h33l9 98h43l-9 -98h32l9 98h43l-9 -98h1l-3 -34h-83l-53 -456h-204z" />
    <glyph glyph-name="uni3053" unicode="&#x3053;" 
d="M138 510l5 58h757l-5 -58h-757zM885 78l-5 -58h-808l13 147h220l-8 -89h588z" />
    <glyph glyph-name="uni3054" unicode="&#x3054;" 
d="M139 510l5 59h678l-5 -59h-678zM965 510h-43l9 98h43zM891 510h-44l9 98h43zM886 79l-5 -59h-808l13 147h219l-7 -88h588z" />
    <glyph glyph-name="uni3055" unicode="&#x3055;" 
d="M84 506l5 59h486l-6 43h220l6 -43h176l-5 -59h-162l33 -223h-503l-19 -204h484l-4 -59h-704l28 321h489l-24 165h-500z" />
    <glyph glyph-name="uni3056" unicode="&#x3056;" 
d="M84 506l5 59h486l-6 43h220l6 -43h24l-5 -59h-10l33 -223h-503l-19 -204h484l-4 -59h-704l28 321h489l-24 165h-500zM965 510h-43l9 98h43zM891 510h-43l8 98h43z" />
    <glyph glyph-name="uni3057" unicode="&#x3057;" 
d="M127 20l51 588h220l-46 -529h505l-5 -59h-725z" />
    <glyph glyph-name="uni3058" unicode="&#x3058;" 
d="M129 20l51 588h219l-46 -529h505l-5 -59h-724zM966 510h-44l9 98h43zM891 510h-43l9 98h43z" />
    <glyph glyph-name="uni3059" unicode="&#x3059;" 
d="M105 505l5 59h485l4 46h203l-4 -46h154l-5 -59h-154l-30 -336l-31 -149h-204l31 149h-411l20 239h413l8 97h-484zM575 349h-208l-10 -121h207z" />
    <glyph glyph-name="uni305A" unicode="&#x305a;" 
d="M105 505l5 59h485l4 46h204l-4 -46h20l-5 -59h-21l-30 -336l-31 -149h-204l32 149h-412l21 239h412l9 97h-485zM965 512h-43l9 98h43zM891 512h-43l9 98h43zM576 349h-209l-10 -121h208z" />
    <glyph glyph-name="uni305B" unicode="&#x305b;" 
d="M595 165l30 263h-234l-31 -349h490l-5 -59h-693l4 59h1l31 349h-107l5 58h107l9 106h204l-9 -106h234l14 122h204l-14 -122h125l-5 -58h-126l-30 -263h-204z" />
    <glyph glyph-name="uni305C" unicode="&#x305c;" 
d="M596 165l30 263h-234l-31 -349h489l-4 -59h-694l5 59l31 349h-107l5 58h108l9 106h203l-9 -106h235l14 122h177l-8 -98h23l-3 -24h125l-5 -58h-126l-30 -263h-203zM965 510h-43l9 98h43zM891 510h-44l9 98h43z" />
    <glyph glyph-name="uni305D" unicode="&#x305d;" 
d="M81 353l5 59h258l183 137h-317l5 59h623l-4 -59h-72l-183 -137h373l-5 -59h-193l-316 -256l349 -18l-4 -59l-597 31l5 59l303 243h-413z" />
    <glyph glyph-name="uni305E" unicode="&#x305e;" 
d="M81 353l5 59h258l184 137h-318l5 59h608v-4l-5 -55h-55l-183 -137h372l-5 -59h-193l-316 -256l350 -18l-5 -59l-597 31l5 59l303 243h-413zM965 510h-43l9 98h43zM891 510h-44l9 98h43z" />
    <glyph glyph-name="uni305F" unicode="&#x305f;" 
d="M100 506l5 59h75l7 43h219l-7 -43h478l-4 -59h-484l-81 -486h-219l81 486h-70zM445 51l5 59l478 -31l-4 -59zM488 330l5 58h424l-5 -58h-424z" />
    <glyph glyph-name="uni3060" unicode="&#x3060;" 
d="M101 506l5 59h74l7 43h220l-7 -43h419l-5 -59h-424l-81 -486h-220l81 486h-69zM446 51l5 59l478 -31l-5 -59zM489 330l5 58h423l-5 -58h-423zM965 510h-43l9 98h43zM891 510h-43l8 98h43z" />
    <glyph glyph-name="uni3061" unicode="&#x3061;" 
d="M84 506l5 59h180l14 43h220l-14 -43h482l-5 -59h-497l-56 -165h506l-28 -321h-728l5 59h508l18 204h-520l75 223h-165z" />
    <glyph glyph-name="uni3062" unicode="&#x3062;" 
d="M84 506l5 59h180l14 43h220l-14 -43h330l-5 -59h-345l-56 -165h506l-28 -321h-728l5 59h508l19 204h-521l75 223h-165zM965 510h-43l9 98h43zM891 510h-43l8 98h43z" />
    <glyph glyph-name="uni3063" unicode="&#x3063;" 
d="M260 20l5 58h364l29 325h-489l6 58h692l-39 -441h-568z" />
    <glyph glyph-name="uni3064" unicode="&#x3064;" 
d="M260 20l5 58h427l39 431h-615l6 58h818l-49 -547h-631z" />
    <glyph glyph-name="uni3065" unicode="&#x3065;" 
d="M261 20l5 59h426l39 430h-614l6 59h697l-5 -58h33l9 98h43l-9 -98h31l9 98h43l-9 -98h-30l-44 -490h-630z" />
    <glyph glyph-name="uni3066" unicode="&#x3066;" 
d="M93 510l5 58h866l-5 -58h-133l-415 -411l463 -21l-5 -58l-714 31l5 59l407 400h-474z" />
    <glyph glyph-name="uni3067" unicode="&#x3067;" 
d="M93 510l5 59h722l-5 -59h11l-415 -411l463 -20l-5 -59l-714 31l5 59l406 400h-473zM965 510h-43l9 98h43zM891 510h-43l8 98h44z" />
    <glyph glyph-name="uni3068" unicode="&#x3068;" 
d="M88 20l27 306h7l185 31l-104 251h220l89 -217l408 68l-5 -59l-583 -97l-19 -224h579l-5 -59h-799z" />
    <glyph glyph-name="uni3069" unicode="&#x3069;" 
d="M965 510h-43l9 98h43zM891 510h-43l8 98h43zM89 20l26 306h7l185 31l-103 251h219l90 -217l407 68l-5 -59l-582 -97l-19 -224h579l-5 -59h-799z" />
    <glyph glyph-name="uni306A" unicode="&#x306a;" 
d="M88 475l4 59h140l33 74h219l-33 -74h512l-5 -59h-533l-154 -345h-219l154 345h-118zM452 349l5 59h478l-5 -59h-73l-9 -98h95l-5 -59h-95l-16 -172h-516l19 231h315l8 98h-201zM640 192h-112l-9 -113h111z" />
    <glyph glyph-name="uni306B" unicode="&#x306b;" 
d="M77 20l50 572h220l-51 -572h-219zM418 67l5 74l479 -47l-6 -74zM468 494l4 59h439l-4 -59h-439z" />
    <glyph glyph-name="uni306C" unicode="&#x306c;" 
d="M292 130l-4 345h-16l-34 -396h164l10 51h-120zM582 20l19 221h122l21 234h-106l-91 -455h-481l5 59l41 455h176l-1 74h142l1 -74h62l15 74h157l-15 -74h280l-26 -293h39l-5 -59h-39l-14 -162h-302zM430 475l2 -243l49 243h-51zM718 182h-32l-8 -103h31z" />
    <glyph glyph-name="uni306D" unicode="&#x306d;" 
d="M151 20l17 187l-112 -20l5 58l112 21l18 211h-108l5 58h109l6 73h220l-10 -118l304 45h203l-27 -294h49l-5 -59h-50l-15 -162h-431l19 221h230l20 219l-304 -44l-35 -396h-220zM674 79l10 103h-76l-9 -103h75z" />
    <glyph glyph-name="uni306E" unicode="&#x306e;" 
d="M75 20l52 560h816l-51 -560h-196l44 501h-114l-90 -501h-461zM431 521h-114l-41 -442h76z" />
    <glyph glyph-name="uni306F" unicode="&#x306f;" 
d="M371 476l5 59h288l7 73h204l-7 -73h100l-5 -59h-100l-19 -217h100l-5 -59h-101l-16 -180h-482l20 239h280l19 217h-288zM57 20l52 588h220l-52 -588h-220zM623 79l11 121h-106l-11 -121h106z" />
    <glyph glyph-name="uni3070" unicode="&#x3070;" 
d="M371 476l5 59h288l7 73h152l-9 -98h33l9 98h43l-9 -98h32l9 98h43l-9 -98l-2 -34h-99l-20 -217h100l-5 -59h-100l-17 -180h-482l20 239h280l19 217h-288zM57 20l52 588h220l-52 -588h-220zM623 79l11 121h-106l-11 -121h106z" />
    <glyph glyph-name="uni3071" unicode="&#x3071;" 
d="M965 510h-98l-23 -251h100l-5 -59h-100l-17 -180h-482l20 239h280l19 217h-288l5 59h288l7 73h152l-8 -85l-1 -13h33l9 98h118zM928 579h-32l-3 -40h32zM57 20l52 588h220l-52 -588h-220zM623 79l11 121h-106l-11 -121h106z" />
    <glyph glyph-name="uni3072" unicode="&#x3072;" 
d="M90 534l3 59h360l-101 -514h276l14 491l328 -16l-5 -59l-108 6l-11 -481h-726l101 514h-131z" />
    <glyph glyph-name="uni3073" unicode="&#x3073;" 
d="M90 535l3 58h360l-101 -514h276l14 491l177 -9l-4 -51h33l8 98h44l-9 -98h31l9 98h43l-9 -98h1l-1 -15l-107 5l-12 -480h-726l102 515h-132z" />
    <glyph glyph-name="uni3074" unicode="&#x3074;" 
d="M90 535l3 58h360l-101 -514h276l14 491l177 -9l-4 -51h33l8 98h118l-9 -98h1l-1 -15l-107 5l-12 -480h-726l102 515h-132zM928 579h-31l-3 -40h31z" />
    <glyph glyph-name="uni3075" unicode="&#x3075;" 
d="M254 549l3 59h479l-156 -220h93l-32 -368h-318l5 59h114l22 251h-129l155 219h-236zM42 20l75 294h173l-76 -294h-172zM752 20l-23 294h172l23 -294h-172z" />
    <glyph glyph-name="uni3076" unicode="&#x3076;" 
d="M254 549l3 59h479l-156 -220h94l-33 -368h-317l5 59h113l23 251h-129l155 219h-237zM43 20l75 294h172l-75 -294h-172zM752 20l-23 294h173l23 -294h-173zM965 510h-43l8 98h44zM890 510h-43l9 98h43z" />
    <glyph glyph-name="uni3077" unicode="&#x3077;" 
d="M254 549l3 59h479l-156 -220h94l-33 -368h-317l5 59h113l23 251h-129l155 219h-237zM43 20l75 294h172l-75 -294h-172zM752 20l-23 294h173l23 -294h-173zM965 510h-118l9 98h118zM927 579h-31l-3 -40h32z" />
    <glyph glyph-name="uni3078" unicode="&#x3078;" 
d="M701 20l-284 415l-155 -239h-204l255 392h227l388 -568h-227z" />
    <glyph glyph-name="uni3079" unicode="&#x3079;" 
d="M965 510h-43l9 98h43zM890 510h-43l9 98h43zM701 20l-284 415l-155 -239h-204l255 392h228l388 -568h-228z" />
    <glyph glyph-name="uni307A" unicode="&#x307a;" 
d="M965 510h-118l9 98h118zM928 579h-32l-3 -40h32zM701 20l-284 415l-155 -239h-204l255 392h228l388 -568h-228z" />
    <glyph glyph-name="uni307B" unicode="&#x307b;" 
d="M359 538l5 59h608l-5 -59h-99l-10 -109h100l-5 -59h-100l-11 -123h100l-5 -58h-100l-15 -169h-482l19 227h287l11 123h-312l5 59h312l10 109h-313zM57 20l52 588h220l-52 -588h-220zM631 79l10 110h-114l-10 -110h114z" />
    <glyph glyph-name="uni307C" unicode="&#x307c;" 
d="M359 538l5 59h458v-5l-7 -82h32l9 98h43l-9 -98h-25l-7 -81h100l-5 -59h-100l-11 -123h100l-5 -58h-100l-15 -169h-482l19 227h287l11 123h-312l5 59h312l10 109h-313zM57 20l52 588h220l-52 -588h-220zM965 510h-43l9 98h43zM631 79l10 110h-114l-10 -110h114z" />
    <glyph glyph-name="uni307D" unicode="&#x307d;" 
d="M359 538l5 59h458v-5l-7 -82h32l9 98h118l-9 -98h-100l-7 -81h100l-5 -59h-100l-11 -123h100l-5 -58h-100l-15 -169h-482l19 227h287l11 123h-312l5 59h312l10 109h-313zM57 20l52 588h220l-52 -588h-220zM928 579h-32l-3 -40h32zM631 79l10 110h-114l-10 -110h114z" />
    <glyph glyph-name="uni307E" unicode="&#x307e;" 
d="M120 503l5 59h383l4 46h204l-4 -46h225l-5 -59h-225l-8 -90h224l-5 -59h-224l-10 -111h236l-5 -58h-236l-14 -165h-561l20 223h356l10 111h-384l5 59h384l8 90h-383zM466 79l9 106h-152l-10 -106h153z" />
    <glyph glyph-name="uni307F" unicode="&#x307f;" 
d="M65 20l29 334h245l16 176h-244l5 59h448l-21 -235h129l17 157h204l-17 -157h61l-5 -59h-62l-29 -275h-204l29 275h-129l-25 -275h-447zM313 79l20 216h-75l-20 -216h75z" />
    <glyph glyph-name="uni3080" unicode="&#x3080;" 
d="M115 479l3 58h200l6 71h203l-6 -71h179l-5 -58h-179l-34 -400h415l-5 -59h-818l26 318h201l12 141h-198zM771 240l-4 348h156l5 -348h-157zM295 279h-43l-16 -200h42z" />
    <glyph glyph-name="uni3081" unicode="&#x3081;" 
d="M688 20l41 455h-28l-91 -455h-536l5 59l41 455h200l-1 74h141l1 -74h62l15 74h189l-15 -74h226l-46 -514h-204zM324 130l-4 345h-17l-34 -396h165l10 51h-120zM461 475l3 -242l48 242h-51z" />
    <glyph glyph-name="uni3082" unicode="&#x3082;" 
d="M155 20l25 286h-109l5 59h109l10 114h-108l5 58h108l6 71h219l-6 -71h418l-5 -58h-418l-10 -114h417l-5 -59h-417l-20 -227h501l-5 -59h-720z" />
    <glyph glyph-name="uni3083" unicode="&#x3083;" 
d="M202 20l-5 316l-95 -6l5 58l90 5l-2 117h188l2 -105l84 5l9 100h173l-8 -89l255 15l-38 -334h-188l32 264l-66 -4l-15 -166h-172l13 156l-79 -5l5 -327h-188z" />
    <glyph glyph-name="uni3084" unicode="&#x3084;" 
d="M187 20v414l-109 -6l5 58l104 6v116h212v-105l86 5l9 100h172l-8 -91l310 17l-38 -349h-204l32 279l-105 -5l-20 -235h-173l20 225l-81 -4v-425h-212z" />
    <glyph glyph-name="uni3085" unicode="&#x3085;" 
d="M134 142l32 369h173l-13 -149l108 20l22 129h204l-15 -89l82 15h172l-25 -295h-278l-21 -122h-204l52 301l-103 -18l-14 -161h-172zM721 373l-88 -16l-27 -157h100z" />
    <glyph glyph-name="uni3086" unicode="&#x3086;" 
d="M81 169l36 440h204l-11 -139l126 19l18 120h204l-13 -88l95 14h204l-32 -366h-319l-22 -149h-204l61 410l-123 -19l-20 -242h-204zM735 476l-99 -15l-34 -233h111z" />
    <glyph glyph-name="uni3087" unicode="&#x3087;" 
d="M120 20l18 204h309l25 286h203l-8 -89h213l-5 -59h-213l-12 -138h221l-4 -59h-222l-12 -145h-513zM434 79l8 86h-136l-9 -86h137z" />
    <glyph glyph-name="uni3088" unicode="&#x3088;" 
d="M73 20l19 223h341l32 365h211l-8 -89h252l-5 -59h-252l-19 -217h275l-5 -58h-275l-14 -165h-552zM419 79l9 106h-145l-9 -106h145z" />
    <glyph glyph-name="uni3089" unicode="&#x3089;" 
d="M307 549l5 59l502 -27l-5 -59zM116 20l5 59h532l19 204l-563 -12l22 223h227l-13 -160l559 11l-30 -325h-758z" />
    <glyph glyph-name="uni308A" unicode="&#x308a;" 
d="M634 20l94 566h212l-95 -566h-211zM107 240l33 368h212l-28 -310h87l-5 -58h-299z" />
    <glyph glyph-name="uni308B" unicode="&#x308b;" 
d="M197 533l5 59h661l-106 -204h166l-33 -368h-769l19 223h425l-14 -164h125l22 251h-598l5 58h432l75 145h-415zM394 79l9 105h-112l-8 -105h111z" />
    <glyph glyph-name="uni308C" unicode="&#x308c;" 
d="M135 20l16 185l-95 -26l6 66l95 26l18 206h-92l5 58h93l6 73h220l-12 -138l306 65h204l-43 -456h65l-5 -59h-269l40 433l-305 -61l-33 -372h-220z" />
    <glyph glyph-name="uni308D" unicode="&#x308d;" 
d="M182 541l5 59h660l-97 -227h171l-31 -353h-758l5 59h539l20 235h-598l5 59h427l73 168h-421z" />
    <glyph glyph-name="uni308E" unicode="&#x308e;" 
d="M182 20l9 100l-110 -27l6 66l110 27l15 171l-107 6l5 59l108 -6l8 94h189l-12 -138l313 65h189l-41 -417h-287l5 59h100l28 292l-313 -62l-26 -289h-189z" />
    <glyph glyph-name="uni308F" unicode="&#x308f;" 
d="M151 20l16 177l-113 -34l6 67l113 34l17 191l-108 6l4 59l109 -6l8 94h220l-12 -138l329 65h204l-48 -515h-303l5 59h99l35 375l-328 -63l-33 -371h-220z" />
    <glyph glyph-name="uni3090" unicode="&#x3090;" 
d="M65 20l29 369h217l13 141h-213l5 59h416l-18 -200h423l-5 -59h-1l-27 -310h-384l18 220h181l8 90h-219l-28 -310h-415zM282 79l23 251h-78l-20 -251h75zM714 182h-91l-8 -103h90z" />
    <glyph glyph-name="uni3091" unicode="&#x3091;" 
d="M181 533l5 59h677l-82 -117h155l-25 -294h-493l-55 -57l565 -45l-5 -59l-613 49l-47 -49h-204l155 161h-88l14 180h441l-9 -122h124l16 177h-614l5 59h459l40 58h-421zM415 239l4 63h-127l-5 -63h128z" />
    <glyph glyph-name="uni3092" unicode="&#x3092;" 
d="M132 507l5 59h221l45 42h203l-45 -42h352l-5 -59h-410l-112 -104h318l-8 -84l239 10l-5 -59l-239 -10l-9 -93h-204l8 85l-120 -5l-14 -168h516l-5 -59h-720l23 277l326 14l3 33h-376l175 163h-162z" />
    <glyph glyph-name="uni3093" unicode="&#x3093;" 
d="M77 20l156 588h220l-63 -235h406l-26 -294h158l-5 -59h-379l1 4l26 290h-196l-79 -294h-219z" />
    <glyph glyph-name="uni3094" unicode="&#x3094;" 
 />
    <glyph glyph-name="uni309B" unicode="&#x309b;" horiz-adv-x="0" 
d="M-10 520h-44l9 100h44zM-86 520h-44l9 100h44z" />
    <glyph glyph-name="uni309C" unicode="&#x309c;" horiz-adv-x="0" 
d="M-10 520h-120l9 100h120zM-48 590h-32l-3 -40h32z" />
    <glyph glyph-name="uni309D" unicode="&#x309d;" 
d="M293 80l5 60h211l-253 380h224l293 -440h-137h-87h-256z" />
    <glyph glyph-name="uni309E" unicode="&#x309e;" 
d="M293 80l5 60h211l-253 380h224l293 -440h-137h-87h-256zM907 392h-92l20 228h92zM767 392h-92l20 228h92z" />
    <glyph glyph-name="uni30A1" unicode="&#x30a1;" 
d="M696 272l16 180h-604l5 60h828l-21 -240h-224zM288 20l65 344h224l-65 -344h-224z" />
    <glyph glyph-name="uni30A2" unicode="&#x30a2;" 
d="M676 244l58 301h-642l5 60h872l-69 -361h-224zM248 20l137 451h224l-137 -451h-224z" />
    <glyph glyph-name="uni30A3" unicode="&#x30a3;" 
d="M398 20l30 345l-341 -53l7 76l848 132l-7 -76l-280 -44l-34 -380h-223z" />
    <glyph glyph-name="uni30A4" unicode="&#x30a4;" 
d="M402 20l36 427l-374 -67l7 76l912 164l-7 -76l-310 -56l-41 -468h-223z" />
    <glyph glyph-name="uni30A5" unicode="&#x30a5;" 
d="M632 20l71 372h-401l-14 -148h-216l19 208h325l6 68h208l-6 -68h307l-83 -432h-216z" />
    <glyph glyph-name="uni30A6" unicode="&#x30a6;" 
d="M640 20l81 472h-404l-17 -172h-224l23 232h317l6 68h224l-6 -68h315l-91 -532h-224z" />
    <glyph glyph-name="uni30A7" unicode="&#x30a7;" 
d="M151 440l5 60h740l-5 -60h-260l-32 -360h301l-5 -60h-827l5 60h303l31 360h-256z" />
    <glyph glyph-name="uni30A8" unicode="&#x30a8;" 
d="M143 532l5 60h772l-5 -60h-276l-40 -452h317l-5 -60h-859l5 60h319l39 452h-272z" />
    <glyph glyph-name="uni30A9" unicode="&#x30a9;" 
d="M145 384l5 60h468l7 76h224l-7 -76h80l-5 -60h-81l-34 -364h-223l33 364h-50l-224 -364h-223l223 364h-193z" />
    <glyph glyph-name="uni30AA" unicode="&#x30aa;" 
d="M103 484l5 60h532l7 76h224l-7 -76h80l-5 -60h-80l-41 -464h-223l40 464h-35l-294 -464h-223l293 464h-273z" />
    <glyph glyph-name="uni30AB" unicode="&#x30ab;" 
d="M109 488l5 60h152l25 72h224l-25 -72h459l-51 -528h-223l44 468h-250l-163 -468h-223l162 468h-136z" />
    <glyph glyph-name="uni30AC" unicode="&#x30ac;" 
d="M675 20l44 468h-250l-163 -468h-223l162 468h-136l5 60h152l25 72h224l-25 -72h332l-2 -28h34l9 100h44l-9 -100h32l9 100h44l-9 -100h-28l-48 -500h-223z" />
    <glyph glyph-name="uni30AD" unicode="&#x30ad;" 
d="M87 484l5 60h312l3 76h224l-3 -76h332l-5 -60h-329l-7 -196h325l-5 -60h-322l-7 -208h-223l7 208h-323l5 60h320l6 196h-315z" />
    <glyph glyph-name="uni30AE" unicode="&#x30ae;" 
d="M974 520h-16l-3 -36h-329l-7 -196h325l-5 -60h-322l-7 -208h-223l7 208h-323l5 60h320l6 196h-315l5 60h312l3 76h224l-3 -76h194l-2 -24h34l9 100h44l-9 -100h32l9 100h44z" />
    <glyph glyph-name="uni30AF" unicode="&#x30af;" 
d="M640 20l85 520h-385l-40 -220h-224l51 280h832l-95 -580h-224z" />
    <glyph glyph-name="uni30B0" unicode="&#x30b0;" 
d="M974 520h-28l-82 -500h-224l85 520h-385l-40 -220h-224l51 280h700l-7 -80h34l9 100h44l-9 -100h32l9 100h44z" />
    <glyph glyph-name="uni30B1" unicode="&#x30b1;" 
d="M512 20l112 468h-293l-31 -168h-224l55 296h224l-13 -68h636l-5 -60h-125l-112 -468h-224z" />
    <glyph glyph-name="uni30B2" unicode="&#x30b2;" 
d="M512 20l112 468h-293l-31 -168h-224l55 296h224l-13 -68h515l6 72h44l-6 -72h32l6 72h44l-6 -72h1l-5 -60h-125l-112 -468h-224z" />
    <glyph glyph-name="uni30B3" unicode="&#x30b3;" 
d="M108 528l5 60h839l-53 -568h-836l5 60h613l42 448h-615z" />
    <glyph glyph-name="uni30B4" unicode="&#x30b4;" 
d="M108 528l5 60h713l-6 -68h34l9 100h44l-9 -100h32l9 100h44l-9 -100h-29l-46 -500h-836l5 60h613l42 448h-615z" />
    <glyph glyph-name="uni30B5" unicode="&#x30b5;" 
d="M87 484l5 60h116l6 76h192l-7 -76h247l17 76h224l-17 -76h90l-5 -60h-98l-101 -464h-224l101 464h-239l-18 -212h-191l18 212h-116z" />
    <glyph glyph-name="uni30B6" unicode="&#x30b6;" 
d="M87 484l5 60h116l6 76h192l-7 -76h247l17 76h166l-9 -100h34l9 100h44l-9 -100h32l9 100h44l-9 -100h-16l-3 -36h-98l-101 -464h-224l101 464h-239l-18 -212h-191l18 212h-116z" />
    <glyph glyph-name="uni30B7" unicode="&#x30b7;" 
d="M106 544l5 60h312l-5 -60h-312zM420 20l303 540h256l-303 -540h-256zM86 328l5 60h312l-5 -60h-312z" />
    <glyph glyph-name="uni30B8" unicode="&#x30b8;" 
d="M106 544l5 60h312l-5 -60h-312zM420 20l303 540h101l-4 -40h34l9 100h44l-9 -100h32l9 100h44l-9 -100h-18l-280 -500h-256zM86 328l5 60h312l-5 -60h-312z" />
    <glyph glyph-name="uni30B9" unicode="&#x30b9;" 
d="M48 20l591 524h-541l5 60h860l-329 -291l266 -293h-240l-159 175l-197 -175h-256z" />
    <glyph glyph-name="uni30BA" unicode="&#x30ba;" 
d="M48 20l591 524h-541l5 60h725l-8 -84h34l9 100h44l-9 -100h-30l-234 -207l266 -293h-240l-159 175l-197 -175h-256zM974 520h-44l9 100h44z" />
    <glyph glyph-name="uni30BB" unicode="&#x30bb;" 
d="M87 470l5 60h103l8 90h224l-8 -90h541l-86 -286h-223l67 226h-305l-35 -390h522l-5 -60h-747l41 450h-102z" />
    <glyph glyph-name="uni30BC" unicode="&#x30bc;" 
d="M87 470l5 60h103l8 90h224l-8 -90h402l-1 -10h34l9 100h44l-9 -100h32l9 100h44l-9 -100h-17l-83 -276h-223l67 226h-305l-35 -390h522l-5 -60h-747l41 450h-102z" />
    <glyph glyph-name="uni30BD" unicode="&#x30bd;" 
d="M388 20l339 576h256l-339 -576h-256zM221 352l-119 268h192l118 -268h-191z" />
    <glyph glyph-name="uni30BE" unicode="&#x30be;" 
d="M388 20l339 576h99l-6 -76h34l9 100h44l-9 -100h32l9 100h44l-9 -100h-36l-294 -500h-256zM221 352l-119 268h192l118 -268h-191z" />
    <glyph glyph-name="uni30BF" unicode="&#x30bf;" 
d="M660 20l31 228h-389l-12 -80h-224l65 437h832l-79 -585h-224zM346 545l-35 -237h388l32 237h-385z" />
    <glyph glyph-name="uni30C0" unicode="&#x30c0;" 
d="M660 20l31 228h-389l-12 -80h-224l65 437h697l-8 -85h34l9 100h44l-9 -100h32l9 100h44l-9 -100h-22l-68 -500h-224zM346 545l-35 -237h388l32 237h-385z" />
    <glyph glyph-name="uni30C1" unicode="&#x30c1;" 
d="M75 320l5 60h325l25 170l-327 -6l5 60l848 16l-5 -60l-297 -6l-25 -174h319l-5 -60h-323l-43 -300h-223l43 300h-322z" />
    <glyph glyph-name="uni30C2" unicode="&#x30c2;" 
d="M75 320l5 60h325l25 170l-327 -6l5 60l721 14l-5 -60l-170 -3l-25 -175h319l-5 -60h-323l-43 -300h-223l43 300h-322zM974 520h-44l9 100h44zM898 520h-44l9 100h44z" />
    <glyph glyph-name="uni30C3" unicode="&#x30c3;" 
d="M120 244l2 228h184l-3 -228h-183zM580 20l151 452h216l-151 -452h-216zM392 244l2 228h184l-3 -228h-183z" />
    <glyph glyph-name="uni30C4" unicode="&#x30c4;" 
d="M108 292l10 300h192l-11 -300h-191zM596 20l163 572h224l-163 -572h-224zM396 292l10 300h192l-11 -300h-191z" />
    <glyph glyph-name="uni30C5" unicode="&#x30c5;" 
d="M108 292l10 300h192l-11 -300h-191zM596 20l163 572h68l-6 -72h33l9 100h44l-9 -100h32l9 100h44l-9 -100h-12l-142 -500h-224zM396 292l10 300h192l-11 -300h-191z" />
    <glyph glyph-name="uni30C6" unicode="&#x30c6;" 
d="M102 556l5 60h860l-5 -60h-860zM67 356l5 60h892l-5 -60h-299l-116 -336h-224l116 336h-369z" />
    <glyph glyph-name="uni30C7" unicode="&#x30c7;" 
d="M102 556l5 60h720l-5 -60h-720zM67 356l5 60h892l-5 -60h-299l-116 -336h-224l116 336h-369zM974 520h-44l9 100h44zM898 520h-44l9 100h44z" />
    <glyph glyph-name="uni30C8" unicode="&#x30c8;" 
d="M96 20l52 600h224l-21 -240h564l-5 -60h-564l-27 -300h-223z" />
    <glyph glyph-name="uni30C9" unicode="&#x30c9;" 
d="M96 20l52 600h224l-21 -240h564l-5 -60h-564l-27 -300h-223zM974 520h-44l9 100h44zM898 520h-44l9 100h44z" />
    <glyph glyph-name="uni30CA" unicode="&#x30ca;" 
d="M78 488l5 60h363l24 72h240l-24 -72h289l-5 -60h-303l-154 -468h-239l153 468h-349z" />
    <glyph glyph-name="uni30CB" unicode="&#x30cb;" 
d="M143 532l5 60h772l-5 -60h-772zM53 32l5 60h859l-5 -60h-859z" />
    <glyph glyph-name="uni30CC" unicode="&#x30cc;" 
d="M123 546l5 60h852l-342 -318l281 -208h-207l-166 122l-196 -182h-271l316 294l-209 154h208l92 -68l158 146h-521z" />
    <glyph glyph-name="uni30CD" unicode="&#x30cd;" 
d="M123 504l5 60h290l4 56h224l-4 -56h16l2 1h272l-2 -1h2l-21 -12l-243 -157l278 -225h-223l-94 80l-20 -230h-223l18 206l-87 -56h-271l519 334h-442z" />
    <glyph glyph-name="uni30CE" unicode="&#x30ce;" 
d="M112 20l563 584h256l-563 -584h-256z" />
    <glyph glyph-name="uni30CF" unicode="&#x30cf;" 
d="M48 20l172 600h208l-172 -600h-208zM704 20l-84 600h208l84 -600h-208z" />
    <glyph glyph-name="uni30D0" unicode="&#x30d0;" 
d="M48 20l172 600h208l-172 -600h-208zM704 20l-84 600h208l84 -600h-208zM974 520h-44l9 100h44zM898 520h-44l9 100h44z" />
    <glyph glyph-name="uni30D1" unicode="&#x30d1;" 
d="M48 20l172 600h208l-172 -600h-208zM704 20l-84 600h208l84 -600h-208zM974 520h-120l9 100h120zM936 590h-32l-3 -40h32z" />
    <glyph glyph-name="uni30D2" unicode="&#x30d2;" 
d="M68 20l52 600h224l-16 -187l608 51l-5 -60l-609 -51l-26 -293h604l-5 -60h-827z" />
    <glyph glyph-name="uni30D3" unicode="&#x30d3;" 
d="M68 20l52 600h224l-16 -187l608 51l-5 -60l-609 -51l-26 -293h604l-5 -60h-827zM974 520h-44l9 100h44zM898 520h-44l9 100h44z" />
    <glyph glyph-name="uni30D4" unicode="&#x30d4;" 
d="M68 20l52 600h224l-16 -187l608 51l-5 -60l-609 -51l-26 -293h604l-5 -60h-827zM974 520h-120l9 100h120zM936 590h-32l-3 -40h32z" />
    <glyph glyph-name="uni30D5" unicode="&#x30d5;" 
d="M624 20l103 524h-629l5 60h860l-115 -584h-224z" />
    <glyph glyph-name="uni30D6" unicode="&#x30d6;" 
d="M624 20l103 524h-629l5 60h724l-7 -84h34l9 100h44l-9 -100h32l9 100h44l-9 -100h-28l-98 -500h-224z" />
    <glyph glyph-name="uni30D7" unicode="&#x30d7;" 
d="M974 520h-27l-99 -500h-224l103 524h-629l5 60h725l-8 -84h34l9 100h120zM936 590h-32l-3 -40h32z" />
    <glyph glyph-name="uni30D8" unicode="&#x30d8;" 
d="M713 20l-305 437l-167 -257h-192l260 400h224l404 -580h-224z" />
    <glyph glyph-name="uni30D9" unicode="&#x30d9;" 
d="M713 20l-305 437l-167 -257h-192l260 400h224l404 -580h-224zM974 520h-44l9 100h44zM898 520h-44l9 100h44z" />
    <glyph glyph-name="uni30DA" unicode="&#x30da;" 
d="M713 20l-305 437l-167 -257h-192l260 400h224l404 -580h-224zM974 520h-120l9 100h120zM936 590h-32l-3 -40h32z" />
    <glyph glyph-name="uni30DB" unicode="&#x30db;" 
d="M107 504l5 60h305l5 56h224l-5 -56h307l-5 -60h-307l-43 -484h-223l42 484h-305zM50 48l100 380h192l-101 -380h-191zM726 48l-28 380h192l27 -380h-191z" />
    <glyph glyph-name="uni30DC" unicode="&#x30dc;" 
d="M107 504l5 60h305l5 56h224l-5 -56h215l-5 -60h-215l-43 -484h-223l42 484h-305zM50 48l100 380h192l-101 -380h-191zM726 48l-28 380h192l27 -380h-191zM974 520h-44l9 100h44zM898 520h-44l9 100h44z" />
    <glyph glyph-name="uni30DD" unicode="&#x30dd;" 
d="M107 504l5 60h305l5 56h224l-5 -56h215l-5 -60h-215l-43 -484h-223l42 484h-305zM50 48l100 380h192l-101 -380h-191zM726 48l-28 380h192l27 -380h-191zM974 520h-120l9 100h120zM936 590h-32l-3 -40h32z" />
    <glyph glyph-name="uni30DE" unicode="&#x30de;" 
d="M76 532l5 60h901l-36 -47l-291 -377h-55l109 -148h-224l-277 376h224l70 -95l178 231h-604z" />
    <glyph glyph-name="uni30DF" unicode="&#x30df;" 
d="M127 544l5 60l804 -34l-5 -60zM138 336l5 60l740 -34l-5 -60zM67 52l9 108l836 -34l-9 -108z" />
    <glyph glyph-name="uni30E0" unicode="&#x30e0;" 
d="M48 20l126 600h224l-113 -540h417l-8 192h208l10 -252h-864z" />
    <glyph glyph-name="uni30E1" unicode="&#x30e1;" 
d="M47 20l340 302l-287 224h240l159 -125l209 185h272l-336 -298l291 -228h-239l-165 129l-213 -189h-271z" />
    <glyph glyph-name="uni30E2" unicode="&#x30e2;" 
d="M111 544l5 60h836l-5 -60h-420l-14 -164h446l-5 -60h-447l-21 -240h425l-5 -60h-648l26 300h-221l5 60h221l14 164h-192z" />
    <glyph glyph-name="uni30E3" unicode="&#x30e3;" 
d="M101 386l5 60h128l-5 74h216l5 -74h492l-72 -248h-207l54 188h-264l23 -366h-216l-23 366h-136z" />
    <glyph glyph-name="uni30E4" unicode="&#x30e4;" 
d="M91 486l5 60h126l-3 74h224l3 -74h518l-86 -286h-223l67 226h-273l19 -466h-224l-19 466h-134z" />
    <glyph glyph-name="uni30E5" unicode="&#x30e5;" 
d="M154 424l5 60h679l-72 -404h138l-5 -60h-832l5 60h471l60 344h-449z" />
    <glyph glyph-name="uni30E6" unicode="&#x30e6;" 
d="M154 544l5 60h713l-91 -524h155l-5 -60h-896l5 60h518l80 464h-484z" />
    <glyph glyph-name="uni30E7" unicode="&#x30e7;" 
d="M122 438l5 60h799l-43 -478h-796l5 60h581l15 166h-578l5 60h578l12 132h-583z" />
    <glyph glyph-name="uni30E8" unicode="&#x30e8;" 
d="M112 544l5 60h839l-53 -584h-836l5 60h613l22 238h-611l5 60h611l15 166h-615z" />
    <glyph glyph-name="uni30E9" unicode="&#x30e9;" 
d="M640 20l77 388h-629l5 60h860l-89 -448h-224zM102 556l5 60h860l-5 -60h-860z" />
    <glyph glyph-name="uni30EA" unicode="&#x30ea;" 
d="M628 20l90 540h-106l5 60h335l-100 -600h-224zM99 244l33 376h224l-33 -376h-224z" />
    <glyph glyph-name="uni30EB" unicode="&#x30eb;" 
d="M48 20l100 532h208l-100 -532h-208zM452 20l52 600h224l-48 -540h258l-5 -60h-481z" />
    <glyph glyph-name="uni30EC" unicode="&#x30ec;" 
d="M108 620h224l-43 -509l632 57l-5 -72l-860 -76z" />
    <glyph glyph-name="uni30ED" unicode="&#x30ed;" 
d="M52 20l52 568h860l-53 -568h-859zM322 528l-41 -448h412l42 448h-413z" />
    <glyph glyph-name="uni30EE" unicode="&#x30ee;" 
d="M640 20l76 424h-390l-14 -160h-224l19 220h844l-87 -484h-224z" />
    </font>
</defs>
</svg>
